G04 #@! TF.GenerationSoftware,KiCad,Pcbnew,8.0.3*
G04 #@! TF.CreationDate,2024-06-29T11:15:49-04:00*
G04 #@! TF.ProjectId,qse2,71736532-2e6b-4696-9361-645f70636258,rev?*
G04 #@! TF.SameCoordinates,Original*
G04 #@! TF.FileFunction,Soldermask,Bot*
G04 #@! TF.FilePolarity,Negative*
%FSLAX46Y46*%
G04 Gerber Fmt 4.6, Leading zero omitted, Abs format (unit mm)*
G04 Created by KiCad (PCBNEW 8.0.3) date 2024-06-29 11:15:49*
%MOMM*%
%LPD*%
G01*
G04 APERTURE LIST*
G04 Aperture macros list*
%AMRoundRect*
0 Rectangle with rounded corners*
0 $1 Rounding radius*
0 $2 $3 $4 $5 $6 $7 $8 $9 X,Y pos of 4 corners*
0 Add a 4 corners polygon primitive as box body*
4,1,4,$2,$3,$4,$5,$6,$7,$8,$9,$2,$3,0*
0 Add four circle primitives for the rounded corners*
1,1,$1+$1,$2,$3*
1,1,$1+$1,$4,$5*
1,1,$1+$1,$6,$7*
1,1,$1+$1,$8,$9*
0 Add four rect primitives between the rounded corners*
20,1,$1+$1,$2,$3,$4,$5,0*
20,1,$1+$1,$4,$5,$6,$7,0*
20,1,$1+$1,$6,$7,$8,$9,0*
20,1,$1+$1,$8,$9,$2,$3,0*%
G04 Aperture macros list end*
%ADD10C,2.600000*%
%ADD11C,2.500000*%
%ADD12C,1.700000*%
%ADD13RoundRect,0.250000X-0.312500X-0.625000X0.312500X-0.625000X0.312500X0.625000X-0.312500X0.625000X0*%
%ADD14C,2.100000*%
%ADD15RoundRect,0.250000X-0.600000X-0.600000X0.600000X-0.600000X0.600000X0.600000X-0.600000X0.600000X0*%
%ADD16RoundRect,0.250000X0.325000X0.650000X-0.325000X0.650000X-0.325000X-0.650000X0.325000X-0.650000X0*%
%ADD17RoundRect,0.250000X-0.325000X-0.650000X0.325000X-0.650000X0.325000X0.650000X-0.325000X0.650000X0*%
%ADD18RoundRect,0.250000X-0.650000X0.325000X-0.650000X-0.325000X0.650000X-0.325000X0.650000X0.325000X0*%
G04 APERTURE END LIST*
D10*
X118632500Y-42672000D03*
X118632500Y-47752000D03*
X123712500Y-42672000D03*
X123712500Y-47752000D03*
D11*
X121272500Y-45137000D03*
D10*
X148590000Y-42672000D03*
X148590000Y-47752000D03*
X153670000Y-42672000D03*
X153670000Y-47752000D03*
D11*
X151230000Y-45137000D03*
D12*
X195051500Y-53450000D03*
X188051500Y-53450000D03*
D13*
X118237500Y-69500000D03*
X121162500Y-69500000D03*
D14*
X104597200Y-89752800D03*
X104597200Y-92252800D03*
X195000000Y-86600000D03*
X195000000Y-89100000D03*
X195000000Y-91600000D03*
X195000000Y-94100000D03*
D15*
X103210000Y-62500000D03*
D12*
X105750000Y-62500000D03*
X103210000Y-65040000D03*
X105750000Y-65040000D03*
X103210000Y-67580000D03*
X105750000Y-67580000D03*
X103210000Y-70120000D03*
X105750000Y-70120000D03*
X103210000Y-72660000D03*
X105750000Y-72660000D03*
X103210000Y-75200000D03*
X105750000Y-75200000D03*
X103210000Y-77740000D03*
X105750000Y-77740000D03*
X103210000Y-80280000D03*
X105750000Y-80280000D03*
D16*
X145669000Y-69088000D03*
X142719000Y-69088000D03*
D17*
X135200000Y-66100000D03*
X138150000Y-66100000D03*
D16*
X146725000Y-59475000D03*
X143775000Y-59475000D03*
D17*
X131825000Y-56100000D03*
X134775000Y-56100000D03*
D18*
X140300000Y-50425000D03*
X140300000Y-53375000D03*
M02*
