M48
; DRILL file {KiCad 8.0.4} date 2024-07-26T12:44:32-0400
; FORMAT={-:-/ absolute / metric / decimal}
; #@! TF.CreationDate,2024-07-26T12:44:32-04:00
; #@! TF.GenerationSoftware,Kicad,Pcbnew,8.0.4
; #@! TF.FileFunction,Plated,1,2,PTH
FMAT,2
METRIC
; #@! TA.AperFunction,Plated,PTH,ViaDrill
T1C0.500
; #@! TA.AperFunction,Plated,PTH,ComponentDrill
T2C1.000
; #@! TA.AperFunction,Plated,PTH,ComponentDrill
T3C1.100
; #@! TA.AperFunction,Plated,PTH,ComponentDrill
T4C1.500
; #@! TA.AperFunction,Plated,PTH,ComponentDrill
T5C1.600
%
G90
G05
T1
X100.55Y-106.55
X100.6Y-55.375
X101.05Y-41.5
X103.2Y-57.525
X106.68Y-59.182
X107.4Y-113.15
X107.75Y-98.15
X107.9Y-55.4
X109.88Y-88.53
X109.931Y-66.192
X110.5Y-61.05
X113.6Y-81.8
X113.7Y-56.8
X114.012Y-51.05
X114.3Y-73.93
X116.25Y-83.55
X118.22Y-78.08
X118.75Y-61.9
X118.9Y-58.75
X119.35Y-53.85
X119.45Y-63.95
X119.84Y-71.42
X119.86Y-73.92
X120.15Y-67.7
X120.269Y-91.059
X122.48Y-78.33
X122.54Y-70.95
X123.8Y-60.24
X123.81Y-58.34
X123.9Y-68.25
X124.05Y-65.35
X124.56Y-73.92
X124.575Y-75.65
X127.7Y-70.8
X128.6Y-63.8
X128.95Y-67.2
X129.25Y-54.75
X130.35Y-75.75
X130.4Y-72.8
X130.55Y-64.05
X130.82Y-78.45
X131.5Y-77.0
X131.85Y-58.9
X132.39Y-89.74
X132.4Y-72.8
X132.7Y-75.6
X133.2Y-64.3
X133.35Y-71.6
X134.239Y-74.295
X134.3Y-58.8
X134.35Y-60.2
X134.65Y-81.1
X134.85Y-78.48
X135.0Y-68.45
X135.25Y-72.8
X135.65Y-58.65
X135.85Y-79.8
X136.65Y-63.8
X136.85Y-59.75
X137.0Y-95.4
X137.05Y-98.25
X137.1Y-81.15
X137.85Y-53.9
X137.9Y-73.7
X138.15Y-64.0
X138.9Y-59.95
X139.12Y-89.74
X139.2Y-55.35
X139.4Y-94.4
X139.65Y-63.75
X140.3Y-48.8
X140.4Y-60.25
X140.613Y-69.146
X140.7Y-76.55
X141.224Y-70.612
X141.68Y-58.58
X142.8Y-54.55
X142.8Y-64.4
X143.4Y-50.175
X143.7Y-88.95
X144.2Y-63.75
X144.272Y-70.612
X144.4Y-65.55
X145.75Y-54.2
X146.2Y-67.05
X146.685Y-71.882
X147.0Y-78.4
X147.0Y-81.2
X147.3Y-64.95
X147.45Y-113.05
X147.828Y-68.453
X147.85Y-74.7
X148.9Y-54.05
X149.35Y-88.9
X149.45Y-61.9
X149.5Y-74.676
X149.525Y-91.35
X149.987Y-73.152
X150.15Y-76.05
X151.55Y-66.95
X151.85Y-63.5
X152.103Y-58.236
X154.1Y-61.35
X154.5Y-94.1
X154.65Y-88.6
X155.3Y-81.1
X155.7Y-78.45
X156.13Y-75.92
X156.225Y-73.15
X156.65Y-79.8
X157.15Y-84.55
X158.06Y-69.04
X158.253Y-81.026
X158.6Y-92.8
X159.2Y-87.45
X159.25Y-48.6
X159.85Y-63.75
X160.65Y-78.6
X161.0Y-98.25
X162.275Y-91.3
X162.5Y-87.5
X162.8Y-51.85
X162.9Y-68.8
X163.231Y-86.055
X163.35Y-81.05
X163.55Y-84.0
X164.0Y-76.025
X164.025Y-78.575
X164.15Y-60.15
X164.2Y-62.6
X164.25Y-89.15
X165.542Y-72.771
X166.243Y-89.027
X166.5Y-94.2
X166.584Y-79.807
X166.584Y-84.938
X166.6Y-68.8
X166.635Y-65.176
X166.838Y-60.147
X166.838Y-70.409
X168.463Y-80.213
X168.529Y-84.836
X168.768Y-60.401
X169.05Y-53.2
X170.307Y-65.278
X170.851Y-56.083
X171.5Y-76.05
X171.8Y-71.75
X171.85Y-91.9
X172.121Y-64.77
X172.15Y-84.85
X175.05Y-63.85
X175.4Y-56.25
X176.625Y-83.625
X177.05Y-41.1
X178.115Y-76.352
X179.3Y-84.45
X180.3Y-64.05
X181.15Y-79.15
X181.2Y-70.85
X181.25Y-61.2
X181.25Y-94.4
X181.25Y-98.25
X181.3Y-80.75
X181.4Y-90.6
X183.6Y-76.0
X183.75Y-68.25
X184.45Y-57.35
X186.4Y-82.35
X186.45Y-62.65
X186.5Y-76.0
X188.65Y-90.4
X189.0Y-71.4
X189.738Y-64.008
X190.8Y-81.3
X191.1Y-113.15
X192.9Y-59.65
X193.4Y-49.75
X196.15Y-47.0
X197.225Y-60.6
X197.26Y-41.44
X197.3Y-82.3
X197.85Y-97.7
X197.85Y-107.3
T2
X103.21Y-62.5
X103.21Y-65.04
X103.21Y-67.58
X103.21Y-70.12
X103.21Y-72.66
X103.21Y-75.2
X103.21Y-77.74
X103.21Y-80.28
X105.75Y-62.5
X105.75Y-65.04
X105.75Y-67.58
X105.75Y-70.12
X105.75Y-72.66
X105.75Y-75.2
X105.75Y-77.74
X105.75Y-80.28
T3
X104.597Y-89.753
X104.597Y-92.253
X195.0Y-86.6
X195.0Y-89.1
X195.0Y-91.6
X195.0Y-94.1
T4
X121.272Y-45.137
X151.23Y-45.137
T5
X118.632Y-42.672
X118.632Y-47.752
X123.712Y-42.672
X123.712Y-47.752
X148.59Y-42.672
X148.59Y-47.752
X153.67Y-42.672
X153.67Y-47.752
M30
