M48
; DRILL file {KiCad 8.0.3} date 2024-06-18T21:45:58-0400
; FORMAT={-:-/ absolute / metric / decimal}
; #@! TF.CreationDate,2024-06-18T21:45:58-04:00
; #@! TF.GenerationSoftware,Kicad,Pcbnew,8.0.3
; #@! TF.FileFunction,Plated,1,2,PTH
FMAT,2
METRIC
; #@! TA.AperFunction,Plated,PTH,ViaDrill
T1C0.400
; #@! TA.AperFunction,Plated,PTH,ViaDrill
T2C0.500
; #@! TA.AperFunction,Plated,PTH,ComponentDrill
T3C1.000
; #@! TA.AperFunction,Plated,PTH,ComponentDrill
T4C1.100
; #@! TA.AperFunction,Plated,PTH,ComponentDrill
T5C1.500
; #@! TA.AperFunction,Plated,PTH,ComponentDrill
T6C1.600
%
G90
G05
T1
X147.5Y-74.35
X149.85Y-76.1
T2
X100.55Y-106.55
X100.6Y-55.375
X101.05Y-41.5
X103.2Y-57.525
X106.68Y-59.182
X107.4Y-113.15
X107.75Y-98.15
X109.22Y-57.277
X109.728Y-60.325
X109.88Y-88.53
X109.931Y-66.192
X113.475Y-69.55
X114.16Y-73.93
X115.6Y-61.7
X116.25Y-83.55
X117.2Y-51.05
X118.22Y-78.08
X119.8Y-56.825
X119.84Y-71.42
X119.86Y-73.92
X120.269Y-91.059
X122.48Y-78.33
X122.54Y-70.95
X123.25Y-63.4
X123.65Y-65.85
X123.9Y-68.25
X124.56Y-73.92
X124.575Y-75.65
X125.1Y-61.85
X125.325Y-58.7
X126.5Y-54.7
X127.625Y-64.0
X127.65Y-70.7
X130.19Y-60.29
X130.2Y-58.39
X130.35Y-75.75
X130.4Y-72.8
X130.82Y-78.45
X131.5Y-77.0
X131.55Y-71.85
X132.0Y-66.4
X132.05Y-69.35
X132.39Y-89.74
X132.95Y-75.6
X133.604Y-71.374
X134.239Y-74.295
X134.85Y-78.48
X135.15Y-62.25
X135.255Y-56.642
X135.45Y-64.75
X135.55Y-53.05
X135.85Y-79.8
X136.271Y-74.549
X136.53Y-54.697
X137.0Y-95.4
X137.05Y-98.25
X137.1Y-81.15
X137.208Y-63.951
X137.3Y-75.7
X137.414Y-73.279
X137.433Y-60.59
X137.858Y-58.177
X138.75Y-50.5
X139.12Y-89.74
X139.158Y-54.976
X139.158Y-60.776
X139.4Y-94.4
X139.508Y-58.431
X140.613Y-69.146
X141.1Y-64.05
X141.224Y-70.612
X141.25Y-54.85
X141.55Y-53.75
X141.55Y-76.55
X142.126Y-60.971
X142.433Y-57.876
X142.758Y-56.576
X142.758Y-62.326
X143.05Y-64.45
X143.4Y-50.175
X143.7Y-88.95
X144.272Y-70.612
X144.563Y-65.686
X145.233Y-63.976
X145.8Y-67.1
X145.883Y-54.826
X145.883Y-58.05
X145.883Y-60.85
X146.685Y-71.882
X147.0Y-78.4
X147.0Y-81.2
X147.45Y-113.05
X147.828Y-59.69
X147.828Y-68.453
X148.583Y-53.876
X148.708Y-55.601
X149.35Y-88.9
X149.383Y-62.326
X149.413Y-60.826
X149.5Y-74.676
X149.525Y-91.35
X149.987Y-68.072
X149.987Y-73.152
X151.384Y-63.881
X151.765Y-66.294
X152.103Y-58.236
X154.1Y-61.35
X154.5Y-94.1
X154.65Y-88.6
X155.3Y-81.1
X155.7Y-78.45
X155.75Y-52.2
X156.13Y-75.92
X156.225Y-73.15
X156.65Y-79.8
X157.15Y-84.55
X158.06Y-69.04
X158.253Y-81.026
X158.6Y-92.8
X159.2Y-87.45
X159.85Y-63.75
X160.65Y-78.6
X161.0Y-98.25
X162.275Y-91.3
X162.5Y-87.5
X162.8Y-51.85
X162.9Y-68.8
X163.231Y-86.055
X163.35Y-81.05
X163.55Y-84.0
X164.0Y-76.025
X164.025Y-78.575
X164.15Y-60.15
X164.2Y-62.6
X164.25Y-89.15
X165.542Y-72.771
X166.243Y-89.027
X166.5Y-94.2
X166.584Y-79.807
X166.584Y-84.938
X166.6Y-68.8
X166.635Y-65.176
X166.838Y-60.147
X166.838Y-70.409
X168.057Y-49.886
X168.463Y-80.213
X168.529Y-84.836
X168.768Y-60.401
X170.307Y-65.278
X170.851Y-56.083
X171.5Y-76.05
X171.8Y-71.75
X171.85Y-91.9
X172.121Y-64.77
X172.15Y-84.85
X175.05Y-63.85
X175.118Y-56.083
X176.625Y-83.625
X177.05Y-41.1
X178.115Y-76.352
X179.3Y-84.45
X181.15Y-63.8
X181.15Y-79.15
X181.2Y-70.85
X181.25Y-61.2
X181.25Y-94.4
X181.25Y-98.25
X181.3Y-80.75
X181.4Y-90.6
X183.6Y-68.35
X183.95Y-76.0
X184.45Y-57.35
X184.5Y-82.3
X185.45Y-63.35
X186.45Y-84.125
X186.853Y-70.409
X186.9Y-77.3
X189.738Y-64.008
X191.1Y-113.15
X193.4Y-49.75
X196.15Y-47.0
X197.225Y-60.6
X197.26Y-41.44
X197.3Y-82.3
X197.85Y-97.7
X197.85Y-107.3
T3
X103.21Y-62.5
X103.21Y-65.04
X103.21Y-67.58
X103.21Y-70.12
X103.21Y-72.66
X103.21Y-75.2
X103.21Y-77.74
X103.21Y-80.28
X105.75Y-62.5
X105.75Y-65.04
X105.75Y-67.58
X105.75Y-70.12
X105.75Y-72.66
X105.75Y-75.2
X105.75Y-77.74
X105.75Y-80.28
T4
X104.597Y-89.753
X104.597Y-92.253
X195.0Y-86.6
X195.0Y-89.1
X195.0Y-91.6
X195.0Y-94.1
T5
X124.46Y-45.137
X151.23Y-45.137
T6
X121.82Y-42.672
X121.82Y-47.752
X126.9Y-42.672
X126.9Y-47.752
X148.59Y-42.672
X148.59Y-47.752
X153.67Y-42.672
X153.67Y-47.752
M30
