M48
; DRILL file {KiCad 8.0.1} date 2024-03-28T06:18:45-0400
; FORMAT={2:4/ absolute / inch / suppress leading zeros}
; #@! TF.CreationDate,2024-03-28T06:18:45-04:00
; #@! TF.GenerationSoftware,Kicad,Pcbnew,8.0.1
; #@! TF.FileFunction,Plated,1,2,PTH
FMAT,2
INCH,TZ
; #@! TA.AperFunction,Plated,PTH,ViaDrill
T1C0.0197
; #@! TA.AperFunction,Plated,PTH,ComponentDrill
T2C0.0394
; #@! TA.AperFunction,Plated,PTH,ComponentDrill
T3C0.0433
; #@! TA.AperFunction,Plated,PTH,ComponentDrill
T4C0.0591
; #@! TA.AperFunction,Plated,PTH,ComponentDrill
T5C0.0630
%
G90
G05
T1
X39587Y-41949
X39606Y-21801
X39783Y-16339
X40630Y-22648
X42000Y-23300
X42283Y-44547
X43000Y-22550
X43200Y-23750
X43260Y-34854
X43280Y-26060
X44094Y-25354
X44675Y-27382
X44945Y-29106
X45768Y-32894
X46142Y-20098
X46543Y-30740
X47165Y-22372
X47181Y-28118
X47189Y-29102
X47350Y-35850
X47752Y-26854
X48220Y-30839
X48244Y-27933
X49039Y-29102
X49045Y-29783
X49157Y-26854
X49252Y-24350
X49341Y-23110
X49725Y-27350
X49803Y-21535
X50246Y-25197
X50453Y-29803
X50550Y-26850
X51256Y-23736
X51260Y-22988
X51504Y-30886
X51969Y-26142
X51988Y-27303
X52122Y-35331
X52193Y-29126
X52600Y-28100
X52850Y-29250
X53091Y-30898
X53189Y-25512
X53209Y-24508
X53250Y-22300
X53366Y-20886
X53650Y-29350
X53752Y-21534
X54019Y-25178
X54100Y-28850
X54107Y-23854
X54275Y-22904
X54543Y-31961
X54626Y-19882
X54772Y-35331
X54787Y-21644
X54787Y-23928
X54924Y-23004
X55359Y-27223
X55600Y-27800
X55610Y-21594
X55705Y-25204
X55728Y-21161
X55728Y-30138
X55955Y-24004
X56076Y-22786
X56204Y-22274
X56204Y-24538
X56205Y-25354
X56457Y-19754
X56800Y-27800
X56915Y-25861
X57178Y-25187
X57370Y-31945
X57382Y-34823
X57434Y-21585
X57434Y-22943
X57434Y-23888
X57750Y-28300
X57854Y-37323
X57874Y-30866
X58051Y-44508
X58200Y-23500
X58200Y-26950
X58335Y-31945
X58425Y-34862
X58497Y-21211
X58546Y-21890
X58812Y-24538
X58824Y-23947
X58858Y-29400
X58868Y-35965
X59050Y-26800
X59050Y-28800
X59600Y-25150
X59750Y-26100
X59883Y-22928
X60356Y-23994
X60827Y-37047
X60886Y-34882
X61142Y-31929
X61299Y-30886
X61469Y-29890
X61506Y-28799
X61634Y-21122
X61673Y-31417
X61870Y-33287
X62228Y-27181
X62304Y-31900
X62441Y-36535
X62677Y-34429
X62933Y-25098
X63888Y-35945
X63976Y-34449
X64094Y-20413
X64134Y-27087
X64264Y-33880
X64311Y-31909
X64390Y-33071
X64567Y-29931
X64577Y-30935
X64626Y-23681
X64646Y-24646
X64665Y-35098
X65174Y-28650
X65450Y-35050
X65584Y-31420
X65584Y-33440
X65591Y-27087
X65604Y-25660
X65610Y-37008
X65684Y-23680
X65684Y-27720
X66164Y-19640
X66324Y-31580
X66350Y-33400
X66444Y-23780
X67050Y-25700
X67264Y-22080
X67520Y-29941
X67638Y-28248
X67657Y-36181
X67764Y-25500
X67776Y-33406
X68917Y-25138
X68944Y-22080
X69537Y-32923
X69705Y-16181
X70124Y-30060
X70591Y-33248
X71319Y-25118
X71339Y-27894
X71358Y-24094
X71378Y-31791
X71417Y-31142
X71417Y-35669
X72283Y-26909
X72421Y-29921
X72618Y-22579
X72638Y-32402
X73012Y-24941
X73406Y-33120
X73564Y-27720
X73583Y-30433
X74700Y-25200
X75236Y-44547
X76142Y-19587
X77224Y-18504
X77648Y-23858
X77661Y-16315
X77677Y-32402
X77894Y-42244
T2
X40634Y-24606
X40634Y-25606
X40634Y-26606
X40634Y-27606
X40634Y-28606
X40634Y-29606
X40634Y-30606
X40634Y-31606
X41634Y-24606
X41634Y-25606
X41634Y-26606
X41634Y-27606
X41634Y-28606
X41634Y-29606
X41634Y-30606
X41634Y-31606
T3
X41180Y-35336
X41180Y-36320
T4
X49000Y-17770
X59539Y-17770
T5
X47961Y-16800
X47961Y-18800
X49961Y-16800
X49961Y-18800
X58500Y-16800
X58500Y-18800
X60500Y-16800
X60500Y-18800
M30
