G04 #@! TF.GenerationSoftware,KiCad,Pcbnew,8.0.0*
G04 #@! TF.CreationDate,2024-03-05T13:06:20-05:00*
G04 #@! TF.ProjectId,qse2,71736532-2e6b-4696-9361-645f70636258,rev?*
G04 #@! TF.SameCoordinates,Original*
G04 #@! TF.FileFunction,Legend,Bot*
G04 #@! TF.FilePolarity,Positive*
%FSLAX46Y46*%
G04 Gerber Fmt 4.6, Leading zero omitted, Abs format (unit mm)*
G04 Created by KiCad (PCBNEW 8.0.0) date 2024-03-05 13:06:20*
%MOMM*%
%LPD*%
G01*
G04 APERTURE LIST*
%ADD10C,0.150000*%
%ADD11C,0.120000*%
G04 APERTURE END LIST*
D10*
X144366666Y-67559580D02*
X144414285Y-67607200D01*
X144414285Y-67607200D02*
X144557142Y-67654819D01*
X144557142Y-67654819D02*
X144652380Y-67654819D01*
X144652380Y-67654819D02*
X144795237Y-67607200D01*
X144795237Y-67607200D02*
X144890475Y-67511961D01*
X144890475Y-67511961D02*
X144938094Y-67416723D01*
X144938094Y-67416723D02*
X144985713Y-67226247D01*
X144985713Y-67226247D02*
X144985713Y-67083390D01*
X144985713Y-67083390D02*
X144938094Y-66892914D01*
X144938094Y-66892914D02*
X144890475Y-66797676D01*
X144890475Y-66797676D02*
X144795237Y-66702438D01*
X144795237Y-66702438D02*
X144652380Y-66654819D01*
X144652380Y-66654819D02*
X144557142Y-66654819D01*
X144557142Y-66654819D02*
X144414285Y-66702438D01*
X144414285Y-66702438D02*
X144366666Y-66750057D01*
X143414285Y-67654819D02*
X143985713Y-67654819D01*
X143699999Y-67654819D02*
X143699999Y-66654819D01*
X143699999Y-66654819D02*
X143795237Y-66797676D01*
X143795237Y-66797676D02*
X143890475Y-66892914D01*
X143890475Y-66892914D02*
X143985713Y-66940533D01*
X145836856Y-70392819D02*
X145741618Y-70392819D01*
X145741618Y-70392819D02*
X145646380Y-70440438D01*
X145646380Y-70440438D02*
X145598761Y-70488057D01*
X145598761Y-70488057D02*
X145551142Y-70583295D01*
X145551142Y-70583295D02*
X145503523Y-70773771D01*
X145503523Y-70773771D02*
X145503523Y-71011866D01*
X145503523Y-71011866D02*
X145551142Y-71202342D01*
X145551142Y-71202342D02*
X145598761Y-71297580D01*
X145598761Y-71297580D02*
X145646380Y-71345200D01*
X145646380Y-71345200D02*
X145741618Y-71392819D01*
X145741618Y-71392819D02*
X145836856Y-71392819D01*
X145836856Y-71392819D02*
X145932094Y-71345200D01*
X145932094Y-71345200D02*
X145979713Y-71297580D01*
X145979713Y-71297580D02*
X146027332Y-71202342D01*
X146027332Y-71202342D02*
X146074951Y-71011866D01*
X146074951Y-71011866D02*
X146074951Y-70773771D01*
X146074951Y-70773771D02*
X146027332Y-70583295D01*
X146027332Y-70583295D02*
X145979713Y-70488057D01*
X145979713Y-70488057D02*
X145932094Y-70440438D01*
X145932094Y-70440438D02*
X145836856Y-70392819D01*
X145074951Y-71297580D02*
X145027332Y-71345200D01*
X145027332Y-71345200D02*
X145074951Y-71392819D01*
X145074951Y-71392819D02*
X145122570Y-71345200D01*
X145122570Y-71345200D02*
X145074951Y-71297580D01*
X145074951Y-71297580D02*
X145074951Y-71392819D01*
X144074952Y-71392819D02*
X144646380Y-71392819D01*
X144360666Y-71392819D02*
X144360666Y-70392819D01*
X144360666Y-70392819D02*
X144455904Y-70535676D01*
X144455904Y-70535676D02*
X144551142Y-70630914D01*
X144551142Y-70630914D02*
X144646380Y-70678533D01*
X143217809Y-70726152D02*
X143217809Y-71392819D01*
X143646380Y-70726152D02*
X143646380Y-71249961D01*
X143646380Y-71249961D02*
X143598761Y-71345200D01*
X143598761Y-71345200D02*
X143503523Y-71392819D01*
X143503523Y-71392819D02*
X143360666Y-71392819D01*
X143360666Y-71392819D02*
X143265428Y-71345200D01*
X143265428Y-71345200D02*
X143217809Y-71297580D01*
X142408285Y-70869009D02*
X142741618Y-70869009D01*
X142741618Y-71392819D02*
X142741618Y-70392819D01*
X142741618Y-70392819D02*
X142265428Y-70392819D01*
X142992857Y-58009580D02*
X143040476Y-58057200D01*
X143040476Y-58057200D02*
X143183333Y-58104819D01*
X143183333Y-58104819D02*
X143278571Y-58104819D01*
X143278571Y-58104819D02*
X143421428Y-58057200D01*
X143421428Y-58057200D02*
X143516666Y-57961961D01*
X143516666Y-57961961D02*
X143564285Y-57866723D01*
X143564285Y-57866723D02*
X143611904Y-57676247D01*
X143611904Y-57676247D02*
X143611904Y-57533390D01*
X143611904Y-57533390D02*
X143564285Y-57342914D01*
X143564285Y-57342914D02*
X143516666Y-57247676D01*
X143516666Y-57247676D02*
X143421428Y-57152438D01*
X143421428Y-57152438D02*
X143278571Y-57104819D01*
X143278571Y-57104819D02*
X143183333Y-57104819D01*
X143183333Y-57104819D02*
X143040476Y-57152438D01*
X143040476Y-57152438D02*
X142992857Y-57200057D01*
X142040476Y-58104819D02*
X142611904Y-58104819D01*
X142326190Y-58104819D02*
X142326190Y-57104819D01*
X142326190Y-57104819D02*
X142421428Y-57247676D01*
X142421428Y-57247676D02*
X142516666Y-57342914D01*
X142516666Y-57342914D02*
X142611904Y-57390533D01*
X141421428Y-57104819D02*
X141326190Y-57104819D01*
X141326190Y-57104819D02*
X141230952Y-57152438D01*
X141230952Y-57152438D02*
X141183333Y-57200057D01*
X141183333Y-57200057D02*
X141135714Y-57295295D01*
X141135714Y-57295295D02*
X141088095Y-57485771D01*
X141088095Y-57485771D02*
X141088095Y-57723866D01*
X141088095Y-57723866D02*
X141135714Y-57914342D01*
X141135714Y-57914342D02*
X141183333Y-58009580D01*
X141183333Y-58009580D02*
X141230952Y-58057200D01*
X141230952Y-58057200D02*
X141326190Y-58104819D01*
X141326190Y-58104819D02*
X141421428Y-58104819D01*
X141421428Y-58104819D02*
X141516666Y-58057200D01*
X141516666Y-58057200D02*
X141564285Y-58009580D01*
X141564285Y-58009580D02*
X141611904Y-57914342D01*
X141611904Y-57914342D02*
X141659523Y-57723866D01*
X141659523Y-57723866D02*
X141659523Y-57485771D01*
X141659523Y-57485771D02*
X141611904Y-57295295D01*
X141611904Y-57295295D02*
X141564285Y-57200057D01*
X141564285Y-57200057D02*
X141516666Y-57152438D01*
X141516666Y-57152438D02*
X141421428Y-57104819D01*
X144192856Y-60954819D02*
X144097618Y-60954819D01*
X144097618Y-60954819D02*
X144002380Y-61002438D01*
X144002380Y-61002438D02*
X143954761Y-61050057D01*
X143954761Y-61050057D02*
X143907142Y-61145295D01*
X143907142Y-61145295D02*
X143859523Y-61335771D01*
X143859523Y-61335771D02*
X143859523Y-61573866D01*
X143859523Y-61573866D02*
X143907142Y-61764342D01*
X143907142Y-61764342D02*
X143954761Y-61859580D01*
X143954761Y-61859580D02*
X144002380Y-61907200D01*
X144002380Y-61907200D02*
X144097618Y-61954819D01*
X144097618Y-61954819D02*
X144192856Y-61954819D01*
X144192856Y-61954819D02*
X144288094Y-61907200D01*
X144288094Y-61907200D02*
X144335713Y-61859580D01*
X144335713Y-61859580D02*
X144383332Y-61764342D01*
X144383332Y-61764342D02*
X144430951Y-61573866D01*
X144430951Y-61573866D02*
X144430951Y-61335771D01*
X144430951Y-61335771D02*
X144383332Y-61145295D01*
X144383332Y-61145295D02*
X144335713Y-61050057D01*
X144335713Y-61050057D02*
X144288094Y-61002438D01*
X144288094Y-61002438D02*
X144192856Y-60954819D01*
X143430951Y-61859580D02*
X143383332Y-61907200D01*
X143383332Y-61907200D02*
X143430951Y-61954819D01*
X143430951Y-61954819D02*
X143478570Y-61907200D01*
X143478570Y-61907200D02*
X143430951Y-61859580D01*
X143430951Y-61859580D02*
X143430951Y-61954819D01*
X142430952Y-61954819D02*
X143002380Y-61954819D01*
X142716666Y-61954819D02*
X142716666Y-60954819D01*
X142716666Y-60954819D02*
X142811904Y-61097676D01*
X142811904Y-61097676D02*
X142907142Y-61192914D01*
X142907142Y-61192914D02*
X143002380Y-61240533D01*
X141573809Y-61288152D02*
X141573809Y-61954819D01*
X142002380Y-61288152D02*
X142002380Y-61811961D01*
X142002380Y-61811961D02*
X141954761Y-61907200D01*
X141954761Y-61907200D02*
X141859523Y-61954819D01*
X141859523Y-61954819D02*
X141716666Y-61954819D01*
X141716666Y-61954819D02*
X141621428Y-61907200D01*
X141621428Y-61907200D02*
X141573809Y-61859580D01*
X140764285Y-61431009D02*
X141097618Y-61431009D01*
X141097618Y-61954819D02*
X141097618Y-60954819D01*
X141097618Y-60954819D02*
X140621428Y-60954819D01*
X135482857Y-52936580D02*
X135530476Y-52984200D01*
X135530476Y-52984200D02*
X135673333Y-53031819D01*
X135673333Y-53031819D02*
X135768571Y-53031819D01*
X135768571Y-53031819D02*
X135911428Y-52984200D01*
X135911428Y-52984200D02*
X136006666Y-52888961D01*
X136006666Y-52888961D02*
X136054285Y-52793723D01*
X136054285Y-52793723D02*
X136101904Y-52603247D01*
X136101904Y-52603247D02*
X136101904Y-52460390D01*
X136101904Y-52460390D02*
X136054285Y-52269914D01*
X136054285Y-52269914D02*
X136006666Y-52174676D01*
X136006666Y-52174676D02*
X135911428Y-52079438D01*
X135911428Y-52079438D02*
X135768571Y-52031819D01*
X135768571Y-52031819D02*
X135673333Y-52031819D01*
X135673333Y-52031819D02*
X135530476Y-52079438D01*
X135530476Y-52079438D02*
X135482857Y-52127057D01*
X135149523Y-52031819D02*
X134530476Y-52031819D01*
X134530476Y-52031819D02*
X134863809Y-52412771D01*
X134863809Y-52412771D02*
X134720952Y-52412771D01*
X134720952Y-52412771D02*
X134625714Y-52460390D01*
X134625714Y-52460390D02*
X134578095Y-52508009D01*
X134578095Y-52508009D02*
X134530476Y-52603247D01*
X134530476Y-52603247D02*
X134530476Y-52841342D01*
X134530476Y-52841342D02*
X134578095Y-52936580D01*
X134578095Y-52936580D02*
X134625714Y-52984200D01*
X134625714Y-52984200D02*
X134720952Y-53031819D01*
X134720952Y-53031819D02*
X135006666Y-53031819D01*
X135006666Y-53031819D02*
X135101904Y-52984200D01*
X135101904Y-52984200D02*
X135149523Y-52936580D01*
X133959047Y-52460390D02*
X134054285Y-52412771D01*
X134054285Y-52412771D02*
X134101904Y-52365152D01*
X134101904Y-52365152D02*
X134149523Y-52269914D01*
X134149523Y-52269914D02*
X134149523Y-52222295D01*
X134149523Y-52222295D02*
X134101904Y-52127057D01*
X134101904Y-52127057D02*
X134054285Y-52079438D01*
X134054285Y-52079438D02*
X133959047Y-52031819D01*
X133959047Y-52031819D02*
X133768571Y-52031819D01*
X133768571Y-52031819D02*
X133673333Y-52079438D01*
X133673333Y-52079438D02*
X133625714Y-52127057D01*
X133625714Y-52127057D02*
X133578095Y-52222295D01*
X133578095Y-52222295D02*
X133578095Y-52269914D01*
X133578095Y-52269914D02*
X133625714Y-52365152D01*
X133625714Y-52365152D02*
X133673333Y-52412771D01*
X133673333Y-52412771D02*
X133768571Y-52460390D01*
X133768571Y-52460390D02*
X133959047Y-52460390D01*
X133959047Y-52460390D02*
X134054285Y-52508009D01*
X134054285Y-52508009D02*
X134101904Y-52555628D01*
X134101904Y-52555628D02*
X134149523Y-52650866D01*
X134149523Y-52650866D02*
X134149523Y-52841342D01*
X134149523Y-52841342D02*
X134101904Y-52936580D01*
X134101904Y-52936580D02*
X134054285Y-52984200D01*
X134054285Y-52984200D02*
X133959047Y-53031819D01*
X133959047Y-53031819D02*
X133768571Y-53031819D01*
X133768571Y-53031819D02*
X133673333Y-52984200D01*
X133673333Y-52984200D02*
X133625714Y-52936580D01*
X133625714Y-52936580D02*
X133578095Y-52841342D01*
X133578095Y-52841342D02*
X133578095Y-52650866D01*
X133578095Y-52650866D02*
X133625714Y-52555628D01*
X133625714Y-52555628D02*
X133673333Y-52508009D01*
X133673333Y-52508009D02*
X133768571Y-52460390D01*
X135911237Y-50761819D02*
X135815999Y-50761819D01*
X135815999Y-50761819D02*
X135720761Y-50809438D01*
X135720761Y-50809438D02*
X135673142Y-50857057D01*
X135673142Y-50857057D02*
X135625523Y-50952295D01*
X135625523Y-50952295D02*
X135577904Y-51142771D01*
X135577904Y-51142771D02*
X135577904Y-51380866D01*
X135577904Y-51380866D02*
X135625523Y-51571342D01*
X135625523Y-51571342D02*
X135673142Y-51666580D01*
X135673142Y-51666580D02*
X135720761Y-51714200D01*
X135720761Y-51714200D02*
X135815999Y-51761819D01*
X135815999Y-51761819D02*
X135911237Y-51761819D01*
X135911237Y-51761819D02*
X136006475Y-51714200D01*
X136006475Y-51714200D02*
X136054094Y-51666580D01*
X136054094Y-51666580D02*
X136101713Y-51571342D01*
X136101713Y-51571342D02*
X136149332Y-51380866D01*
X136149332Y-51380866D02*
X136149332Y-51142771D01*
X136149332Y-51142771D02*
X136101713Y-50952295D01*
X136101713Y-50952295D02*
X136054094Y-50857057D01*
X136054094Y-50857057D02*
X136006475Y-50809438D01*
X136006475Y-50809438D02*
X135911237Y-50761819D01*
X135149332Y-51666580D02*
X135101713Y-51714200D01*
X135101713Y-51714200D02*
X135149332Y-51761819D01*
X135149332Y-51761819D02*
X135196951Y-51714200D01*
X135196951Y-51714200D02*
X135149332Y-51666580D01*
X135149332Y-51666580D02*
X135149332Y-51761819D01*
X134482666Y-50761819D02*
X134387428Y-50761819D01*
X134387428Y-50761819D02*
X134292190Y-50809438D01*
X134292190Y-50809438D02*
X134244571Y-50857057D01*
X134244571Y-50857057D02*
X134196952Y-50952295D01*
X134196952Y-50952295D02*
X134149333Y-51142771D01*
X134149333Y-51142771D02*
X134149333Y-51380866D01*
X134149333Y-51380866D02*
X134196952Y-51571342D01*
X134196952Y-51571342D02*
X134244571Y-51666580D01*
X134244571Y-51666580D02*
X134292190Y-51714200D01*
X134292190Y-51714200D02*
X134387428Y-51761819D01*
X134387428Y-51761819D02*
X134482666Y-51761819D01*
X134482666Y-51761819D02*
X134577904Y-51714200D01*
X134577904Y-51714200D02*
X134625523Y-51666580D01*
X134625523Y-51666580D02*
X134673142Y-51571342D01*
X134673142Y-51571342D02*
X134720761Y-51380866D01*
X134720761Y-51380866D02*
X134720761Y-51142771D01*
X134720761Y-51142771D02*
X134673142Y-50952295D01*
X134673142Y-50952295D02*
X134625523Y-50857057D01*
X134625523Y-50857057D02*
X134577904Y-50809438D01*
X134577904Y-50809438D02*
X134482666Y-50761819D01*
X133292190Y-51095152D02*
X133292190Y-51761819D01*
X133530285Y-50714200D02*
X133768380Y-51428485D01*
X133768380Y-51428485D02*
X133149333Y-51428485D01*
X132863618Y-50761819D02*
X132196952Y-50761819D01*
X132196952Y-50761819D02*
X132625523Y-51761819D01*
X131387428Y-51095152D02*
X131387428Y-51761819D01*
X131815999Y-51095152D02*
X131815999Y-51618961D01*
X131815999Y-51618961D02*
X131768380Y-51714200D01*
X131768380Y-51714200D02*
X131673142Y-51761819D01*
X131673142Y-51761819D02*
X131530285Y-51761819D01*
X131530285Y-51761819D02*
X131435047Y-51714200D01*
X131435047Y-51714200D02*
X131387428Y-51666580D01*
X130577904Y-51238009D02*
X130911237Y-51238009D01*
X130911237Y-51761819D02*
X130911237Y-50761819D01*
X130911237Y-50761819D02*
X130435047Y-50761819D01*
X147674857Y-50325580D02*
X147722476Y-50373200D01*
X147722476Y-50373200D02*
X147865333Y-50420819D01*
X147865333Y-50420819D02*
X147960571Y-50420819D01*
X147960571Y-50420819D02*
X148103428Y-50373200D01*
X148103428Y-50373200D02*
X148198666Y-50277961D01*
X148198666Y-50277961D02*
X148246285Y-50182723D01*
X148246285Y-50182723D02*
X148293904Y-49992247D01*
X148293904Y-49992247D02*
X148293904Y-49849390D01*
X148293904Y-49849390D02*
X148246285Y-49658914D01*
X148246285Y-49658914D02*
X148198666Y-49563676D01*
X148198666Y-49563676D02*
X148103428Y-49468438D01*
X148103428Y-49468438D02*
X147960571Y-49420819D01*
X147960571Y-49420819D02*
X147865333Y-49420819D01*
X147865333Y-49420819D02*
X147722476Y-49468438D01*
X147722476Y-49468438D02*
X147674857Y-49516057D01*
X147341523Y-49420819D02*
X146722476Y-49420819D01*
X146722476Y-49420819D02*
X147055809Y-49801771D01*
X147055809Y-49801771D02*
X146912952Y-49801771D01*
X146912952Y-49801771D02*
X146817714Y-49849390D01*
X146817714Y-49849390D02*
X146770095Y-49897009D01*
X146770095Y-49897009D02*
X146722476Y-49992247D01*
X146722476Y-49992247D02*
X146722476Y-50230342D01*
X146722476Y-50230342D02*
X146770095Y-50325580D01*
X146770095Y-50325580D02*
X146817714Y-50373200D01*
X146817714Y-50373200D02*
X146912952Y-50420819D01*
X146912952Y-50420819D02*
X147198666Y-50420819D01*
X147198666Y-50420819D02*
X147293904Y-50373200D01*
X147293904Y-50373200D02*
X147341523Y-50325580D01*
X145770095Y-50420819D02*
X146341523Y-50420819D01*
X146055809Y-50420819D02*
X146055809Y-49420819D01*
X146055809Y-49420819D02*
X146151047Y-49563676D01*
X146151047Y-49563676D02*
X146246285Y-49658914D01*
X146246285Y-49658914D02*
X146341523Y-49706533D01*
X148547856Y-53307819D02*
X148452618Y-53307819D01*
X148452618Y-53307819D02*
X148357380Y-53355438D01*
X148357380Y-53355438D02*
X148309761Y-53403057D01*
X148309761Y-53403057D02*
X148262142Y-53498295D01*
X148262142Y-53498295D02*
X148214523Y-53688771D01*
X148214523Y-53688771D02*
X148214523Y-53926866D01*
X148214523Y-53926866D02*
X148262142Y-54117342D01*
X148262142Y-54117342D02*
X148309761Y-54212580D01*
X148309761Y-54212580D02*
X148357380Y-54260200D01*
X148357380Y-54260200D02*
X148452618Y-54307819D01*
X148452618Y-54307819D02*
X148547856Y-54307819D01*
X148547856Y-54307819D02*
X148643094Y-54260200D01*
X148643094Y-54260200D02*
X148690713Y-54212580D01*
X148690713Y-54212580D02*
X148738332Y-54117342D01*
X148738332Y-54117342D02*
X148785951Y-53926866D01*
X148785951Y-53926866D02*
X148785951Y-53688771D01*
X148785951Y-53688771D02*
X148738332Y-53498295D01*
X148738332Y-53498295D02*
X148690713Y-53403057D01*
X148690713Y-53403057D02*
X148643094Y-53355438D01*
X148643094Y-53355438D02*
X148547856Y-53307819D01*
X147785951Y-54212580D02*
X147738332Y-54260200D01*
X147738332Y-54260200D02*
X147785951Y-54307819D01*
X147785951Y-54307819D02*
X147833570Y-54260200D01*
X147833570Y-54260200D02*
X147785951Y-54212580D01*
X147785951Y-54212580D02*
X147785951Y-54307819D01*
X146785952Y-54307819D02*
X147357380Y-54307819D01*
X147071666Y-54307819D02*
X147071666Y-53307819D01*
X147071666Y-53307819D02*
X147166904Y-53450676D01*
X147166904Y-53450676D02*
X147262142Y-53545914D01*
X147262142Y-53545914D02*
X147357380Y-53593533D01*
X145928809Y-53641152D02*
X145928809Y-54307819D01*
X146357380Y-53641152D02*
X146357380Y-54164961D01*
X146357380Y-54164961D02*
X146309761Y-54260200D01*
X146309761Y-54260200D02*
X146214523Y-54307819D01*
X146214523Y-54307819D02*
X146071666Y-54307819D01*
X146071666Y-54307819D02*
X145976428Y-54260200D01*
X145976428Y-54260200D02*
X145928809Y-54212580D01*
X145119285Y-53784009D02*
X145452618Y-53784009D01*
X145452618Y-54307819D02*
X145452618Y-53307819D01*
X145452618Y-53307819D02*
X144976428Y-53307819D01*
D11*
X143482748Y-68178000D02*
X144905252Y-68178000D01*
X143482748Y-69998000D02*
X144905252Y-69998000D01*
X143044252Y-58541000D02*
X141621748Y-58541000D01*
X143044252Y-60361000D02*
X141621748Y-60361000D01*
X137938748Y-51540000D02*
X139361252Y-51540000D01*
X137938748Y-53360000D02*
X139361252Y-53360000D01*
X145465748Y-50906000D02*
X146888252Y-50906000D01*
X145465748Y-52726000D02*
X146888252Y-52726000D01*
M02*
