G04 #@! TF.GenerationSoftware,KiCad,Pcbnew,8.0.0*
G04 #@! TF.CreationDate,2024-03-05T13:06:20-05:00*
G04 #@! TF.ProjectId,qse2,71736532-2e6b-4696-9361-645f70636258,rev?*
G04 #@! TF.SameCoordinates,Original*
G04 #@! TF.FileFunction,Soldermask,Top*
G04 #@! TF.FilePolarity,Negative*
%FSLAX46Y46*%
G04 Gerber Fmt 4.6, Leading zero omitted, Abs format (unit mm)*
G04 Created by KiCad (PCBNEW 8.0.0) date 2024-03-05 13:06:20*
%MOMM*%
%LPD*%
G01*
G04 APERTURE LIST*
G04 Aperture macros list*
%AMRoundRect*
0 Rectangle with rounded corners*
0 $1 Rounding radius*
0 $2 $3 $4 $5 $6 $7 $8 $9 X,Y pos of 4 corners*
0 Add a 4 corners polygon primitive as box body*
4,1,4,$2,$3,$4,$5,$6,$7,$8,$9,$2,$3,0*
0 Add four circle primitives for the rounded corners*
1,1,$1+$1,$2,$3*
1,1,$1+$1,$4,$5*
1,1,$1+$1,$6,$7*
1,1,$1+$1,$8,$9*
0 Add four rect primitives between the rounded corners*
20,1,$1+$1,$2,$3,$4,$5,0*
20,1,$1+$1,$4,$5,$6,$7,0*
20,1,$1+$1,$6,$7,$8,$9,0*
20,1,$1+$1,$8,$9,$2,$3,0*%
G04 Aperture macros list end*
%ADD10RoundRect,0.250000X0.312500X0.625000X-0.312500X0.625000X-0.312500X-0.625000X0.312500X-0.625000X0*%
%ADD11RoundRect,0.250000X-0.325000X-0.650000X0.325000X-0.650000X0.325000X0.650000X-0.325000X0.650000X0*%
%ADD12RoundRect,0.250000X-0.312500X-0.625000X0.312500X-0.625000X0.312500X0.625000X-0.312500X0.625000X0*%
%ADD13R,0.558800X1.981200*%
%ADD14RoundRect,0.150000X0.512500X0.150000X-0.512500X0.150000X-0.512500X-0.150000X0.512500X-0.150000X0*%
%ADD15RoundRect,0.250000X-0.650000X0.325000X-0.650000X-0.325000X0.650000X-0.325000X0.650000X0.325000X0*%
%ADD16RoundRect,0.250000X-0.625000X0.312500X-0.625000X-0.312500X0.625000X-0.312500X0.625000X0.312500X0*%
%ADD17RoundRect,0.250000X0.325000X0.650000X-0.325000X0.650000X-0.325000X-0.650000X0.325000X-0.650000X0*%
%ADD18RoundRect,0.250000X0.650000X-0.325000X0.650000X0.325000X-0.650000X0.325000X-0.650000X-0.325000X0*%
%ADD19RoundRect,0.100000X-0.100000X0.637500X-0.100000X-0.637500X0.100000X-0.637500X0.100000X0.637500X0*%
%ADD20C,2.600000*%
%ADD21C,2.500000*%
%ADD22R,0.508000X1.028700*%
%ADD23RoundRect,0.100000X0.100000X-0.637500X0.100000X0.637500X-0.100000X0.637500X-0.100000X-0.637500X0*%
%ADD24R,1.749999X0.900001*%
%ADD25R,1.749999X3.200001*%
%ADD26R,2.540000X1.650000*%
%ADD27RoundRect,0.250000X0.625000X-0.312500X0.625000X0.312500X-0.625000X0.312500X-0.625000X-0.312500X0*%
%ADD28C,1.700000*%
%ADD29R,2.200000X2.800000*%
%ADD30R,2.800000X2.800000*%
%ADD31R,2.600000X2.800000*%
%ADD32C,1.000000*%
%ADD33R,0.889000X0.812800*%
%ADD34RoundRect,0.150000X-0.150000X0.512500X-0.150000X-0.512500X0.150000X-0.512500X0.150000X0.512500X0*%
%ADD35C,2.100000*%
%ADD36RoundRect,0.250000X-0.600000X-0.600000X0.600000X-0.600000X0.600000X0.600000X-0.600000X0.600000X0*%
G04 APERTURE END LIST*
D10*
X155975000Y-68150000D03*
X153050000Y-68150000D03*
X170875500Y-89651000D03*
X167950500Y-89651000D03*
D11*
X176640500Y-77978000D03*
X179590500Y-77978000D03*
D10*
X174752000Y-61214000D03*
X171827000Y-61214000D03*
D12*
X113350000Y-67600000D03*
X116275000Y-67600000D03*
D13*
X169145500Y-78066000D03*
X167875500Y-78066000D03*
X166605500Y-78066000D03*
X165335500Y-78066000D03*
X165335500Y-82993600D03*
X166605500Y-82993600D03*
X167875500Y-82993600D03*
X169145500Y-82993600D03*
D14*
X142883000Y-67601000D03*
X142883000Y-66651000D03*
X142883000Y-65701000D03*
X140608000Y-65701000D03*
X140608000Y-67601000D03*
D10*
X176530000Y-71882000D03*
X173605000Y-71882000D03*
D15*
X160800000Y-86050000D03*
X160800000Y-89000000D03*
D10*
X146012500Y-75350000D03*
X143087500Y-75350000D03*
D16*
X180225500Y-86096000D03*
X180225500Y-89021000D03*
D10*
X154462500Y-74700000D03*
X151537500Y-74700000D03*
D17*
X170893000Y-67310000D03*
X167943000Y-67310000D03*
D15*
X176915500Y-66341000D03*
X176915500Y-69291000D03*
D10*
X121900000Y-51050000D03*
X118975000Y-51050000D03*
D18*
X164250000Y-93825000D03*
X164250000Y-90875000D03*
D15*
X176985500Y-86086000D03*
X176985500Y-89036000D03*
X183347900Y-77800000D03*
X183347900Y-80750000D03*
D11*
X133702000Y-69342000D03*
X136652000Y-69342000D03*
D19*
X141108000Y-56613500D03*
X140458000Y-56613500D03*
X139808000Y-56613500D03*
X139158000Y-56613500D03*
X138508000Y-56613500D03*
X137858000Y-56613500D03*
X137208000Y-56613500D03*
X136558000Y-56613500D03*
X136558000Y-62338500D03*
X137208000Y-62338500D03*
X137858000Y-62338500D03*
X138508000Y-62338500D03*
X139158000Y-62338500D03*
X139808000Y-62338500D03*
X140458000Y-62338500D03*
X141108000Y-62338500D03*
D10*
X179578000Y-80766000D03*
X176653000Y-80766000D03*
D20*
X121820000Y-42672000D03*
X121820000Y-47752000D03*
X126900000Y-42672000D03*
X126900000Y-47752000D03*
D21*
X124460000Y-45137000D03*
D13*
X169405500Y-58248400D03*
X168135500Y-58248400D03*
X166865500Y-58248400D03*
X165595500Y-58248400D03*
X165595500Y-63176000D03*
X166865500Y-63176000D03*
X168135500Y-63176000D03*
X169405500Y-63176000D03*
D22*
X153300001Y-90100000D03*
X152350000Y-90100000D03*
X151399999Y-90100000D03*
X151399999Y-92779700D03*
X153300001Y-92779700D03*
D16*
X180325500Y-66373500D03*
X180325500Y-69298500D03*
D23*
X143933000Y-62308500D03*
X144583000Y-62308500D03*
X145233000Y-62308500D03*
X145883000Y-62308500D03*
X146533000Y-62308500D03*
X147183000Y-62308500D03*
X147833000Y-62308500D03*
X147833000Y-56583500D03*
X147183000Y-56583500D03*
X146533000Y-56583500D03*
X145883000Y-56583500D03*
X145233000Y-56583500D03*
X144583000Y-56583500D03*
X143933000Y-56583500D03*
D11*
X137209000Y-52451000D03*
X140159000Y-52451000D03*
D10*
X174752000Y-58166000D03*
X171827000Y-58166000D03*
D24*
X116275000Y-71625000D03*
X116275000Y-73925000D03*
X116275000Y-76225000D03*
D25*
X122525000Y-73925000D03*
D11*
X103175000Y-55400000D03*
X106125000Y-55400000D03*
D20*
X148590000Y-42672000D03*
X148590000Y-47752000D03*
X153670000Y-42672000D03*
X153670000Y-47752000D03*
D21*
X151230000Y-45137000D03*
D12*
X134277500Y-89740000D03*
X137202500Y-89740000D03*
D17*
X170192500Y-72136000D03*
X167242500Y-72136000D03*
D26*
X127710000Y-56800000D03*
X127710000Y-59340000D03*
X127710000Y-61880000D03*
X132790000Y-61880000D03*
X132790000Y-59340000D03*
X132790000Y-56800000D03*
D27*
X173925500Y-89018500D03*
X173925500Y-86093500D03*
D11*
X133653000Y-66421000D03*
X136603000Y-66421000D03*
D28*
X195051500Y-53450000D03*
X188051500Y-53450000D03*
D29*
X196151500Y-49750000D03*
D30*
X186751500Y-49750000D03*
D29*
X194151500Y-57150000D03*
D31*
X182751500Y-54200000D03*
D15*
X154559000Y-53643000D03*
X154559000Y-56593000D03*
D10*
X174312500Y-78000000D03*
X171387500Y-78000000D03*
D11*
X165775500Y-74793500D03*
X168725500Y-74793500D03*
D10*
X124475000Y-56825000D03*
X121550000Y-56825000D03*
D27*
X146970000Y-86845000D03*
X146970000Y-83920000D03*
D32*
X149633000Y-58526000D03*
D33*
X157700000Y-88099998D03*
X157700000Y-86050000D03*
X155810001Y-87074999D03*
D17*
X153300000Y-87050000D03*
X150350000Y-87050000D03*
D27*
X173855500Y-69248500D03*
X173855500Y-66323500D03*
D17*
X185449000Y-61214000D03*
X182499000Y-61214000D03*
D11*
X166020500Y-55196000D03*
X168970500Y-55196000D03*
D10*
X150052500Y-65913000D03*
X147127500Y-65913000D03*
X174138000Y-80776000D03*
X171213000Y-80776000D03*
D17*
X113975000Y-62500000D03*
X111025000Y-62500000D03*
X145747000Y-52197000D03*
X142797000Y-52197000D03*
D11*
X164551900Y-51866800D03*
X167501900Y-51866800D03*
D17*
X170920500Y-86741000D03*
X167970500Y-86741000D03*
D34*
X152108000Y-54326000D03*
X151158000Y-54326000D03*
X150208000Y-54326000D03*
X150208000Y-56601000D03*
X152108000Y-56601000D03*
D32*
X145303000Y-68386000D03*
D11*
X177099500Y-58166000D03*
X180049500Y-58166000D03*
D15*
X156200000Y-92800000D03*
X156200000Y-95750000D03*
D18*
X116275000Y-81800000D03*
X116275000Y-78850000D03*
D35*
X104597200Y-89752800D03*
X104597200Y-92252800D03*
D27*
X146975000Y-93025000D03*
X146975000Y-90100000D03*
X161000000Y-95700000D03*
X161000000Y-92775000D03*
D10*
X180024500Y-61214000D03*
X177099500Y-61214000D03*
X155250000Y-71150000D03*
X152325000Y-71150000D03*
D27*
X124475000Y-53975000D03*
X124475000Y-51050000D03*
D18*
X119275000Y-67575000D03*
X119275000Y-64625000D03*
D36*
X103210000Y-62500000D03*
D28*
X105750000Y-62500000D03*
X103210000Y-65040000D03*
X105750000Y-65040000D03*
X103210000Y-67580000D03*
X105750000Y-67580000D03*
X103210000Y-70120000D03*
X105750000Y-70120000D03*
X103210000Y-72660000D03*
X105750000Y-72660000D03*
X103210000Y-75200000D03*
X105750000Y-75200000D03*
X103210000Y-77740000D03*
X105750000Y-77740000D03*
X103210000Y-80280000D03*
X105750000Y-80280000D03*
M02*
