G04 #@! TF.GenerationSoftware,KiCad,Pcbnew,8.0.3*
G04 #@! TF.CreationDate,2024-06-30T19:46:58-04:00*
G04 #@! TF.ProjectId,qse2,71736532-2e6b-4696-9361-645f70636258,rev?*
G04 #@! TF.SameCoordinates,Original*
G04 #@! TF.FileFunction,Legend,Bot*
G04 #@! TF.FilePolarity,Positive*
%FSLAX46Y46*%
G04 Gerber Fmt 4.6, Leading zero omitted, Abs format (unit mm)*
G04 Created by KiCad (PCBNEW 8.0.3) date 2024-06-30 19:46:58*
%MOMM*%
%LPD*%
G01*
G04 APERTURE LIST*
%ADD10C,0.150000*%
%ADD11C,0.120000*%
G04 APERTURE END LIST*
D10*
X144366666Y-67559580D02*
X144414285Y-67607200D01*
X144414285Y-67607200D02*
X144557142Y-67654819D01*
X144557142Y-67654819D02*
X144652380Y-67654819D01*
X144652380Y-67654819D02*
X144795237Y-67607200D01*
X144795237Y-67607200D02*
X144890475Y-67511961D01*
X144890475Y-67511961D02*
X144938094Y-67416723D01*
X144938094Y-67416723D02*
X144985713Y-67226247D01*
X144985713Y-67226247D02*
X144985713Y-67083390D01*
X144985713Y-67083390D02*
X144938094Y-66892914D01*
X144938094Y-66892914D02*
X144890475Y-66797676D01*
X144890475Y-66797676D02*
X144795237Y-66702438D01*
X144795237Y-66702438D02*
X144652380Y-66654819D01*
X144652380Y-66654819D02*
X144557142Y-66654819D01*
X144557142Y-66654819D02*
X144414285Y-66702438D01*
X144414285Y-66702438D02*
X144366666Y-66750057D01*
X143414285Y-67654819D02*
X143985713Y-67654819D01*
X143699999Y-67654819D02*
X143699999Y-66654819D01*
X143699999Y-66654819D02*
X143795237Y-66797676D01*
X143795237Y-66797676D02*
X143890475Y-66892914D01*
X143890475Y-66892914D02*
X143985713Y-66940533D01*
X145836856Y-70392819D02*
X145741618Y-70392819D01*
X145741618Y-70392819D02*
X145646380Y-70440438D01*
X145646380Y-70440438D02*
X145598761Y-70488057D01*
X145598761Y-70488057D02*
X145551142Y-70583295D01*
X145551142Y-70583295D02*
X145503523Y-70773771D01*
X145503523Y-70773771D02*
X145503523Y-71011866D01*
X145503523Y-71011866D02*
X145551142Y-71202342D01*
X145551142Y-71202342D02*
X145598761Y-71297580D01*
X145598761Y-71297580D02*
X145646380Y-71345200D01*
X145646380Y-71345200D02*
X145741618Y-71392819D01*
X145741618Y-71392819D02*
X145836856Y-71392819D01*
X145836856Y-71392819D02*
X145932094Y-71345200D01*
X145932094Y-71345200D02*
X145979713Y-71297580D01*
X145979713Y-71297580D02*
X146027332Y-71202342D01*
X146027332Y-71202342D02*
X146074951Y-71011866D01*
X146074951Y-71011866D02*
X146074951Y-70773771D01*
X146074951Y-70773771D02*
X146027332Y-70583295D01*
X146027332Y-70583295D02*
X145979713Y-70488057D01*
X145979713Y-70488057D02*
X145932094Y-70440438D01*
X145932094Y-70440438D02*
X145836856Y-70392819D01*
X145074951Y-71297580D02*
X145027332Y-71345200D01*
X145027332Y-71345200D02*
X145074951Y-71392819D01*
X145074951Y-71392819D02*
X145122570Y-71345200D01*
X145122570Y-71345200D02*
X145074951Y-71297580D01*
X145074951Y-71297580D02*
X145074951Y-71392819D01*
X144074952Y-71392819D02*
X144646380Y-71392819D01*
X144360666Y-71392819D02*
X144360666Y-70392819D01*
X144360666Y-70392819D02*
X144455904Y-70535676D01*
X144455904Y-70535676D02*
X144551142Y-70630914D01*
X144551142Y-70630914D02*
X144646380Y-70678533D01*
X143217809Y-70726152D02*
X143217809Y-71392819D01*
X143646380Y-70726152D02*
X143646380Y-71249961D01*
X143646380Y-71249961D02*
X143598761Y-71345200D01*
X143598761Y-71345200D02*
X143503523Y-71392819D01*
X143503523Y-71392819D02*
X143360666Y-71392819D01*
X143360666Y-71392819D02*
X143265428Y-71345200D01*
X143265428Y-71345200D02*
X143217809Y-71297580D01*
X142408285Y-70869009D02*
X142741618Y-70869009D01*
X142741618Y-71392819D02*
X142741618Y-70392819D01*
X142741618Y-70392819D02*
X142265428Y-70392819D01*
X136841666Y-68309580D02*
X136889285Y-68357200D01*
X136889285Y-68357200D02*
X137032142Y-68404819D01*
X137032142Y-68404819D02*
X137127380Y-68404819D01*
X137127380Y-68404819D02*
X137270237Y-68357200D01*
X137270237Y-68357200D02*
X137365475Y-68261961D01*
X137365475Y-68261961D02*
X137413094Y-68166723D01*
X137413094Y-68166723D02*
X137460713Y-67976247D01*
X137460713Y-67976247D02*
X137460713Y-67833390D01*
X137460713Y-67833390D02*
X137413094Y-67642914D01*
X137413094Y-67642914D02*
X137365475Y-67547676D01*
X137365475Y-67547676D02*
X137270237Y-67452438D01*
X137270237Y-67452438D02*
X137127380Y-67404819D01*
X137127380Y-67404819D02*
X137032142Y-67404819D01*
X137032142Y-67404819D02*
X136889285Y-67452438D01*
X136889285Y-67452438D02*
X136841666Y-67500057D01*
X136365475Y-68404819D02*
X136174999Y-68404819D01*
X136174999Y-68404819D02*
X136079761Y-68357200D01*
X136079761Y-68357200D02*
X136032142Y-68309580D01*
X136032142Y-68309580D02*
X135936904Y-68166723D01*
X135936904Y-68166723D02*
X135889285Y-67976247D01*
X135889285Y-67976247D02*
X135889285Y-67595295D01*
X135889285Y-67595295D02*
X135936904Y-67500057D01*
X135936904Y-67500057D02*
X135984523Y-67452438D01*
X135984523Y-67452438D02*
X136079761Y-67404819D01*
X136079761Y-67404819D02*
X136270237Y-67404819D01*
X136270237Y-67404819D02*
X136365475Y-67452438D01*
X136365475Y-67452438D02*
X136413094Y-67500057D01*
X136413094Y-67500057D02*
X136460713Y-67595295D01*
X136460713Y-67595295D02*
X136460713Y-67833390D01*
X136460713Y-67833390D02*
X136413094Y-67928628D01*
X136413094Y-67928628D02*
X136365475Y-67976247D01*
X136365475Y-67976247D02*
X136270237Y-68023866D01*
X136270237Y-68023866D02*
X136079761Y-68023866D01*
X136079761Y-68023866D02*
X135984523Y-67976247D01*
X135984523Y-67976247D02*
X135936904Y-67928628D01*
X135936904Y-67928628D02*
X135889285Y-67833390D01*
X138317856Y-63704819D02*
X138222618Y-63704819D01*
X138222618Y-63704819D02*
X138127380Y-63752438D01*
X138127380Y-63752438D02*
X138079761Y-63800057D01*
X138079761Y-63800057D02*
X138032142Y-63895295D01*
X138032142Y-63895295D02*
X137984523Y-64085771D01*
X137984523Y-64085771D02*
X137984523Y-64323866D01*
X137984523Y-64323866D02*
X138032142Y-64514342D01*
X138032142Y-64514342D02*
X138079761Y-64609580D01*
X138079761Y-64609580D02*
X138127380Y-64657200D01*
X138127380Y-64657200D02*
X138222618Y-64704819D01*
X138222618Y-64704819D02*
X138317856Y-64704819D01*
X138317856Y-64704819D02*
X138413094Y-64657200D01*
X138413094Y-64657200D02*
X138460713Y-64609580D01*
X138460713Y-64609580D02*
X138508332Y-64514342D01*
X138508332Y-64514342D02*
X138555951Y-64323866D01*
X138555951Y-64323866D02*
X138555951Y-64085771D01*
X138555951Y-64085771D02*
X138508332Y-63895295D01*
X138508332Y-63895295D02*
X138460713Y-63800057D01*
X138460713Y-63800057D02*
X138413094Y-63752438D01*
X138413094Y-63752438D02*
X138317856Y-63704819D01*
X137555951Y-64609580D02*
X137508332Y-64657200D01*
X137508332Y-64657200D02*
X137555951Y-64704819D01*
X137555951Y-64704819D02*
X137603570Y-64657200D01*
X137603570Y-64657200D02*
X137555951Y-64609580D01*
X137555951Y-64609580D02*
X137555951Y-64704819D01*
X136555952Y-64704819D02*
X137127380Y-64704819D01*
X136841666Y-64704819D02*
X136841666Y-63704819D01*
X136841666Y-63704819D02*
X136936904Y-63847676D01*
X136936904Y-63847676D02*
X137032142Y-63942914D01*
X137032142Y-63942914D02*
X137127380Y-63990533D01*
X135698809Y-64038152D02*
X135698809Y-64704819D01*
X136127380Y-64038152D02*
X136127380Y-64561961D01*
X136127380Y-64561961D02*
X136079761Y-64657200D01*
X136079761Y-64657200D02*
X135984523Y-64704819D01*
X135984523Y-64704819D02*
X135841666Y-64704819D01*
X135841666Y-64704819D02*
X135746428Y-64657200D01*
X135746428Y-64657200D02*
X135698809Y-64609580D01*
X134889285Y-64181009D02*
X135222618Y-64181009D01*
X135222618Y-64704819D02*
X135222618Y-63704819D01*
X135222618Y-63704819D02*
X134746428Y-63704819D01*
X145875857Y-61635580D02*
X145923476Y-61683200D01*
X145923476Y-61683200D02*
X146066333Y-61730819D01*
X146066333Y-61730819D02*
X146161571Y-61730819D01*
X146161571Y-61730819D02*
X146304428Y-61683200D01*
X146304428Y-61683200D02*
X146399666Y-61587961D01*
X146399666Y-61587961D02*
X146447285Y-61492723D01*
X146447285Y-61492723D02*
X146494904Y-61302247D01*
X146494904Y-61302247D02*
X146494904Y-61159390D01*
X146494904Y-61159390D02*
X146447285Y-60968914D01*
X146447285Y-60968914D02*
X146399666Y-60873676D01*
X146399666Y-60873676D02*
X146304428Y-60778438D01*
X146304428Y-60778438D02*
X146161571Y-60730819D01*
X146161571Y-60730819D02*
X146066333Y-60730819D01*
X146066333Y-60730819D02*
X145923476Y-60778438D01*
X145923476Y-60778438D02*
X145875857Y-60826057D01*
X144923476Y-61730819D02*
X145494904Y-61730819D01*
X145209190Y-61730819D02*
X145209190Y-60730819D01*
X145209190Y-60730819D02*
X145304428Y-60873676D01*
X145304428Y-60873676D02*
X145399666Y-60968914D01*
X145399666Y-60968914D02*
X145494904Y-61016533D01*
X144304428Y-60730819D02*
X144209190Y-60730819D01*
X144209190Y-60730819D02*
X144113952Y-60778438D01*
X144113952Y-60778438D02*
X144066333Y-60826057D01*
X144066333Y-60826057D02*
X144018714Y-60921295D01*
X144018714Y-60921295D02*
X143971095Y-61111771D01*
X143971095Y-61111771D02*
X143971095Y-61349866D01*
X143971095Y-61349866D02*
X144018714Y-61540342D01*
X144018714Y-61540342D02*
X144066333Y-61635580D01*
X144066333Y-61635580D02*
X144113952Y-61683200D01*
X144113952Y-61683200D02*
X144209190Y-61730819D01*
X144209190Y-61730819D02*
X144304428Y-61730819D01*
X144304428Y-61730819D02*
X144399666Y-61683200D01*
X144399666Y-61683200D02*
X144447285Y-61635580D01*
X144447285Y-61635580D02*
X144494904Y-61540342D01*
X144494904Y-61540342D02*
X144542523Y-61349866D01*
X144542523Y-61349866D02*
X144542523Y-61111771D01*
X144542523Y-61111771D02*
X144494904Y-60921295D01*
X144494904Y-60921295D02*
X144447285Y-60826057D01*
X144447285Y-60826057D02*
X144399666Y-60778438D01*
X144399666Y-60778438D02*
X144304428Y-60730819D01*
X146675856Y-56880819D02*
X146580618Y-56880819D01*
X146580618Y-56880819D02*
X146485380Y-56928438D01*
X146485380Y-56928438D02*
X146437761Y-56976057D01*
X146437761Y-56976057D02*
X146390142Y-57071295D01*
X146390142Y-57071295D02*
X146342523Y-57261771D01*
X146342523Y-57261771D02*
X146342523Y-57499866D01*
X146342523Y-57499866D02*
X146390142Y-57690342D01*
X146390142Y-57690342D02*
X146437761Y-57785580D01*
X146437761Y-57785580D02*
X146485380Y-57833200D01*
X146485380Y-57833200D02*
X146580618Y-57880819D01*
X146580618Y-57880819D02*
X146675856Y-57880819D01*
X146675856Y-57880819D02*
X146771094Y-57833200D01*
X146771094Y-57833200D02*
X146818713Y-57785580D01*
X146818713Y-57785580D02*
X146866332Y-57690342D01*
X146866332Y-57690342D02*
X146913951Y-57499866D01*
X146913951Y-57499866D02*
X146913951Y-57261771D01*
X146913951Y-57261771D02*
X146866332Y-57071295D01*
X146866332Y-57071295D02*
X146818713Y-56976057D01*
X146818713Y-56976057D02*
X146771094Y-56928438D01*
X146771094Y-56928438D02*
X146675856Y-56880819D01*
X145913951Y-57785580D02*
X145866332Y-57833200D01*
X145866332Y-57833200D02*
X145913951Y-57880819D01*
X145913951Y-57880819D02*
X145961570Y-57833200D01*
X145961570Y-57833200D02*
X145913951Y-57785580D01*
X145913951Y-57785580D02*
X145913951Y-57880819D01*
X144913952Y-57880819D02*
X145485380Y-57880819D01*
X145199666Y-57880819D02*
X145199666Y-56880819D01*
X145199666Y-56880819D02*
X145294904Y-57023676D01*
X145294904Y-57023676D02*
X145390142Y-57118914D01*
X145390142Y-57118914D02*
X145485380Y-57166533D01*
X144056809Y-57214152D02*
X144056809Y-57880819D01*
X144485380Y-57214152D02*
X144485380Y-57737961D01*
X144485380Y-57737961D02*
X144437761Y-57833200D01*
X144437761Y-57833200D02*
X144342523Y-57880819D01*
X144342523Y-57880819D02*
X144199666Y-57880819D01*
X144199666Y-57880819D02*
X144104428Y-57833200D01*
X144104428Y-57833200D02*
X144056809Y-57785580D01*
X143247285Y-57357009D02*
X143580618Y-57357009D01*
X143580618Y-57880819D02*
X143580618Y-56880819D01*
X143580618Y-56880819D02*
X143104428Y-56880819D01*
X136192857Y-54409580D02*
X136240476Y-54457200D01*
X136240476Y-54457200D02*
X136383333Y-54504819D01*
X136383333Y-54504819D02*
X136478571Y-54504819D01*
X136478571Y-54504819D02*
X136621428Y-54457200D01*
X136621428Y-54457200D02*
X136716666Y-54361961D01*
X136716666Y-54361961D02*
X136764285Y-54266723D01*
X136764285Y-54266723D02*
X136811904Y-54076247D01*
X136811904Y-54076247D02*
X136811904Y-53933390D01*
X136811904Y-53933390D02*
X136764285Y-53742914D01*
X136764285Y-53742914D02*
X136716666Y-53647676D01*
X136716666Y-53647676D02*
X136621428Y-53552438D01*
X136621428Y-53552438D02*
X136478571Y-53504819D01*
X136478571Y-53504819D02*
X136383333Y-53504819D01*
X136383333Y-53504819D02*
X136240476Y-53552438D01*
X136240476Y-53552438D02*
X136192857Y-53600057D01*
X135859523Y-53504819D02*
X135240476Y-53504819D01*
X135240476Y-53504819D02*
X135573809Y-53885771D01*
X135573809Y-53885771D02*
X135430952Y-53885771D01*
X135430952Y-53885771D02*
X135335714Y-53933390D01*
X135335714Y-53933390D02*
X135288095Y-53981009D01*
X135288095Y-53981009D02*
X135240476Y-54076247D01*
X135240476Y-54076247D02*
X135240476Y-54314342D01*
X135240476Y-54314342D02*
X135288095Y-54409580D01*
X135288095Y-54409580D02*
X135335714Y-54457200D01*
X135335714Y-54457200D02*
X135430952Y-54504819D01*
X135430952Y-54504819D02*
X135716666Y-54504819D01*
X135716666Y-54504819D02*
X135811904Y-54457200D01*
X135811904Y-54457200D02*
X135859523Y-54409580D01*
X134669047Y-53933390D02*
X134764285Y-53885771D01*
X134764285Y-53885771D02*
X134811904Y-53838152D01*
X134811904Y-53838152D02*
X134859523Y-53742914D01*
X134859523Y-53742914D02*
X134859523Y-53695295D01*
X134859523Y-53695295D02*
X134811904Y-53600057D01*
X134811904Y-53600057D02*
X134764285Y-53552438D01*
X134764285Y-53552438D02*
X134669047Y-53504819D01*
X134669047Y-53504819D02*
X134478571Y-53504819D01*
X134478571Y-53504819D02*
X134383333Y-53552438D01*
X134383333Y-53552438D02*
X134335714Y-53600057D01*
X134335714Y-53600057D02*
X134288095Y-53695295D01*
X134288095Y-53695295D02*
X134288095Y-53742914D01*
X134288095Y-53742914D02*
X134335714Y-53838152D01*
X134335714Y-53838152D02*
X134383333Y-53885771D01*
X134383333Y-53885771D02*
X134478571Y-53933390D01*
X134478571Y-53933390D02*
X134669047Y-53933390D01*
X134669047Y-53933390D02*
X134764285Y-53981009D01*
X134764285Y-53981009D02*
X134811904Y-54028628D01*
X134811904Y-54028628D02*
X134859523Y-54123866D01*
X134859523Y-54123866D02*
X134859523Y-54314342D01*
X134859523Y-54314342D02*
X134811904Y-54409580D01*
X134811904Y-54409580D02*
X134764285Y-54457200D01*
X134764285Y-54457200D02*
X134669047Y-54504819D01*
X134669047Y-54504819D02*
X134478571Y-54504819D01*
X134478571Y-54504819D02*
X134383333Y-54457200D01*
X134383333Y-54457200D02*
X134335714Y-54409580D01*
X134335714Y-54409580D02*
X134288095Y-54314342D01*
X134288095Y-54314342D02*
X134288095Y-54123866D01*
X134288095Y-54123866D02*
X134335714Y-54028628D01*
X134335714Y-54028628D02*
X134383333Y-53981009D01*
X134383333Y-53981009D02*
X134478571Y-53933390D01*
X133445237Y-53504819D02*
X133349999Y-53504819D01*
X133349999Y-53504819D02*
X133254761Y-53552438D01*
X133254761Y-53552438D02*
X133207142Y-53600057D01*
X133207142Y-53600057D02*
X133159523Y-53695295D01*
X133159523Y-53695295D02*
X133111904Y-53885771D01*
X133111904Y-53885771D02*
X133111904Y-54123866D01*
X133111904Y-54123866D02*
X133159523Y-54314342D01*
X133159523Y-54314342D02*
X133207142Y-54409580D01*
X133207142Y-54409580D02*
X133254761Y-54457200D01*
X133254761Y-54457200D02*
X133349999Y-54504819D01*
X133349999Y-54504819D02*
X133445237Y-54504819D01*
X133445237Y-54504819D02*
X133540475Y-54457200D01*
X133540475Y-54457200D02*
X133588094Y-54409580D01*
X133588094Y-54409580D02*
X133635713Y-54314342D01*
X133635713Y-54314342D02*
X133683332Y-54123866D01*
X133683332Y-54123866D02*
X133683332Y-53885771D01*
X133683332Y-53885771D02*
X133635713Y-53695295D01*
X133635713Y-53695295D02*
X133588094Y-53600057D01*
X133588094Y-53600057D02*
X133540475Y-53552438D01*
X133540475Y-53552438D02*
X133445237Y-53504819D01*
X132683332Y-54409580D02*
X132635713Y-54457200D01*
X132635713Y-54457200D02*
X132683332Y-54504819D01*
X132683332Y-54504819D02*
X132730951Y-54457200D01*
X132730951Y-54457200D02*
X132683332Y-54409580D01*
X132683332Y-54409580D02*
X132683332Y-54504819D01*
X132016666Y-53504819D02*
X131921428Y-53504819D01*
X131921428Y-53504819D02*
X131826190Y-53552438D01*
X131826190Y-53552438D02*
X131778571Y-53600057D01*
X131778571Y-53600057D02*
X131730952Y-53695295D01*
X131730952Y-53695295D02*
X131683333Y-53885771D01*
X131683333Y-53885771D02*
X131683333Y-54123866D01*
X131683333Y-54123866D02*
X131730952Y-54314342D01*
X131730952Y-54314342D02*
X131778571Y-54409580D01*
X131778571Y-54409580D02*
X131826190Y-54457200D01*
X131826190Y-54457200D02*
X131921428Y-54504819D01*
X131921428Y-54504819D02*
X132016666Y-54504819D01*
X132016666Y-54504819D02*
X132111904Y-54457200D01*
X132111904Y-54457200D02*
X132159523Y-54409580D01*
X132159523Y-54409580D02*
X132207142Y-54314342D01*
X132207142Y-54314342D02*
X132254761Y-54123866D01*
X132254761Y-54123866D02*
X132254761Y-53885771D01*
X132254761Y-53885771D02*
X132207142Y-53695295D01*
X132207142Y-53695295D02*
X132159523Y-53600057D01*
X132159523Y-53600057D02*
X132111904Y-53552438D01*
X132111904Y-53552438D02*
X132016666Y-53504819D01*
X130826190Y-53838152D02*
X130826190Y-54504819D01*
X131064285Y-53457200D02*
X131302380Y-54171485D01*
X131302380Y-54171485D02*
X130683333Y-54171485D01*
X130397618Y-53504819D02*
X129730952Y-53504819D01*
X129730952Y-53504819D02*
X130159523Y-54504819D01*
X128921428Y-53838152D02*
X128921428Y-54504819D01*
X129349999Y-53838152D02*
X129349999Y-54361961D01*
X129349999Y-54361961D02*
X129302380Y-54457200D01*
X129302380Y-54457200D02*
X129207142Y-54504819D01*
X129207142Y-54504819D02*
X129064285Y-54504819D01*
X129064285Y-54504819D02*
X128969047Y-54457200D01*
X128969047Y-54457200D02*
X128921428Y-54409580D01*
X128111904Y-53981009D02*
X128445237Y-53981009D01*
X128445237Y-54504819D02*
X128445237Y-53504819D01*
X128445237Y-53504819D02*
X127969047Y-53504819D01*
X138042857Y-50859580D02*
X138090476Y-50907200D01*
X138090476Y-50907200D02*
X138233333Y-50954819D01*
X138233333Y-50954819D02*
X138328571Y-50954819D01*
X138328571Y-50954819D02*
X138471428Y-50907200D01*
X138471428Y-50907200D02*
X138566666Y-50811961D01*
X138566666Y-50811961D02*
X138614285Y-50716723D01*
X138614285Y-50716723D02*
X138661904Y-50526247D01*
X138661904Y-50526247D02*
X138661904Y-50383390D01*
X138661904Y-50383390D02*
X138614285Y-50192914D01*
X138614285Y-50192914D02*
X138566666Y-50097676D01*
X138566666Y-50097676D02*
X138471428Y-50002438D01*
X138471428Y-50002438D02*
X138328571Y-49954819D01*
X138328571Y-49954819D02*
X138233333Y-49954819D01*
X138233333Y-49954819D02*
X138090476Y-50002438D01*
X138090476Y-50002438D02*
X138042857Y-50050057D01*
X137709523Y-49954819D02*
X137090476Y-49954819D01*
X137090476Y-49954819D02*
X137423809Y-50335771D01*
X137423809Y-50335771D02*
X137280952Y-50335771D01*
X137280952Y-50335771D02*
X137185714Y-50383390D01*
X137185714Y-50383390D02*
X137138095Y-50431009D01*
X137138095Y-50431009D02*
X137090476Y-50526247D01*
X137090476Y-50526247D02*
X137090476Y-50764342D01*
X137090476Y-50764342D02*
X137138095Y-50859580D01*
X137138095Y-50859580D02*
X137185714Y-50907200D01*
X137185714Y-50907200D02*
X137280952Y-50954819D01*
X137280952Y-50954819D02*
X137566666Y-50954819D01*
X137566666Y-50954819D02*
X137661904Y-50907200D01*
X137661904Y-50907200D02*
X137709523Y-50859580D01*
X136138095Y-50954819D02*
X136709523Y-50954819D01*
X136423809Y-50954819D02*
X136423809Y-49954819D01*
X136423809Y-49954819D02*
X136519047Y-50097676D01*
X136519047Y-50097676D02*
X136614285Y-50192914D01*
X136614285Y-50192914D02*
X136709523Y-50240533D01*
X138592856Y-51354819D02*
X138497618Y-51354819D01*
X138497618Y-51354819D02*
X138402380Y-51402438D01*
X138402380Y-51402438D02*
X138354761Y-51450057D01*
X138354761Y-51450057D02*
X138307142Y-51545295D01*
X138307142Y-51545295D02*
X138259523Y-51735771D01*
X138259523Y-51735771D02*
X138259523Y-51973866D01*
X138259523Y-51973866D02*
X138307142Y-52164342D01*
X138307142Y-52164342D02*
X138354761Y-52259580D01*
X138354761Y-52259580D02*
X138402380Y-52307200D01*
X138402380Y-52307200D02*
X138497618Y-52354819D01*
X138497618Y-52354819D02*
X138592856Y-52354819D01*
X138592856Y-52354819D02*
X138688094Y-52307200D01*
X138688094Y-52307200D02*
X138735713Y-52259580D01*
X138735713Y-52259580D02*
X138783332Y-52164342D01*
X138783332Y-52164342D02*
X138830951Y-51973866D01*
X138830951Y-51973866D02*
X138830951Y-51735771D01*
X138830951Y-51735771D02*
X138783332Y-51545295D01*
X138783332Y-51545295D02*
X138735713Y-51450057D01*
X138735713Y-51450057D02*
X138688094Y-51402438D01*
X138688094Y-51402438D02*
X138592856Y-51354819D01*
X137830951Y-52259580D02*
X137783332Y-52307200D01*
X137783332Y-52307200D02*
X137830951Y-52354819D01*
X137830951Y-52354819D02*
X137878570Y-52307200D01*
X137878570Y-52307200D02*
X137830951Y-52259580D01*
X137830951Y-52259580D02*
X137830951Y-52354819D01*
X136830952Y-52354819D02*
X137402380Y-52354819D01*
X137116666Y-52354819D02*
X137116666Y-51354819D01*
X137116666Y-51354819D02*
X137211904Y-51497676D01*
X137211904Y-51497676D02*
X137307142Y-51592914D01*
X137307142Y-51592914D02*
X137402380Y-51640533D01*
X135973809Y-51688152D02*
X135973809Y-52354819D01*
X136402380Y-51688152D02*
X136402380Y-52211961D01*
X136402380Y-52211961D02*
X136354761Y-52307200D01*
X136354761Y-52307200D02*
X136259523Y-52354819D01*
X136259523Y-52354819D02*
X136116666Y-52354819D01*
X136116666Y-52354819D02*
X136021428Y-52307200D01*
X136021428Y-52307200D02*
X135973809Y-52259580D01*
X135164285Y-51831009D02*
X135497618Y-51831009D01*
X135497618Y-52354819D02*
X135497618Y-51354819D01*
X135497618Y-51354819D02*
X135021428Y-51354819D01*
X118792857Y-68104819D02*
X119126190Y-67628628D01*
X119364285Y-68104819D02*
X119364285Y-67104819D01*
X119364285Y-67104819D02*
X118983333Y-67104819D01*
X118983333Y-67104819D02*
X118888095Y-67152438D01*
X118888095Y-67152438D02*
X118840476Y-67200057D01*
X118840476Y-67200057D02*
X118792857Y-67295295D01*
X118792857Y-67295295D02*
X118792857Y-67438152D01*
X118792857Y-67438152D02*
X118840476Y-67533390D01*
X118840476Y-67533390D02*
X118888095Y-67581009D01*
X118888095Y-67581009D02*
X118983333Y-67628628D01*
X118983333Y-67628628D02*
X119364285Y-67628628D01*
X118411904Y-67200057D02*
X118364285Y-67152438D01*
X118364285Y-67152438D02*
X118269047Y-67104819D01*
X118269047Y-67104819D02*
X118030952Y-67104819D01*
X118030952Y-67104819D02*
X117935714Y-67152438D01*
X117935714Y-67152438D02*
X117888095Y-67200057D01*
X117888095Y-67200057D02*
X117840476Y-67295295D01*
X117840476Y-67295295D02*
X117840476Y-67390533D01*
X117840476Y-67390533D02*
X117888095Y-67533390D01*
X117888095Y-67533390D02*
X118459523Y-68104819D01*
X118459523Y-68104819D02*
X117840476Y-68104819D01*
X117269047Y-67533390D02*
X117364285Y-67485771D01*
X117364285Y-67485771D02*
X117411904Y-67438152D01*
X117411904Y-67438152D02*
X117459523Y-67342914D01*
X117459523Y-67342914D02*
X117459523Y-67295295D01*
X117459523Y-67295295D02*
X117411904Y-67200057D01*
X117411904Y-67200057D02*
X117364285Y-67152438D01*
X117364285Y-67152438D02*
X117269047Y-67104819D01*
X117269047Y-67104819D02*
X117078571Y-67104819D01*
X117078571Y-67104819D02*
X116983333Y-67152438D01*
X116983333Y-67152438D02*
X116935714Y-67200057D01*
X116935714Y-67200057D02*
X116888095Y-67295295D01*
X116888095Y-67295295D02*
X116888095Y-67342914D01*
X116888095Y-67342914D02*
X116935714Y-67438152D01*
X116935714Y-67438152D02*
X116983333Y-67485771D01*
X116983333Y-67485771D02*
X117078571Y-67533390D01*
X117078571Y-67533390D02*
X117269047Y-67533390D01*
X117269047Y-67533390D02*
X117364285Y-67581009D01*
X117364285Y-67581009D02*
X117411904Y-67628628D01*
X117411904Y-67628628D02*
X117459523Y-67723866D01*
X117459523Y-67723866D02*
X117459523Y-67914342D01*
X117459523Y-67914342D02*
X117411904Y-68009580D01*
X117411904Y-68009580D02*
X117364285Y-68057200D01*
X117364285Y-68057200D02*
X117269047Y-68104819D01*
X117269047Y-68104819D02*
X117078571Y-68104819D01*
X117078571Y-68104819D02*
X116983333Y-68057200D01*
X116983333Y-68057200D02*
X116935714Y-68009580D01*
X116935714Y-68009580D02*
X116888095Y-67914342D01*
X116888095Y-67914342D02*
X116888095Y-67723866D01*
X116888095Y-67723866D02*
X116935714Y-67628628D01*
X116935714Y-67628628D02*
X116983333Y-67581009D01*
X116983333Y-67581009D02*
X117078571Y-67533390D01*
X118419047Y-71854819D02*
X118990475Y-71854819D01*
X118704761Y-71854819D02*
X118704761Y-70854819D01*
X118704761Y-70854819D02*
X118799999Y-70997676D01*
X118799999Y-70997676D02*
X118895237Y-71092914D01*
X118895237Y-71092914D02*
X118990475Y-71140533D01*
X117990475Y-71854819D02*
X117990475Y-70854819D01*
X117895237Y-71473866D02*
X117609523Y-71854819D01*
X117609523Y-71188152D02*
X117990475Y-71569104D01*
D11*
X143482748Y-68178000D02*
X144905252Y-68178000D01*
X143482748Y-69998000D02*
X144905252Y-69998000D01*
X137386252Y-65190000D02*
X135963748Y-65190000D01*
X137386252Y-67010000D02*
X135963748Y-67010000D01*
X144538748Y-58565000D02*
X145961252Y-58565000D01*
X144538748Y-60385000D02*
X145961252Y-60385000D01*
X134011252Y-55190000D02*
X132588748Y-55190000D01*
X134011252Y-57010000D02*
X132588748Y-57010000D01*
X139390000Y-52611252D02*
X139390000Y-51188748D01*
X141210000Y-52611252D02*
X141210000Y-51188748D01*
X120427064Y-68590000D02*
X118972936Y-68590000D01*
X120427064Y-70410000D02*
X118972936Y-70410000D01*
M02*
