G04 #@! TF.GenerationSoftware,KiCad,Pcbnew,8.0.0*
G04 #@! TF.CreationDate,2024-03-05T13:06:20-05:00*
G04 #@! TF.ProjectId,qse2,71736532-2e6b-4696-9361-645f70636258,rev?*
G04 #@! TF.SameCoordinates,Original*
G04 #@! TF.FileFunction,Copper,L2,Bot*
G04 #@! TF.FilePolarity,Positive*
%FSLAX46Y46*%
G04 Gerber Fmt 4.6, Leading zero omitted, Abs format (unit mm)*
G04 Created by KiCad (PCBNEW 8.0.0) date 2024-03-05 13:06:20*
%MOMM*%
%LPD*%
G01*
G04 APERTURE LIST*
G04 Aperture macros list*
%AMRoundRect*
0 Rectangle with rounded corners*
0 $1 Rounding radius*
0 $2 $3 $4 $5 $6 $7 $8 $9 X,Y pos of 4 corners*
0 Add a 4 corners polygon primitive as box body*
4,1,4,$2,$3,$4,$5,$6,$7,$8,$9,$2,$3,0*
0 Add four circle primitives for the rounded corners*
1,1,$1+$1,$2,$3*
1,1,$1+$1,$4,$5*
1,1,$1+$1,$6,$7*
1,1,$1+$1,$8,$9*
0 Add four rect primitives between the rounded corners*
20,1,$1+$1,$2,$3,$4,$5,0*
20,1,$1+$1,$4,$5,$6,$7,0*
20,1,$1+$1,$6,$7,$8,$9,0*
20,1,$1+$1,$8,$9,$2,$3,0*%
G04 Aperture macros list end*
G04 #@! TA.AperFunction,ComponentPad*
%ADD10C,2.600000*%
G04 #@! TD*
G04 #@! TA.AperFunction,ComponentPad*
%ADD11C,2.500000*%
G04 #@! TD*
G04 #@! TA.AperFunction,ComponentPad*
%ADD12C,2.100000*%
G04 #@! TD*
G04 #@! TA.AperFunction,ComponentPad*
%ADD13RoundRect,0.250000X-0.600000X-0.600000X0.600000X-0.600000X0.600000X0.600000X-0.600000X0.600000X0*%
G04 #@! TD*
G04 #@! TA.AperFunction,ComponentPad*
%ADD14C,1.700000*%
G04 #@! TD*
G04 #@! TA.AperFunction,SMDPad,CuDef*
%ADD15RoundRect,0.250000X0.325000X0.650000X-0.325000X0.650000X-0.325000X-0.650000X0.325000X-0.650000X0*%
G04 #@! TD*
G04 #@! TA.AperFunction,SMDPad,CuDef*
%ADD16RoundRect,0.250000X-0.325000X-0.650000X0.325000X-0.650000X0.325000X0.650000X-0.325000X0.650000X0*%
G04 #@! TD*
G04 #@! TA.AperFunction,ViaPad*
%ADD17C,1.000000*%
G04 #@! TD*
G04 #@! TA.AperFunction,Conductor*
%ADD18C,0.250000*%
G04 #@! TD*
G04 #@! TA.AperFunction,Conductor*
%ADD19C,0.500000*%
G04 #@! TD*
G04 APERTURE END LIST*
D10*
X121820000Y-42672000D03*
X121820000Y-47752000D03*
X126900000Y-42672000D03*
X126900000Y-47752000D03*
D11*
X124460000Y-45137000D03*
D10*
X148590000Y-42672000D03*
X148590000Y-47752000D03*
X153670000Y-42672000D03*
X153670000Y-47752000D03*
D11*
X151230000Y-45137000D03*
D12*
X104597200Y-89752800D03*
X104597200Y-92252800D03*
D13*
X103210000Y-62500000D03*
D14*
X105750000Y-62500000D03*
X103210000Y-65040000D03*
X105750000Y-65040000D03*
X103210000Y-67580000D03*
X105750000Y-67580000D03*
X103210000Y-70120000D03*
X105750000Y-70120000D03*
X103210000Y-72660000D03*
X105750000Y-72660000D03*
X103210000Y-75200000D03*
X105750000Y-75200000D03*
X103210000Y-77740000D03*
X105750000Y-77740000D03*
X103210000Y-80280000D03*
X105750000Y-80280000D03*
D15*
X145669000Y-69088000D03*
X142719000Y-69088000D03*
D16*
X140858000Y-59451000D03*
X143808000Y-59451000D03*
D15*
X140125000Y-52450000D03*
X137175000Y-52450000D03*
X147652000Y-51816000D03*
X144702000Y-51816000D03*
D17*
X166583900Y-84937600D03*
X145720000Y-81140000D03*
X124860000Y-68210000D03*
X138750000Y-50500000D03*
X121290000Y-68210000D03*
X165542500Y-72771000D03*
X144272000Y-70612000D03*
X181400000Y-90600000D03*
X149383000Y-62326000D03*
X109728000Y-60325000D03*
X197850000Y-107300000D03*
X156550000Y-53650000D03*
X162800000Y-51850000D03*
X171500000Y-76050000D03*
X124575000Y-75650000D03*
X147828000Y-59690000D03*
X189738000Y-64008000D03*
X132570000Y-73980000D03*
X119860000Y-73920000D03*
X186450000Y-84125000D03*
X141550000Y-53750000D03*
X144563000Y-65686000D03*
X141550000Y-76550000D03*
X132050000Y-69350000D03*
X181400000Y-79100000D03*
X184500000Y-82300000D03*
X143400000Y-50175000D03*
X151765000Y-66294000D03*
X135550000Y-53050000D03*
X175050000Y-63850000D03*
X157150000Y-84550000D03*
X176625000Y-83625000D03*
X197225000Y-60600000D03*
X162500000Y-87500000D03*
X141250000Y-54850000D03*
X163350000Y-81050000D03*
X191100000Y-113150000D03*
X166650000Y-94000000D03*
X178115500Y-76352400D03*
X159850000Y-63750000D03*
X112000000Y-64400000D03*
X148583000Y-53876000D03*
X145750000Y-88450000D03*
X101050000Y-41500000D03*
X126500000Y-54700000D03*
X181150000Y-63800000D03*
X181200000Y-70850000D03*
X142126000Y-60971000D03*
X171800000Y-71750000D03*
X142433000Y-57876000D03*
X141224000Y-70612000D03*
X196150000Y-47000000D03*
X147828000Y-68453000D03*
X186900000Y-77300000D03*
X106680000Y-59182000D03*
X109931200Y-66192400D03*
X186853100Y-70408800D03*
X164025000Y-78575000D03*
X117200000Y-51050000D03*
X125100000Y-61850000D03*
X162275000Y-91300000D03*
X133604000Y-71374000D03*
X100600000Y-55375000D03*
X163550000Y-84000000D03*
X127625000Y-64000000D03*
X149987000Y-73152000D03*
X147000000Y-78400000D03*
X162900000Y-68800000D03*
X135100000Y-64800000D03*
X151384000Y-63881000D03*
X170851100Y-56083200D03*
X177050000Y-41100000D03*
X164000000Y-76025000D03*
X158060000Y-69040000D03*
X128397000Y-68199000D03*
X164200000Y-62600000D03*
X132000000Y-66400000D03*
X120269000Y-91059000D03*
X118220000Y-78080000D03*
X158252700Y-81026000D03*
X130820000Y-78450000D03*
X148400000Y-88550000D03*
X109220000Y-57277000D03*
X130190000Y-60290000D03*
X107400000Y-113150000D03*
X134850000Y-78480000D03*
X130200000Y-58390000D03*
X155700000Y-78450000D03*
X141491000Y-64019000D03*
X172150000Y-84850000D03*
X114160000Y-73930000D03*
X166243000Y-89027000D03*
X183950000Y-76000000D03*
X124560000Y-73920000D03*
X154650000Y-88600000D03*
X135255000Y-56642000D03*
X149525000Y-91350000D03*
X147450000Y-113050000D03*
X197260000Y-41440000D03*
X137414000Y-73279000D03*
X138540000Y-81180000D03*
X179300000Y-84450000D03*
X156130000Y-75920000D03*
X148170000Y-81140000D03*
X154500000Y-94100000D03*
X166634700Y-65176400D03*
X156225000Y-73150000D03*
X171850000Y-91900000D03*
X197300000Y-82300000D03*
X125325000Y-58700000D03*
X175118300Y-56083200D03*
X183600000Y-68350000D03*
X116250000Y-83550000D03*
X159200000Y-87450000D03*
X166600000Y-68800000D03*
X193400000Y-49750000D03*
X109880000Y-88530000D03*
X135150000Y-62250000D03*
X146950000Y-94800000D03*
X113475000Y-69550000D03*
X185450000Y-63350000D03*
X142761000Y-64400000D03*
X172121100Y-64770000D03*
X164150000Y-60150000D03*
X168057100Y-49885600D03*
X155300000Y-81100000D03*
X119800000Y-56825000D03*
X100550000Y-106550000D03*
X128150000Y-75700000D03*
X119840000Y-71420000D03*
X184450000Y-57350000D03*
X122540000Y-70950000D03*
X136530102Y-54697200D03*
X153303000Y-60946000D03*
X122480000Y-78330000D03*
X156650000Y-79800000D03*
X152103000Y-58236000D03*
X166583900Y-79806800D03*
X142758000Y-62326000D03*
X140613000Y-69146000D03*
X134239000Y-74295000D03*
X166837900Y-60147200D03*
X142758000Y-56576000D03*
X166837900Y-70408800D03*
X137433000Y-60590000D03*
X139158000Y-54976000D03*
X146685000Y-71882000D03*
X139158000Y-60776000D03*
X137858000Y-58177000D03*
X149500000Y-74676000D03*
X137208000Y-63951000D03*
X139508000Y-58431000D03*
X126302500Y-69469000D03*
X149987000Y-68072000D03*
X103200000Y-57525000D03*
X136271000Y-74549000D03*
X145233000Y-63976000D03*
X149413000Y-60826000D03*
X145883000Y-54826000D03*
X148708000Y-55601000D03*
X145883000Y-60676000D03*
X145883000Y-58276000D03*
X168768300Y-60401200D03*
X163231100Y-86055200D03*
X168463500Y-80213200D03*
X158600000Y-92800000D03*
X181250000Y-61200000D03*
X181300000Y-80750000D03*
X132390000Y-89740000D03*
X170307000Y-65278000D03*
X168529000Y-84836000D03*
X139120000Y-89740000D03*
X164250000Y-89150000D03*
D18*
X142758000Y-62326000D02*
X143283000Y-62851000D01*
X144883000Y-64876000D02*
X146071000Y-64876000D01*
D19*
X143808000Y-59451000D02*
X143808000Y-61276000D01*
D18*
X156627100Y-79806800D02*
X156643200Y-79806800D01*
X156656800Y-79806800D02*
X166583900Y-79806800D01*
D19*
X140671000Y-69088000D02*
X140613000Y-69146000D01*
D18*
X147193000Y-63754000D02*
X149845000Y-63754000D01*
X146071000Y-64876000D02*
X147193000Y-63754000D01*
X152103000Y-61496000D02*
X152103000Y-58236000D01*
X140433000Y-63466000D02*
X141573000Y-62326000D01*
X149845000Y-63754000D02*
X152103000Y-61496000D01*
D19*
X137229897Y-71362103D02*
X139446000Y-69146000D01*
X143808000Y-57626000D02*
X142758000Y-56576000D01*
D18*
X141573000Y-62326000D02*
X142758000Y-62326000D01*
D19*
X139446000Y-69146000D02*
X140613000Y-69146000D01*
X143808000Y-59451000D02*
X143808000Y-57626000D01*
D18*
X140613000Y-69146000D02*
X140433000Y-68966000D01*
D19*
X134239000Y-74295000D02*
X137171897Y-71362103D01*
D18*
X143283000Y-63276000D02*
X144883000Y-64876000D01*
X140613000Y-64836000D02*
X140433000Y-64656000D01*
D19*
X137171897Y-71362103D02*
X137229897Y-71362103D01*
D18*
X166837900Y-62585600D02*
X166837900Y-60147200D01*
X156650000Y-79800000D02*
X156656800Y-79806800D01*
D19*
X142719000Y-69088000D02*
X140671000Y-69088000D01*
D18*
X166837900Y-70408800D02*
X167955500Y-69291200D01*
D19*
X143808000Y-61276000D02*
X142758000Y-62326000D01*
D18*
X167955500Y-63703200D02*
X166837900Y-62585600D01*
X140613000Y-69146000D02*
X140613000Y-64836000D01*
X140433000Y-64656000D02*
X140433000Y-63466000D01*
X156643200Y-79806800D02*
X156650000Y-79800000D01*
X167955500Y-69291200D02*
X167955500Y-63703200D01*
X143283000Y-62851000D02*
X143283000Y-63276000D01*
X137433000Y-60951000D02*
X137408000Y-60926000D01*
X137300000Y-58912727D02*
X137300000Y-60457000D01*
X137033000Y-57101000D02*
X139158000Y-54976000D01*
X137033000Y-58645727D02*
X137033000Y-57101000D01*
X137300000Y-58912727D02*
X137033000Y-58645727D01*
X137300000Y-60457000D02*
X137433000Y-60590000D01*
X140125000Y-55910000D02*
X137858000Y-58177000D01*
X140125000Y-52450000D02*
X140125000Y-55910000D01*
X137858000Y-59476000D02*
X139158000Y-60776000D01*
X146685000Y-71882000D02*
X149479000Y-74676000D01*
X137858000Y-59476000D02*
X137858000Y-58177000D01*
X139983000Y-60276000D02*
X139983000Y-61176000D01*
X139513000Y-59806000D02*
X139513000Y-58436000D01*
X139513000Y-59806000D02*
X139983000Y-60276000D01*
X139983000Y-61176000D02*
X137208000Y-63951000D01*
X139513000Y-58436000D02*
X139508000Y-58431000D01*
X146113500Y-70675500D02*
X147383500Y-70675500D01*
X115169400Y-69494400D02*
X103200000Y-57525000D01*
X147383500Y-70675500D02*
X149987000Y-68072000D01*
X126277100Y-69494400D02*
X126302500Y-69469000D01*
X115169400Y-69494400D02*
X126277100Y-69494400D01*
X103210000Y-62500000D02*
X103225000Y-62500000D01*
X142240000Y-74549000D02*
X146113500Y-70675500D01*
X136271000Y-74549000D02*
X142240000Y-74549000D01*
X148383000Y-60826000D02*
X145233000Y-63976000D01*
X149413000Y-60826000D02*
X148383000Y-60826000D01*
X145883000Y-54826000D02*
X147933000Y-54826000D01*
X147933000Y-54826000D02*
X148708000Y-55601000D01*
X145883000Y-60676000D02*
X145883000Y-58276000D01*
X145883000Y-58276000D02*
X144645500Y-57038500D01*
X144645500Y-57038500D02*
X144645500Y-52076000D01*
X168768300Y-61326300D02*
X168768300Y-60401200D01*
X169171000Y-79505700D02*
X169171000Y-61729000D01*
X167498300Y-81178400D02*
X168463500Y-80213200D01*
X167498300Y-81788000D02*
X167498300Y-81178400D01*
X163231100Y-86055200D02*
X167498300Y-81788000D01*
X168463500Y-80213200D02*
X169171000Y-79505700D01*
X169171000Y-61729000D02*
X168768300Y-61326300D01*
X158600000Y-92800000D02*
X169250000Y-92800000D01*
X181250000Y-61200000D02*
X182400000Y-62350000D01*
X182400000Y-79650000D02*
X181300000Y-80750000D01*
X181250000Y-61550000D02*
X181250000Y-61200000D01*
X169250000Y-92800000D02*
X181300000Y-80750000D01*
X182400000Y-62350000D02*
X182400000Y-79650000D01*
X108610000Y-89752800D02*
X132377200Y-89752800D01*
X108610400Y-89752400D02*
X108610000Y-89752800D01*
X105750000Y-62500000D02*
X108610400Y-65360400D01*
X104597200Y-89752800D02*
X108610000Y-89752800D01*
X108610400Y-65360400D02*
X108610400Y-89752400D01*
X132377200Y-89752800D02*
X132390000Y-89740000D01*
X146540000Y-90140000D02*
X146550000Y-90150000D01*
X164250000Y-89115000D02*
X164250000Y-89150000D01*
X163215000Y-90150000D02*
X146550000Y-90150000D01*
X164250000Y-89150000D02*
X164215000Y-89150000D01*
X170307000Y-65278000D02*
X170307000Y-81534000D01*
X142780000Y-89740000D02*
X143180000Y-90140000D01*
X164215000Y-89150000D02*
X163215000Y-90150000D01*
X170307000Y-81534000D02*
X168529000Y-83312000D01*
X168529000Y-83312000D02*
X168529000Y-84836000D01*
X143180000Y-90140000D02*
X146540000Y-90140000D01*
X139120000Y-89740000D02*
X142780000Y-89740000D01*
X168529000Y-84836000D02*
X164250000Y-89115000D01*
G04 #@! TA.AperFunction,Conductor*
G36*
X104564855Y-78406546D02*
G01*
X104581575Y-78425842D01*
X104711500Y-78611395D01*
X104711505Y-78611401D01*
X104878599Y-78778495D01*
X105020687Y-78877986D01*
X105064594Y-78908730D01*
X105108218Y-78963307D01*
X105115411Y-79032806D01*
X105083889Y-79095160D01*
X105064593Y-79111880D01*
X104988626Y-79165072D01*
X104988625Y-79165072D01*
X105620590Y-79797037D01*
X105557007Y-79814075D01*
X105442993Y-79879901D01*
X105349901Y-79972993D01*
X105284075Y-80087007D01*
X105267037Y-80150590D01*
X104635072Y-79518625D01*
X104635072Y-79518626D01*
X104581574Y-79595030D01*
X104526998Y-79638655D01*
X104457499Y-79645849D01*
X104395144Y-79614326D01*
X104378424Y-79595030D01*
X104324925Y-79518626D01*
X104324925Y-79518625D01*
X103692962Y-80150589D01*
X103675925Y-80087007D01*
X103610099Y-79972993D01*
X103517007Y-79879901D01*
X103402993Y-79814075D01*
X103339410Y-79797037D01*
X103971373Y-79165073D01*
X103971373Y-79165072D01*
X103895405Y-79111880D01*
X103851780Y-79057304D01*
X103844586Y-78987805D01*
X103876108Y-78925451D01*
X103895399Y-78908734D01*
X104081401Y-78778495D01*
X104248495Y-78611401D01*
X104378425Y-78425842D01*
X104433002Y-78382217D01*
X104502500Y-78375023D01*
X104564855Y-78406546D01*
G37*
G04 #@! TD.AperFunction*
G04 #@! TA.AperFunction,Conductor*
G36*
X105284075Y-75392993D02*
G01*
X105349901Y-75507007D01*
X105442993Y-75600099D01*
X105557007Y-75665925D01*
X105620590Y-75682962D01*
X104988625Y-76314925D01*
X105064594Y-76368119D01*
X105108219Y-76422696D01*
X105115413Y-76492194D01*
X105083890Y-76554549D01*
X105064595Y-76571269D01*
X104878594Y-76701508D01*
X104711505Y-76868597D01*
X104581575Y-77054158D01*
X104526998Y-77097783D01*
X104457500Y-77104977D01*
X104395145Y-77073454D01*
X104378425Y-77054158D01*
X104248494Y-76868597D01*
X104081402Y-76701506D01*
X104081401Y-76701505D01*
X103895405Y-76571269D01*
X103851781Y-76516692D01*
X103844588Y-76447193D01*
X103876110Y-76384839D01*
X103895405Y-76368119D01*
X103971373Y-76314925D01*
X103339409Y-75682962D01*
X103402993Y-75665925D01*
X103517007Y-75600099D01*
X103610099Y-75507007D01*
X103675925Y-75392993D01*
X103692962Y-75329410D01*
X104324925Y-75961373D01*
X104378425Y-75884968D01*
X104433002Y-75841344D01*
X104502501Y-75834151D01*
X104564855Y-75865673D01*
X104581576Y-75884969D01*
X104635073Y-75961372D01*
X105267037Y-75329409D01*
X105284075Y-75392993D01*
G37*
G04 #@! TD.AperFunction*
G04 #@! TA.AperFunction,Conductor*
G36*
X104564855Y-73326546D02*
G01*
X104581575Y-73345842D01*
X104711500Y-73531395D01*
X104711505Y-73531401D01*
X104878599Y-73698495D01*
X105064594Y-73828730D01*
X105108218Y-73883307D01*
X105115411Y-73952806D01*
X105083889Y-74015160D01*
X105064593Y-74031880D01*
X104988626Y-74085072D01*
X104988625Y-74085072D01*
X105620590Y-74717037D01*
X105557007Y-74734075D01*
X105442993Y-74799901D01*
X105349901Y-74892993D01*
X105284075Y-75007007D01*
X105267037Y-75070590D01*
X104635072Y-74438625D01*
X104635072Y-74438626D01*
X104581574Y-74515030D01*
X104526998Y-74558655D01*
X104457499Y-74565849D01*
X104395144Y-74534326D01*
X104378424Y-74515030D01*
X104324925Y-74438626D01*
X104324925Y-74438625D01*
X103692962Y-75070589D01*
X103675925Y-75007007D01*
X103610099Y-74892993D01*
X103517007Y-74799901D01*
X103402993Y-74734075D01*
X103339410Y-74717037D01*
X103971373Y-74085073D01*
X103971373Y-74085072D01*
X103895405Y-74031880D01*
X103851780Y-73977304D01*
X103844586Y-73907805D01*
X103876108Y-73845451D01*
X103895399Y-73828734D01*
X104081401Y-73698495D01*
X104248495Y-73531401D01*
X104362891Y-73368026D01*
X104378425Y-73345842D01*
X104433002Y-73302217D01*
X104502500Y-73295023D01*
X104564855Y-73326546D01*
G37*
G04 #@! TD.AperFunction*
G04 #@! TA.AperFunction,Conductor*
G36*
X105284075Y-70312993D02*
G01*
X105349901Y-70427007D01*
X105442993Y-70520099D01*
X105557007Y-70585925D01*
X105620590Y-70602962D01*
X104988625Y-71234925D01*
X105064594Y-71288119D01*
X105108219Y-71342696D01*
X105115413Y-71412194D01*
X105083890Y-71474549D01*
X105064595Y-71491269D01*
X104878594Y-71621508D01*
X104711505Y-71788597D01*
X104581575Y-71974158D01*
X104526998Y-72017783D01*
X104457500Y-72024977D01*
X104395145Y-71993454D01*
X104378425Y-71974158D01*
X104248494Y-71788597D01*
X104081402Y-71621506D01*
X104081401Y-71621505D01*
X103913844Y-71504180D01*
X103895405Y-71491269D01*
X103851781Y-71436692D01*
X103844588Y-71367193D01*
X103876110Y-71304839D01*
X103895405Y-71288119D01*
X103971373Y-71234925D01*
X103339409Y-70602962D01*
X103402993Y-70585925D01*
X103517007Y-70520099D01*
X103610099Y-70427007D01*
X103675925Y-70312993D01*
X103692962Y-70249410D01*
X104324925Y-70881373D01*
X104378425Y-70804968D01*
X104433002Y-70761344D01*
X104502501Y-70754151D01*
X104564855Y-70785673D01*
X104581576Y-70804969D01*
X104635073Y-70881372D01*
X105267037Y-70249409D01*
X105284075Y-70312993D01*
G37*
G04 #@! TD.AperFunction*
G04 #@! TA.AperFunction,Conductor*
G36*
X104564855Y-68246546D02*
G01*
X104581575Y-68265842D01*
X104711500Y-68451395D01*
X104711505Y-68451401D01*
X104878599Y-68618495D01*
X105064594Y-68748730D01*
X105108218Y-68803307D01*
X105115411Y-68872806D01*
X105083889Y-68935160D01*
X105064593Y-68951880D01*
X104988626Y-69005072D01*
X104988625Y-69005072D01*
X105620590Y-69637037D01*
X105557007Y-69654075D01*
X105442993Y-69719901D01*
X105349901Y-69812993D01*
X105284075Y-69927007D01*
X105267037Y-69990590D01*
X104635072Y-69358625D01*
X104635072Y-69358626D01*
X104581574Y-69435030D01*
X104526998Y-69478655D01*
X104457499Y-69485849D01*
X104395144Y-69454326D01*
X104378424Y-69435030D01*
X104324925Y-69358626D01*
X104324925Y-69358625D01*
X103692962Y-69990589D01*
X103675925Y-69927007D01*
X103610099Y-69812993D01*
X103517007Y-69719901D01*
X103402993Y-69654075D01*
X103339410Y-69637037D01*
X103971373Y-69005073D01*
X103971373Y-69005072D01*
X103895405Y-68951880D01*
X103851780Y-68897304D01*
X103844586Y-68827805D01*
X103876108Y-68765451D01*
X103895399Y-68748734D01*
X104081401Y-68618495D01*
X104248495Y-68451401D01*
X104374463Y-68271500D01*
X104378425Y-68265842D01*
X104433002Y-68222217D01*
X104502500Y-68215023D01*
X104564855Y-68246546D01*
G37*
G04 #@! TD.AperFunction*
G04 #@! TA.AperFunction,Conductor*
G36*
X141614169Y-69858185D02*
G01*
X141659924Y-69910989D01*
X141664836Y-69923495D01*
X141709114Y-70057118D01*
X141709186Y-70057333D01*
X141709187Y-70057336D01*
X141732950Y-70095862D01*
X141801288Y-70206656D01*
X141925344Y-70330712D01*
X142074666Y-70422814D01*
X142241203Y-70477999D01*
X142343991Y-70488500D01*
X143094008Y-70488499D01*
X143094016Y-70488498D01*
X143094019Y-70488498D01*
X143150302Y-70482748D01*
X143196797Y-70477999D01*
X143363334Y-70422814D01*
X143512656Y-70330712D01*
X143636712Y-70206656D01*
X143728814Y-70057334D01*
X143728816Y-70057326D01*
X143731864Y-70050791D01*
X143734252Y-70051904D01*
X143767054Y-70004541D01*
X143831573Y-69977726D01*
X143844975Y-69977000D01*
X144543551Y-69977000D01*
X144610590Y-69996685D01*
X144656345Y-70049489D01*
X144657746Y-70053057D01*
X144659640Y-70057118D01*
X144751684Y-70206345D01*
X144875654Y-70330315D01*
X145024875Y-70422356D01*
X145024880Y-70422358D01*
X145177434Y-70472909D01*
X145234879Y-70512681D01*
X145261702Y-70577197D01*
X145249387Y-70645973D01*
X145226111Y-70678296D01*
X142017229Y-73887181D01*
X141955906Y-73920666D01*
X141929548Y-73923500D01*
X137110603Y-73923500D01*
X137043564Y-73903815D01*
X137014750Y-73878165D01*
X136981883Y-73838116D01*
X136829539Y-73713090D01*
X136829532Y-73713086D01*
X136655733Y-73620188D01*
X136655727Y-73620186D01*
X136467132Y-73562976D01*
X136467129Y-73562975D01*
X136332282Y-73549694D01*
X136267495Y-73523533D01*
X136227137Y-73466498D01*
X136224020Y-73396698D01*
X136256754Y-73338612D01*
X137538571Y-72056795D01*
X137578804Y-72029915D01*
X137585392Y-72027187D01*
X137634626Y-71994289D01*
X137650183Y-71983895D01*
X137667879Y-71972071D01*
X137708313Y-71945055D01*
X139720549Y-69932819D01*
X139781872Y-69899334D01*
X139808230Y-69896500D01*
X139906022Y-69896500D01*
X139973061Y-69916185D01*
X139984687Y-69924647D01*
X140054460Y-69981909D01*
X140054467Y-69981913D01*
X140228266Y-70074811D01*
X140228269Y-70074811D01*
X140228273Y-70074814D01*
X140416868Y-70132024D01*
X140613000Y-70151341D01*
X140809132Y-70132024D01*
X140997727Y-70074814D01*
X140999185Y-70074035D01*
X141171532Y-69981913D01*
X141171538Y-69981910D01*
X141241313Y-69924647D01*
X141311986Y-69866647D01*
X141376296Y-69839334D01*
X141390651Y-69838500D01*
X141547130Y-69838500D01*
X141614169Y-69858185D01*
G37*
G04 #@! TD.AperFunction*
G04 #@! TA.AperFunction,Conductor*
G36*
X198642539Y-40120185D02*
G01*
X198688294Y-40172989D01*
X198699500Y-40224500D01*
X198699500Y-113975500D01*
X198679815Y-114042539D01*
X198627011Y-114088294D01*
X198575500Y-114099500D01*
X99824500Y-114099500D01*
X99757461Y-114079815D01*
X99711706Y-114027011D01*
X99700500Y-113975500D01*
X99700500Y-110900005D01*
X100244556Y-110900005D01*
X100264310Y-111214004D01*
X100264311Y-111214011D01*
X100323270Y-111523083D01*
X100420497Y-111822316D01*
X100420499Y-111822321D01*
X100554461Y-112107003D01*
X100554464Y-112107009D01*
X100723051Y-112372661D01*
X100723054Y-112372665D01*
X100923606Y-112615090D01*
X100923608Y-112615092D01*
X101152968Y-112830476D01*
X101152978Y-112830484D01*
X101407504Y-113015408D01*
X101407509Y-113015410D01*
X101407516Y-113015416D01*
X101683234Y-113166994D01*
X101683239Y-113166996D01*
X101683241Y-113166997D01*
X101683242Y-113166998D01*
X101975771Y-113282818D01*
X101975774Y-113282819D01*
X102280523Y-113361065D01*
X102280527Y-113361066D01*
X102346010Y-113369338D01*
X102592670Y-113400499D01*
X102592679Y-113400499D01*
X102592682Y-113400500D01*
X102592684Y-113400500D01*
X102907316Y-113400500D01*
X102907318Y-113400500D01*
X102907321Y-113400499D01*
X102907329Y-113400499D01*
X103093593Y-113376968D01*
X103219473Y-113361066D01*
X103524225Y-113282819D01*
X103524228Y-113282818D01*
X103816757Y-113166998D01*
X103816758Y-113166997D01*
X103816756Y-113166997D01*
X103816766Y-113166994D01*
X104092484Y-113015416D01*
X104347030Y-112830478D01*
X104576390Y-112615094D01*
X104776947Y-112372663D01*
X104945537Y-112107007D01*
X105079503Y-111822315D01*
X105176731Y-111523079D01*
X105235688Y-111214015D01*
X105255444Y-110900005D01*
X193244556Y-110900005D01*
X193264310Y-111214004D01*
X193264311Y-111214011D01*
X193323270Y-111523083D01*
X193420497Y-111822316D01*
X193420499Y-111822321D01*
X193554461Y-112107003D01*
X193554464Y-112107009D01*
X193723051Y-112372661D01*
X193723054Y-112372665D01*
X193923606Y-112615090D01*
X193923608Y-112615092D01*
X194152968Y-112830476D01*
X194152978Y-112830484D01*
X194407504Y-113015408D01*
X194407509Y-113015410D01*
X194407516Y-113015416D01*
X194683234Y-113166994D01*
X194683239Y-113166996D01*
X194683241Y-113166997D01*
X194683242Y-113166998D01*
X194975771Y-113282818D01*
X194975774Y-113282819D01*
X195280523Y-113361065D01*
X195280527Y-113361066D01*
X195346010Y-113369338D01*
X195592670Y-113400499D01*
X195592679Y-113400499D01*
X195592682Y-113400500D01*
X195592684Y-113400500D01*
X195907316Y-113400500D01*
X195907318Y-113400500D01*
X195907321Y-113400499D01*
X195907329Y-113400499D01*
X196093593Y-113376968D01*
X196219473Y-113361066D01*
X196524225Y-113282819D01*
X196524228Y-113282818D01*
X196816757Y-113166998D01*
X196816758Y-113166997D01*
X196816756Y-113166997D01*
X196816766Y-113166994D01*
X197092484Y-113015416D01*
X197347030Y-112830478D01*
X197576390Y-112615094D01*
X197776947Y-112372663D01*
X197945537Y-112107007D01*
X198079503Y-111822315D01*
X198176731Y-111523079D01*
X198235688Y-111214015D01*
X198255444Y-110900000D01*
X198239916Y-110653190D01*
X198235689Y-110585995D01*
X198235688Y-110585988D01*
X198235688Y-110585985D01*
X198176731Y-110276921D01*
X198079503Y-109977685D01*
X197945537Y-109692993D01*
X197776947Y-109427337D01*
X197758983Y-109405622D01*
X197576393Y-109184909D01*
X197576391Y-109184907D01*
X197347031Y-108969523D01*
X197347021Y-108969515D01*
X197092495Y-108784591D01*
X197092488Y-108784586D01*
X197092484Y-108784584D01*
X196816766Y-108633006D01*
X196816763Y-108633004D01*
X196816758Y-108633002D01*
X196816757Y-108633001D01*
X196524228Y-108517181D01*
X196524225Y-108517180D01*
X196219476Y-108438934D01*
X196219463Y-108438932D01*
X195907329Y-108399500D01*
X195907318Y-108399500D01*
X195592682Y-108399500D01*
X195592670Y-108399500D01*
X195280536Y-108438932D01*
X195280523Y-108438934D01*
X194975774Y-108517180D01*
X194975771Y-108517181D01*
X194683242Y-108633001D01*
X194683241Y-108633002D01*
X194407516Y-108784584D01*
X194407504Y-108784591D01*
X194152978Y-108969515D01*
X194152968Y-108969523D01*
X193923608Y-109184907D01*
X193923606Y-109184909D01*
X193723054Y-109427334D01*
X193723051Y-109427338D01*
X193554464Y-109692990D01*
X193554461Y-109692996D01*
X193420499Y-109977678D01*
X193420497Y-109977683D01*
X193323270Y-110276916D01*
X193264311Y-110585988D01*
X193264310Y-110585995D01*
X193244556Y-110899994D01*
X193244556Y-110900005D01*
X105255444Y-110900005D01*
X105255444Y-110900000D01*
X105239916Y-110653190D01*
X105235689Y-110585995D01*
X105235688Y-110585988D01*
X105235688Y-110585985D01*
X105176731Y-110276921D01*
X105079503Y-109977685D01*
X104945537Y-109692993D01*
X104776947Y-109427337D01*
X104758983Y-109405622D01*
X104576393Y-109184909D01*
X104576391Y-109184907D01*
X104347031Y-108969523D01*
X104347021Y-108969515D01*
X104092495Y-108784591D01*
X104092488Y-108784586D01*
X104092484Y-108784584D01*
X103816766Y-108633006D01*
X103816763Y-108633004D01*
X103816758Y-108633002D01*
X103816757Y-108633001D01*
X103524228Y-108517181D01*
X103524225Y-108517180D01*
X103219476Y-108438934D01*
X103219463Y-108438932D01*
X102907329Y-108399500D01*
X102907318Y-108399500D01*
X102592682Y-108399500D01*
X102592670Y-108399500D01*
X102280536Y-108438932D01*
X102280523Y-108438934D01*
X101975774Y-108517180D01*
X101975771Y-108517181D01*
X101683242Y-108633001D01*
X101683241Y-108633002D01*
X101407516Y-108784584D01*
X101407504Y-108784591D01*
X101152978Y-108969515D01*
X101152968Y-108969523D01*
X100923608Y-109184907D01*
X100923606Y-109184909D01*
X100723054Y-109427334D01*
X100723051Y-109427338D01*
X100554464Y-109692990D01*
X100554461Y-109692996D01*
X100420499Y-109977678D01*
X100420497Y-109977683D01*
X100323270Y-110276916D01*
X100264311Y-110585988D01*
X100264310Y-110585995D01*
X100244556Y-110899994D01*
X100244556Y-110900005D01*
X99700500Y-110900005D01*
X99700500Y-77740000D01*
X101854341Y-77740000D01*
X101874936Y-77975403D01*
X101874938Y-77975413D01*
X101936094Y-78203655D01*
X101936096Y-78203659D01*
X101936097Y-78203663D01*
X101940000Y-78212032D01*
X102035965Y-78417830D01*
X102035967Y-78417834D01*
X102144281Y-78572521D01*
X102171505Y-78611401D01*
X102338599Y-78778495D01*
X102480687Y-78877986D01*
X102524594Y-78908730D01*
X102568218Y-78963307D01*
X102575411Y-79032806D01*
X102543889Y-79095160D01*
X102524593Y-79111880D01*
X102448626Y-79165072D01*
X102448625Y-79165072D01*
X103080590Y-79797037D01*
X103017007Y-79814075D01*
X102902993Y-79879901D01*
X102809901Y-79972993D01*
X102744075Y-80087007D01*
X102727037Y-80150590D01*
X102095072Y-79518625D01*
X102036401Y-79602419D01*
X101936570Y-79816507D01*
X101936566Y-79816516D01*
X101875432Y-80044673D01*
X101875430Y-80044684D01*
X101854843Y-80279998D01*
X101854843Y-80280001D01*
X101875430Y-80515315D01*
X101875432Y-80515326D01*
X101936566Y-80743483D01*
X101936570Y-80743492D01*
X102036400Y-80957579D01*
X102036402Y-80957583D01*
X102095072Y-81041373D01*
X102095073Y-81041373D01*
X102727037Y-80409409D01*
X102744075Y-80472993D01*
X102809901Y-80587007D01*
X102902993Y-80680099D01*
X103017007Y-80745925D01*
X103080590Y-80762962D01*
X102448625Y-81394925D01*
X102532421Y-81453599D01*
X102746507Y-81553429D01*
X102746516Y-81553433D01*
X102974673Y-81614567D01*
X102974684Y-81614569D01*
X103209998Y-81635157D01*
X103210002Y-81635157D01*
X103445315Y-81614569D01*
X103445326Y-81614567D01*
X103673483Y-81553433D01*
X103673492Y-81553429D01*
X103887578Y-81453600D01*
X103887582Y-81453598D01*
X103971373Y-81394926D01*
X103971373Y-81394925D01*
X103339409Y-80762962D01*
X103402993Y-80745925D01*
X103517007Y-80680099D01*
X103610099Y-80587007D01*
X103675925Y-80472993D01*
X103692962Y-80409410D01*
X104324925Y-81041373D01*
X104378425Y-80964968D01*
X104433002Y-80921344D01*
X104502501Y-80914151D01*
X104564855Y-80945673D01*
X104581576Y-80964969D01*
X104635073Y-81041372D01*
X105267037Y-80409409D01*
X105284075Y-80472993D01*
X105349901Y-80587007D01*
X105442993Y-80680099D01*
X105557007Y-80745925D01*
X105620590Y-80762962D01*
X104988625Y-81394925D01*
X105072421Y-81453599D01*
X105286507Y-81553429D01*
X105286516Y-81553433D01*
X105514673Y-81614567D01*
X105514684Y-81614569D01*
X105749998Y-81635157D01*
X105750002Y-81635157D01*
X105985315Y-81614569D01*
X105985326Y-81614567D01*
X106213483Y-81553433D01*
X106213492Y-81553429D01*
X106427578Y-81453600D01*
X106427582Y-81453598D01*
X106511373Y-81394926D01*
X106511373Y-81394925D01*
X105879409Y-80762962D01*
X105942993Y-80745925D01*
X106057007Y-80680099D01*
X106150099Y-80587007D01*
X106215925Y-80472993D01*
X106232962Y-80409410D01*
X106864925Y-81041373D01*
X106864926Y-81041373D01*
X106923598Y-80957582D01*
X106923600Y-80957578D01*
X107023429Y-80743492D01*
X107023433Y-80743483D01*
X107084567Y-80515326D01*
X107084569Y-80515315D01*
X107105157Y-80280001D01*
X107105157Y-80279998D01*
X107084569Y-80044684D01*
X107084567Y-80044673D01*
X107023433Y-79816516D01*
X107023429Y-79816507D01*
X106923600Y-79602423D01*
X106923599Y-79602421D01*
X106864925Y-79518626D01*
X106864925Y-79518625D01*
X106232962Y-80150589D01*
X106215925Y-80087007D01*
X106150099Y-79972993D01*
X106057007Y-79879901D01*
X105942993Y-79814075D01*
X105879410Y-79797037D01*
X106511373Y-79165073D01*
X106511373Y-79165072D01*
X106435405Y-79111880D01*
X106391780Y-79057304D01*
X106384586Y-78987805D01*
X106416108Y-78925451D01*
X106435399Y-78908734D01*
X106621401Y-78778495D01*
X106788495Y-78611401D01*
X106924035Y-78417830D01*
X107023903Y-78203663D01*
X107085063Y-77975408D01*
X107105659Y-77740000D01*
X107085063Y-77504592D01*
X107023903Y-77276337D01*
X106924035Y-77062171D01*
X106918425Y-77054158D01*
X106788494Y-76868597D01*
X106621402Y-76701506D01*
X106621401Y-76701505D01*
X106435405Y-76571269D01*
X106391781Y-76516692D01*
X106384588Y-76447193D01*
X106416110Y-76384839D01*
X106435405Y-76368119D01*
X106511373Y-76314925D01*
X105879409Y-75682962D01*
X105942993Y-75665925D01*
X106057007Y-75600099D01*
X106150099Y-75507007D01*
X106215925Y-75392993D01*
X106232962Y-75329410D01*
X106864925Y-75961373D01*
X106864926Y-75961373D01*
X106923598Y-75877582D01*
X106923600Y-75877578D01*
X107023429Y-75663492D01*
X107023433Y-75663483D01*
X107084567Y-75435326D01*
X107084569Y-75435315D01*
X107105157Y-75200001D01*
X107105157Y-75199998D01*
X107084569Y-74964684D01*
X107084567Y-74964673D01*
X107023433Y-74736516D01*
X107023429Y-74736507D01*
X106923600Y-74522423D01*
X106923599Y-74522421D01*
X106864925Y-74438626D01*
X106864925Y-74438625D01*
X106232962Y-75070589D01*
X106215925Y-75007007D01*
X106150099Y-74892993D01*
X106057007Y-74799901D01*
X105942993Y-74734075D01*
X105879410Y-74717037D01*
X106511373Y-74085073D01*
X106511373Y-74085072D01*
X106435405Y-74031880D01*
X106391780Y-73977304D01*
X106384586Y-73907805D01*
X106416108Y-73845451D01*
X106435399Y-73828734D01*
X106621401Y-73698495D01*
X106788495Y-73531401D01*
X106924035Y-73337830D01*
X107023903Y-73123663D01*
X107085063Y-72895408D01*
X107105659Y-72660000D01*
X107085063Y-72424592D01*
X107023903Y-72196337D01*
X106924035Y-71982171D01*
X106918425Y-71974158D01*
X106788494Y-71788597D01*
X106621402Y-71621506D01*
X106621401Y-71621505D01*
X106453844Y-71504180D01*
X106435405Y-71491269D01*
X106391781Y-71436692D01*
X106384588Y-71367193D01*
X106416110Y-71304839D01*
X106435405Y-71288119D01*
X106511373Y-71234925D01*
X105879409Y-70602962D01*
X105942993Y-70585925D01*
X106057007Y-70520099D01*
X106150099Y-70427007D01*
X106215925Y-70312993D01*
X106232962Y-70249410D01*
X106864925Y-70881373D01*
X106864926Y-70881373D01*
X106923598Y-70797582D01*
X106923600Y-70797578D01*
X107023429Y-70583492D01*
X107023433Y-70583483D01*
X107084567Y-70355326D01*
X107084569Y-70355315D01*
X107105157Y-70120001D01*
X107105157Y-70119998D01*
X107084569Y-69884684D01*
X107084567Y-69884673D01*
X107023433Y-69656516D01*
X107023429Y-69656507D01*
X106923600Y-69442423D01*
X106923599Y-69442421D01*
X106864925Y-69358626D01*
X106864925Y-69358625D01*
X106232962Y-69990589D01*
X106215925Y-69927007D01*
X106150099Y-69812993D01*
X106057007Y-69719901D01*
X105942993Y-69654075D01*
X105879410Y-69637037D01*
X106511373Y-69005073D01*
X106511373Y-69005072D01*
X106435405Y-68951880D01*
X106391780Y-68897304D01*
X106384586Y-68827805D01*
X106416108Y-68765451D01*
X106435399Y-68748734D01*
X106621401Y-68618495D01*
X106788495Y-68451401D01*
X106924035Y-68257830D01*
X107023903Y-68043663D01*
X107085063Y-67815408D01*
X107105659Y-67580000D01*
X107085063Y-67344592D01*
X107023903Y-67116337D01*
X106924035Y-66902171D01*
X106918425Y-66894158D01*
X106788494Y-66708597D01*
X106621402Y-66541506D01*
X106621396Y-66541501D01*
X106435842Y-66411575D01*
X106392217Y-66356998D01*
X106385023Y-66287500D01*
X106416546Y-66225145D01*
X106435842Y-66208425D01*
X106565550Y-66117602D01*
X106621401Y-66078495D01*
X106788495Y-65911401D01*
X106924035Y-65717830D01*
X107023903Y-65503663D01*
X107085063Y-65275408D01*
X107105659Y-65040000D01*
X107105659Y-65039999D01*
X107105659Y-65039611D01*
X107105707Y-65039445D01*
X107106131Y-65034606D01*
X107107103Y-65034691D01*
X107125344Y-64972572D01*
X107178148Y-64926817D01*
X107247306Y-64916873D01*
X107310862Y-64945898D01*
X107317329Y-64951920D01*
X107543355Y-65177945D01*
X107948581Y-65583171D01*
X107982066Y-65644494D01*
X107984900Y-65670852D01*
X107984900Y-89003300D01*
X107965215Y-89070339D01*
X107912411Y-89116094D01*
X107860900Y-89127300D01*
X106099213Y-89127300D01*
X106032174Y-89107615D01*
X105986419Y-89054811D01*
X105984654Y-89050757D01*
X105982979Y-89046715D01*
X105982977Y-89046711D01*
X105855462Y-88838626D01*
X105855461Y-88838623D01*
X105783165Y-88753976D01*
X105696959Y-88653041D01*
X105574263Y-88548249D01*
X105511376Y-88494538D01*
X105511373Y-88494537D01*
X105303289Y-88367022D01*
X105077818Y-88273630D01*
X105077821Y-88273630D01*
X104972192Y-88248270D01*
X104840502Y-88216654D01*
X104840500Y-88216653D01*
X104840497Y-88216653D01*
X104597200Y-88197506D01*
X104353902Y-88216653D01*
X104116580Y-88273630D01*
X103891110Y-88367022D01*
X103683026Y-88494537D01*
X103683023Y-88494538D01*
X103497441Y-88653041D01*
X103338938Y-88838623D01*
X103338937Y-88838626D01*
X103211422Y-89046710D01*
X103118030Y-89272180D01*
X103118028Y-89272187D01*
X103118028Y-89272188D01*
X103098082Y-89355266D01*
X103061053Y-89509502D01*
X103041906Y-89752800D01*
X103061053Y-89996097D01*
X103061053Y-89996100D01*
X103061054Y-89996102D01*
X103099284Y-90155340D01*
X103118030Y-90233419D01*
X103211422Y-90458889D01*
X103338937Y-90666973D01*
X103338938Y-90666976D01*
X103370825Y-90704311D01*
X103497441Y-90852559D01*
X103616230Y-90954014D01*
X103683018Y-91011057D01*
X103683019Y-91011058D01*
X103683021Y-91011059D01*
X103737636Y-91044527D01*
X103760527Y-91062573D01*
X104426966Y-91729012D01*
X104384908Y-91740282D01*
X104259492Y-91812690D01*
X104157090Y-91915092D01*
X104084682Y-92040508D01*
X104073412Y-92082565D01*
X103335704Y-91344857D01*
X103211868Y-91546938D01*
X103118503Y-91772342D01*
X103061548Y-92009580D01*
X103042407Y-92252800D01*
X103061548Y-92496019D01*
X103118503Y-92733257D01*
X103211868Y-92958661D01*
X103335704Y-93160741D01*
X104073412Y-92423033D01*
X104084682Y-92465092D01*
X104157090Y-92590508D01*
X104259492Y-92692910D01*
X104384908Y-92765318D01*
X104426965Y-92776587D01*
X103689257Y-93514294D01*
X103891338Y-93638131D01*
X104116742Y-93731496D01*
X104353980Y-93788451D01*
X104353979Y-93788451D01*
X104597200Y-93807592D01*
X104840419Y-93788451D01*
X105077657Y-93731496D01*
X105303061Y-93638131D01*
X105505141Y-93514295D01*
X105505141Y-93514294D01*
X104767435Y-92776587D01*
X104809492Y-92765318D01*
X104934908Y-92692910D01*
X105037310Y-92590508D01*
X105109718Y-92465092D01*
X105120987Y-92423034D01*
X105858694Y-93160741D01*
X105858695Y-93160741D01*
X105982531Y-92958661D01*
X106048250Y-92800000D01*
X157594659Y-92800000D01*
X157613975Y-92996129D01*
X157671188Y-93184733D01*
X157764086Y-93358532D01*
X157764090Y-93358539D01*
X157889116Y-93510883D01*
X158041460Y-93635909D01*
X158041467Y-93635913D01*
X158215266Y-93728811D01*
X158215269Y-93728811D01*
X158215273Y-93728814D01*
X158403868Y-93786024D01*
X158600000Y-93805341D01*
X158796132Y-93786024D01*
X158984727Y-93728814D01*
X159158538Y-93635910D01*
X159310883Y-93510883D01*
X159343750Y-93470835D01*
X159401495Y-93431501D01*
X159439603Y-93425500D01*
X169311607Y-93425500D01*
X169372029Y-93413481D01*
X169432452Y-93401463D01*
X169432455Y-93401461D01*
X169432458Y-93401461D01*
X169465787Y-93387654D01*
X169465786Y-93387654D01*
X169465792Y-93387652D01*
X169546286Y-93354312D01*
X169597509Y-93320084D01*
X169648733Y-93285858D01*
X169735858Y-93198733D01*
X169735858Y-93198731D01*
X169746066Y-93188524D01*
X169746067Y-93188521D01*
X181148607Y-81785982D01*
X181209928Y-81752499D01*
X181248437Y-81750262D01*
X181300000Y-81755341D01*
X181496132Y-81736024D01*
X181684727Y-81678814D01*
X181858538Y-81585910D01*
X182010883Y-81460883D01*
X182135910Y-81308538D01*
X182228814Y-81134727D01*
X182286024Y-80946132D01*
X182305341Y-80750000D01*
X182300262Y-80698437D01*
X182313280Y-80629794D01*
X182335981Y-80598607D01*
X182798729Y-80135860D01*
X182798733Y-80135858D01*
X182885858Y-80048733D01*
X182954311Y-79946286D01*
X182954312Y-79946285D01*
X183001463Y-79832451D01*
X183025500Y-79711607D01*
X183025500Y-79588393D01*
X183025500Y-62417741D01*
X183025501Y-62417720D01*
X183025501Y-62288391D01*
X183001464Y-62167552D01*
X183001461Y-62167543D01*
X182997485Y-62157945D01*
X182997482Y-62157939D01*
X182981932Y-62120398D01*
X182981932Y-62120397D01*
X182954312Y-62053715D01*
X182910462Y-61988090D01*
X182885858Y-61951267D01*
X182885855Y-61951263D01*
X182285984Y-61351394D01*
X182252499Y-61290071D01*
X182250262Y-61251562D01*
X182255341Y-61200000D01*
X182236024Y-61003868D01*
X182178814Y-60815273D01*
X182178811Y-60815269D01*
X182178811Y-60815266D01*
X182085913Y-60641467D01*
X182085909Y-60641460D01*
X181960883Y-60489116D01*
X181808539Y-60364090D01*
X181808532Y-60364086D01*
X181634733Y-60271188D01*
X181634727Y-60271186D01*
X181446132Y-60213976D01*
X181446129Y-60213975D01*
X181250000Y-60194659D01*
X181053870Y-60213975D01*
X180865266Y-60271188D01*
X180691467Y-60364086D01*
X180691460Y-60364090D01*
X180539116Y-60489116D01*
X180414090Y-60641460D01*
X180414086Y-60641467D01*
X180321188Y-60815266D01*
X180263975Y-61003870D01*
X180244659Y-61200000D01*
X180263975Y-61396129D01*
X180275073Y-61432715D01*
X180318154Y-61574733D01*
X180321188Y-61584733D01*
X180414086Y-61758532D01*
X180414090Y-61758539D01*
X180539116Y-61910883D01*
X180691460Y-62035909D01*
X180691467Y-62035913D01*
X180865266Y-62128811D01*
X180865269Y-62128811D01*
X180865273Y-62128814D01*
X181053868Y-62186024D01*
X181250000Y-62205341D01*
X181301560Y-62200262D01*
X181370203Y-62213280D01*
X181401394Y-62235984D01*
X181738181Y-62572771D01*
X181771666Y-62634094D01*
X181774500Y-62660452D01*
X181774500Y-79339547D01*
X181754815Y-79406586D01*
X181738181Y-79427228D01*
X181451394Y-79714014D01*
X181390071Y-79747499D01*
X181351562Y-79749736D01*
X181300003Y-79744659D01*
X181300000Y-79744659D01*
X181103870Y-79763975D01*
X180915266Y-79821188D01*
X180741467Y-79914086D01*
X180741460Y-79914090D01*
X180589116Y-80039116D01*
X180464090Y-80191460D01*
X180464086Y-80191467D01*
X180371188Y-80365266D01*
X180313975Y-80553870D01*
X180294659Y-80750000D01*
X180294659Y-80750001D01*
X180299736Y-80801560D01*
X180286716Y-80870206D01*
X180264014Y-80901393D01*
X169027229Y-92138181D01*
X168965906Y-92171666D01*
X168939548Y-92174500D01*
X159439603Y-92174500D01*
X159372564Y-92154815D01*
X159343750Y-92129165D01*
X159310883Y-92089116D01*
X159158539Y-91964090D01*
X159158532Y-91964086D01*
X158984733Y-91871188D01*
X158984727Y-91871186D01*
X158796132Y-91813976D01*
X158796129Y-91813975D01*
X158600000Y-91794659D01*
X158403870Y-91813975D01*
X158215266Y-91871188D01*
X158041467Y-91964086D01*
X158041460Y-91964090D01*
X157889116Y-92089116D01*
X157764090Y-92241460D01*
X157764086Y-92241467D01*
X157671188Y-92415266D01*
X157613975Y-92603870D01*
X157594659Y-92800000D01*
X106048250Y-92800000D01*
X106075896Y-92733257D01*
X106132851Y-92496019D01*
X106151992Y-92252800D01*
X106132851Y-92009580D01*
X106075896Y-91772342D01*
X105982531Y-91546938D01*
X105858694Y-91344857D01*
X105120987Y-92082564D01*
X105109718Y-92040508D01*
X105037310Y-91915092D01*
X104934908Y-91812690D01*
X104809492Y-91740282D01*
X104767433Y-91729012D01*
X105433870Y-91062574D01*
X105456753Y-91044533D01*
X105511379Y-91011059D01*
X105696959Y-90852559D01*
X105855459Y-90666979D01*
X105982977Y-90458889D01*
X105983081Y-90458637D01*
X105984654Y-90454843D01*
X106028497Y-90400441D01*
X106094792Y-90378379D01*
X106099213Y-90378300D01*
X108548393Y-90378300D01*
X108548394Y-90378300D01*
X131560902Y-90378300D01*
X131627941Y-90397985D01*
X131656754Y-90423634D01*
X131679118Y-90450885D01*
X131831460Y-90575909D01*
X131831467Y-90575913D01*
X132005266Y-90668811D01*
X132005269Y-90668811D01*
X132005273Y-90668814D01*
X132193868Y-90726024D01*
X132390000Y-90745341D01*
X132586132Y-90726024D01*
X132774727Y-90668814D01*
X132778159Y-90666980D01*
X132948532Y-90575913D01*
X132948538Y-90575910D01*
X133100883Y-90450883D01*
X133225910Y-90298538D01*
X133287749Y-90182846D01*
X133318811Y-90124733D01*
X133318811Y-90124732D01*
X133318814Y-90124727D01*
X133376024Y-89936132D01*
X133395341Y-89740000D01*
X138114659Y-89740000D01*
X138133975Y-89936129D01*
X138133976Y-89936132D01*
X138177257Y-90078811D01*
X138191188Y-90124733D01*
X138284086Y-90298532D01*
X138284090Y-90298539D01*
X138409116Y-90450883D01*
X138561460Y-90575909D01*
X138561467Y-90575913D01*
X138735266Y-90668811D01*
X138735269Y-90668811D01*
X138735273Y-90668814D01*
X138923868Y-90726024D01*
X139120000Y-90745341D01*
X139316132Y-90726024D01*
X139504727Y-90668814D01*
X139508159Y-90666980D01*
X139678532Y-90575913D01*
X139678538Y-90575910D01*
X139830883Y-90450883D01*
X139863750Y-90410835D01*
X139921495Y-90371501D01*
X139959603Y-90365500D01*
X142469548Y-90365500D01*
X142536587Y-90385185D01*
X142557224Y-90401814D01*
X142781266Y-90625857D01*
X142883714Y-90694311D01*
X142997548Y-90741463D01*
X143118388Y-90765499D01*
X143118392Y-90765500D01*
X143118393Y-90765500D01*
X143118394Y-90765500D01*
X146425908Y-90765500D01*
X146450098Y-90767882D01*
X146488391Y-90775499D01*
X146488392Y-90775500D01*
X146488393Y-90775500D01*
X163276608Y-90775500D01*
X163276608Y-90775499D01*
X163339802Y-90762930D01*
X163397452Y-90751463D01*
X163458867Y-90726024D01*
X163511286Y-90704312D01*
X163567157Y-90666979D01*
X163613733Y-90635858D01*
X163700858Y-90548733D01*
X163700858Y-90548731D01*
X163711066Y-90538524D01*
X163711068Y-90538521D01*
X164066744Y-90182844D01*
X164128065Y-90149361D01*
X164166574Y-90147124D01*
X164250000Y-90155341D01*
X164446132Y-90136024D01*
X164634727Y-90078814D01*
X164808538Y-89985910D01*
X164960883Y-89860883D01*
X165085910Y-89708538D01*
X165178814Y-89534727D01*
X165236024Y-89346132D01*
X165255341Y-89150000D01*
X165247124Y-89066576D01*
X165260143Y-88997932D01*
X165282843Y-88966745D01*
X168377606Y-85871982D01*
X168438927Y-85838499D01*
X168477435Y-85836262D01*
X168529000Y-85841341D01*
X168725132Y-85822024D01*
X168913727Y-85764814D01*
X169087538Y-85671910D01*
X169239883Y-85546883D01*
X169364910Y-85394538D01*
X169457814Y-85220727D01*
X169515024Y-85032132D01*
X169534341Y-84836000D01*
X169515024Y-84639868D01*
X169457814Y-84451273D01*
X169457811Y-84451269D01*
X169457811Y-84451266D01*
X169364913Y-84277467D01*
X169364909Y-84277460D01*
X169239885Y-84125118D01*
X169199834Y-84092249D01*
X169160500Y-84034503D01*
X169154500Y-83996397D01*
X169154500Y-83622452D01*
X169174185Y-83555413D01*
X169190819Y-83534771D01*
X170792855Y-81932736D01*
X170792857Y-81932734D01*
X170792858Y-81932733D01*
X170861312Y-81830285D01*
X170888932Y-81763603D01*
X170892355Y-81755341D01*
X170908461Y-81716456D01*
X170908463Y-81716452D01*
X170932500Y-81595606D01*
X170932500Y-66117602D01*
X170952185Y-66050563D01*
X170977837Y-66021748D01*
X171017882Y-65988884D01*
X171142909Y-65836539D01*
X171142913Y-65836532D01*
X171235811Y-65662733D01*
X171235811Y-65662732D01*
X171235814Y-65662727D01*
X171293024Y-65474132D01*
X171312341Y-65278000D01*
X171293024Y-65081868D01*
X171235814Y-64893273D01*
X171235811Y-64893269D01*
X171235811Y-64893266D01*
X171142913Y-64719467D01*
X171142909Y-64719460D01*
X171017883Y-64567116D01*
X170865539Y-64442090D01*
X170865532Y-64442086D01*
X170691733Y-64349188D01*
X170691727Y-64349186D01*
X170503132Y-64291976D01*
X170503129Y-64291975D01*
X170307000Y-64272659D01*
X170110869Y-64291975D01*
X169989642Y-64328749D01*
X169956494Y-64338805D01*
X169886629Y-64339428D01*
X169827516Y-64302180D01*
X169797925Y-64238886D01*
X169796500Y-64220144D01*
X169796500Y-61667393D01*
X169789359Y-61631496D01*
X169789359Y-61631495D01*
X169774663Y-61557607D01*
X169772463Y-61546548D01*
X169760974Y-61518811D01*
X169747749Y-61486882D01*
X169725314Y-61432719D01*
X169725313Y-61432717D01*
X169725312Y-61432715D01*
X169695371Y-61387906D01*
X169656858Y-61330267D01*
X169656857Y-61330266D01*
X169656855Y-61330263D01*
X169566637Y-61240045D01*
X169566606Y-61240016D01*
X169540392Y-61213802D01*
X169506907Y-61152479D01*
X169511891Y-61082787D01*
X169532218Y-61047459D01*
X169604210Y-60959738D01*
X169662333Y-60850998D01*
X169697111Y-60785933D01*
X169697111Y-60785932D01*
X169697114Y-60785927D01*
X169754324Y-60597332D01*
X169773641Y-60401200D01*
X169754324Y-60205068D01*
X169697114Y-60016473D01*
X169697111Y-60016469D01*
X169697111Y-60016466D01*
X169604213Y-59842667D01*
X169604209Y-59842660D01*
X169479183Y-59690316D01*
X169326839Y-59565290D01*
X169326832Y-59565286D01*
X169153033Y-59472388D01*
X169153027Y-59472386D01*
X168964432Y-59415176D01*
X168964429Y-59415175D01*
X168768300Y-59395859D01*
X168572170Y-59415175D01*
X168383566Y-59472388D01*
X168209767Y-59565286D01*
X168209760Y-59565290D01*
X168057419Y-59690314D01*
X167975603Y-59790006D01*
X167917856Y-59829340D01*
X167848012Y-59831209D01*
X167788244Y-59795022D01*
X167770608Y-59767298D01*
X167769586Y-59767845D01*
X167673813Y-59588667D01*
X167673809Y-59588660D01*
X167548783Y-59436316D01*
X167396439Y-59311290D01*
X167396432Y-59311286D01*
X167222633Y-59218388D01*
X167222627Y-59218386D01*
X167096897Y-59180246D01*
X167034029Y-59161175D01*
X166837900Y-59141859D01*
X166641770Y-59161175D01*
X166453166Y-59218388D01*
X166279367Y-59311286D01*
X166279360Y-59311290D01*
X166127016Y-59436316D01*
X166001990Y-59588660D01*
X166001986Y-59588667D01*
X165909088Y-59762466D01*
X165851875Y-59951070D01*
X165832559Y-60147200D01*
X165851875Y-60343329D01*
X165909088Y-60531933D01*
X166001986Y-60705732D01*
X166001990Y-60705739D01*
X166127017Y-60858084D01*
X166167063Y-60890948D01*
X166206399Y-60948693D01*
X166212400Y-60986802D01*
X166212400Y-62647210D01*
X166236435Y-62768046D01*
X166236439Y-62768059D01*
X166246287Y-62791832D01*
X166246288Y-62791835D01*
X166283585Y-62881881D01*
X166283590Y-62881890D01*
X166304116Y-62912608D01*
X166304117Y-62912609D01*
X166352041Y-62984332D01*
X166352044Y-62984336D01*
X166443486Y-63075778D01*
X166443508Y-63075798D01*
X167293681Y-63925971D01*
X167327166Y-63987294D01*
X167330000Y-64013652D01*
X167330000Y-68980747D01*
X167310315Y-69047786D01*
X167293681Y-69068428D01*
X166989294Y-69372814D01*
X166927971Y-69406299D01*
X166889462Y-69408536D01*
X166837903Y-69403459D01*
X166837900Y-69403459D01*
X166641770Y-69422775D01*
X166453166Y-69479988D01*
X166279367Y-69572886D01*
X166279360Y-69572890D01*
X166127016Y-69697916D01*
X166001990Y-69850260D01*
X166001986Y-69850267D01*
X165909088Y-70024066D01*
X165851875Y-70212670D01*
X165832559Y-70408800D01*
X165851875Y-70604929D01*
X165909088Y-70793533D01*
X166001986Y-70967332D01*
X166001990Y-70967339D01*
X166127016Y-71119683D01*
X166279360Y-71244709D01*
X166279367Y-71244713D01*
X166453166Y-71337611D01*
X166453169Y-71337611D01*
X166453173Y-71337614D01*
X166641768Y-71394824D01*
X166837900Y-71414141D01*
X167034032Y-71394824D01*
X167222627Y-71337614D01*
X167396438Y-71244710D01*
X167548783Y-71119683D01*
X167673810Y-70967338D01*
X167766714Y-70793527D01*
X167823924Y-70604932D01*
X167843241Y-70408800D01*
X167838162Y-70357237D01*
X167851180Y-70288594D01*
X167873881Y-70257407D01*
X168333819Y-69797470D01*
X168395142Y-69763985D01*
X168464834Y-69768969D01*
X168520767Y-69810841D01*
X168545184Y-69876305D01*
X168545500Y-69885151D01*
X168545500Y-79087395D01*
X168525815Y-79154434D01*
X168473011Y-79200189D01*
X168433654Y-79210798D01*
X168267370Y-79227175D01*
X168078766Y-79284388D01*
X167904967Y-79377286D01*
X167904960Y-79377290D01*
X167752616Y-79502316D01*
X167742398Y-79514767D01*
X167684650Y-79554099D01*
X167614806Y-79555966D01*
X167555039Y-79519776D01*
X167527887Y-79472093D01*
X167514277Y-79427228D01*
X167512714Y-79422073D01*
X167512712Y-79422070D01*
X167512712Y-79422068D01*
X167419813Y-79248267D01*
X167419809Y-79248260D01*
X167294783Y-79095916D01*
X167142439Y-78970890D01*
X167142432Y-78970886D01*
X166968633Y-78877988D01*
X166968627Y-78877986D01*
X166780032Y-78820776D01*
X166780029Y-78820775D01*
X166583900Y-78801459D01*
X166387770Y-78820775D01*
X166199166Y-78877988D01*
X166025367Y-78970886D01*
X166025360Y-78970890D01*
X165873016Y-79095916D01*
X165840150Y-79135965D01*
X165782405Y-79175299D01*
X165744297Y-79181300D01*
X157495184Y-79181300D01*
X157428145Y-79161615D01*
X157399331Y-79135965D01*
X157360883Y-79089116D01*
X157208539Y-78964090D01*
X157208532Y-78964086D01*
X157034733Y-78871188D01*
X157034727Y-78871186D01*
X156908997Y-78833046D01*
X156846129Y-78813975D01*
X156650000Y-78794659D01*
X156453870Y-78813975D01*
X156265266Y-78871188D01*
X156091467Y-78964086D01*
X156091460Y-78964090D01*
X155939116Y-79089116D01*
X155814090Y-79241460D01*
X155814086Y-79241467D01*
X155721188Y-79415266D01*
X155663975Y-79603870D01*
X155644659Y-79800000D01*
X155663975Y-79996129D01*
X155721188Y-80184733D01*
X155814086Y-80358532D01*
X155814090Y-80358539D01*
X155939116Y-80510883D01*
X156091460Y-80635909D01*
X156091467Y-80635913D01*
X156265266Y-80728811D01*
X156265269Y-80728811D01*
X156265273Y-80728814D01*
X156453868Y-80786024D01*
X156650000Y-80805341D01*
X156846132Y-80786024D01*
X157034727Y-80728814D01*
X157208538Y-80635910D01*
X157360883Y-80510883D01*
X157388170Y-80477633D01*
X157445916Y-80438300D01*
X157484023Y-80432300D01*
X165744297Y-80432300D01*
X165811336Y-80451985D01*
X165840150Y-80477635D01*
X165873016Y-80517683D01*
X166025360Y-80642709D01*
X166025367Y-80642713D01*
X166199166Y-80735611D01*
X166199169Y-80735611D01*
X166199173Y-80735614D01*
X166387768Y-80792824D01*
X166583900Y-80812141D01*
X166780032Y-80792824D01*
X166780033Y-80792823D01*
X166783634Y-80792469D01*
X166852280Y-80805488D01*
X166902990Y-80853553D01*
X166919665Y-80921404D01*
X166910350Y-80963322D01*
X166896839Y-80995941D01*
X166896835Y-80995955D01*
X166872800Y-81116789D01*
X166872800Y-81477547D01*
X166853115Y-81544586D01*
X166836481Y-81565228D01*
X163382494Y-85019214D01*
X163321171Y-85052699D01*
X163282662Y-85054936D01*
X163231103Y-85049859D01*
X163231100Y-85049859D01*
X163034970Y-85069175D01*
X162846366Y-85126388D01*
X162672567Y-85219286D01*
X162672560Y-85219290D01*
X162520216Y-85344316D01*
X162395190Y-85496660D01*
X162395186Y-85496667D01*
X162302288Y-85670466D01*
X162245075Y-85859070D01*
X162225759Y-86055200D01*
X162245075Y-86251329D01*
X162302288Y-86439933D01*
X162395186Y-86613732D01*
X162395190Y-86613739D01*
X162520216Y-86766083D01*
X162672560Y-86891109D01*
X162672567Y-86891113D01*
X162846366Y-86984011D01*
X162846369Y-86984011D01*
X162846373Y-86984014D01*
X163034968Y-87041224D01*
X163231100Y-87060541D01*
X163427232Y-87041224D01*
X163615827Y-86984014D01*
X163789638Y-86891110D01*
X163941983Y-86766083D01*
X164067010Y-86613738D01*
X164159914Y-86439927D01*
X164217124Y-86251332D01*
X164236441Y-86055200D01*
X164231362Y-86003637D01*
X164244380Y-85934994D01*
X164267081Y-85903807D01*
X167897029Y-82273860D01*
X167897033Y-82273858D01*
X167984158Y-82186733D01*
X168049922Y-82088311D01*
X168052612Y-82084286D01*
X168099763Y-81970451D01*
X168107266Y-81932733D01*
X168123800Y-81849606D01*
X168123800Y-81488851D01*
X168143485Y-81421812D01*
X168160110Y-81401179D01*
X168312107Y-81249181D01*
X168373427Y-81215699D01*
X168411935Y-81213462D01*
X168463500Y-81218541D01*
X168659632Y-81199224D01*
X168848227Y-81142014D01*
X169022038Y-81049110D01*
X169174383Y-80924083D01*
X169299410Y-80771738D01*
X169368378Y-80642709D01*
X169392311Y-80597933D01*
X169392311Y-80597932D01*
X169392314Y-80597927D01*
X169438840Y-80444550D01*
X169477137Y-80386115D01*
X169540949Y-80357659D01*
X169610016Y-80368219D01*
X169662410Y-80414443D01*
X169681500Y-80480549D01*
X169681500Y-81223547D01*
X169661815Y-81290586D01*
X169645181Y-81311228D01*
X168043144Y-82913264D01*
X168043138Y-82913272D01*
X167974692Y-83015705D01*
X167974684Y-83015719D01*
X167941347Y-83096207D01*
X167935823Y-83109543D01*
X167927537Y-83129545D01*
X167927535Y-83129553D01*
X167903500Y-83250389D01*
X167903500Y-83996397D01*
X167883815Y-84063436D01*
X167858166Y-84092249D01*
X167818114Y-84125118D01*
X167693090Y-84277460D01*
X167693086Y-84277467D01*
X167600188Y-84451266D01*
X167542975Y-84639870D01*
X167523659Y-84836000D01*
X167523659Y-84836002D01*
X167528736Y-84887562D01*
X167515716Y-84956207D01*
X167493014Y-84987394D01*
X164369532Y-88110876D01*
X164308209Y-88144361D01*
X164269702Y-88146598D01*
X164250006Y-88144659D01*
X164250000Y-88144659D01*
X164053870Y-88163975D01*
X163865266Y-88221188D01*
X163691467Y-88314086D01*
X163691460Y-88314090D01*
X163539116Y-88439116D01*
X163414090Y-88591460D01*
X163414086Y-88591467D01*
X163321188Y-88765266D01*
X163263975Y-88953870D01*
X163244659Y-89150000D01*
X163246599Y-89169698D01*
X163233580Y-89238344D01*
X163210877Y-89269532D01*
X162992229Y-89488181D01*
X162930906Y-89521666D01*
X162904548Y-89524500D01*
X146664092Y-89524500D01*
X146639901Y-89522117D01*
X146624056Y-89518965D01*
X146601608Y-89514500D01*
X146601607Y-89514500D01*
X146601606Y-89514500D01*
X143490453Y-89514500D01*
X143423414Y-89494815D01*
X143402776Y-89478185D01*
X143265859Y-89341269D01*
X143265858Y-89341267D01*
X143178733Y-89254142D01*
X143178732Y-89254141D01*
X143178731Y-89254140D01*
X143127509Y-89219915D01*
X143076287Y-89185689D01*
X143076286Y-89185688D01*
X143076283Y-89185686D01*
X143076280Y-89185685D01*
X142988976Y-89149523D01*
X142988976Y-89149524D01*
X142988974Y-89149523D01*
X142962452Y-89138537D01*
X142902029Y-89126518D01*
X142841610Y-89114500D01*
X142841607Y-89114500D01*
X142841606Y-89114500D01*
X139959603Y-89114500D01*
X139892564Y-89094815D01*
X139863750Y-89069165D01*
X139830883Y-89029116D01*
X139678539Y-88904090D01*
X139678532Y-88904086D01*
X139504733Y-88811188D01*
X139504727Y-88811186D01*
X139316132Y-88753976D01*
X139316129Y-88753975D01*
X139120000Y-88734659D01*
X138923870Y-88753975D01*
X138735266Y-88811188D01*
X138561467Y-88904086D01*
X138561460Y-88904090D01*
X138409116Y-89029116D01*
X138284090Y-89181460D01*
X138284086Y-89181467D01*
X138191188Y-89355266D01*
X138133975Y-89543870D01*
X138114659Y-89740000D01*
X133395341Y-89740000D01*
X133376024Y-89543868D01*
X133318814Y-89355273D01*
X133318811Y-89355269D01*
X133318811Y-89355266D01*
X133225913Y-89181467D01*
X133225909Y-89181460D01*
X133100883Y-89029116D01*
X132948539Y-88904090D01*
X132948532Y-88904086D01*
X132774733Y-88811188D01*
X132774727Y-88811186D01*
X132586132Y-88753976D01*
X132586129Y-88753975D01*
X132390000Y-88734659D01*
X132193870Y-88753975D01*
X132005266Y-88811188D01*
X131831467Y-88904086D01*
X131831460Y-88904090D01*
X131679116Y-89029116D01*
X131635745Y-89081965D01*
X131577999Y-89121299D01*
X131539892Y-89127300D01*
X109359900Y-89127300D01*
X109292861Y-89107615D01*
X109247106Y-89054811D01*
X109235900Y-89003300D01*
X109235900Y-74295000D01*
X133233659Y-74295000D01*
X133252975Y-74491129D01*
X133252976Y-74491132D01*
X133309055Y-74676000D01*
X133310188Y-74679733D01*
X133403086Y-74853532D01*
X133403090Y-74853539D01*
X133528116Y-75005883D01*
X133680459Y-75130908D01*
X133680467Y-75130913D01*
X133854266Y-75223811D01*
X133854269Y-75223811D01*
X133854273Y-75223814D01*
X134042868Y-75281024D01*
X134239000Y-75300341D01*
X134435132Y-75281024D01*
X134623727Y-75223814D01*
X134631172Y-75219835D01*
X134760959Y-75150462D01*
X134797538Y-75130910D01*
X134797539Y-75130908D01*
X134797541Y-75130908D01*
X134949883Y-75005883D01*
X135074909Y-74853539D01*
X135074911Y-74853536D01*
X135088781Y-74827587D01*
X135137743Y-74777742D01*
X135205880Y-74762281D01*
X135271560Y-74786112D01*
X135313930Y-74841669D01*
X135316800Y-74850043D01*
X135342186Y-74933728D01*
X135435086Y-75107532D01*
X135435090Y-75107539D01*
X135560116Y-75259883D01*
X135712460Y-75384909D01*
X135712467Y-75384913D01*
X135886266Y-75477811D01*
X135886269Y-75477811D01*
X135886273Y-75477814D01*
X136074868Y-75535024D01*
X136271000Y-75554341D01*
X136467132Y-75535024D01*
X136655727Y-75477814D01*
X136829538Y-75384910D01*
X136981883Y-75259883D01*
X137014750Y-75219835D01*
X137072495Y-75180501D01*
X137110603Y-75174500D01*
X142301608Y-75174500D01*
X142301608Y-75174499D01*
X142365164Y-75161858D01*
X142422452Y-75150463D01*
X142469657Y-75130910D01*
X142536286Y-75103312D01*
X142600017Y-75060727D01*
X142638733Y-75034858D01*
X142725858Y-74947733D01*
X142725859Y-74947731D01*
X142732925Y-74940665D01*
X142732928Y-74940661D01*
X145528597Y-72144991D01*
X145589918Y-72111508D01*
X145659610Y-72116492D01*
X145715543Y-72158364D01*
X145734936Y-72196678D01*
X145756186Y-72266728D01*
X145849086Y-72440532D01*
X145849090Y-72440539D01*
X145974116Y-72592883D01*
X146126460Y-72717909D01*
X146126467Y-72717913D01*
X146300266Y-72810811D01*
X146300269Y-72810811D01*
X146300273Y-72810814D01*
X146488868Y-72868024D01*
X146685000Y-72887341D01*
X146736560Y-72882262D01*
X146805203Y-72895280D01*
X146836394Y-72917984D01*
X148462132Y-74543723D01*
X148495617Y-74605046D01*
X148497854Y-74643557D01*
X148494659Y-74675999D01*
X148513975Y-74872129D01*
X148513976Y-74872132D01*
X148571184Y-75060722D01*
X148571188Y-75060733D01*
X148664086Y-75234532D01*
X148664090Y-75234539D01*
X148789116Y-75386883D01*
X148941460Y-75511909D01*
X148941467Y-75511913D01*
X149115266Y-75604811D01*
X149115269Y-75604811D01*
X149115273Y-75604814D01*
X149303868Y-75662024D01*
X149500000Y-75681341D01*
X149696132Y-75662024D01*
X149884727Y-75604814D01*
X150058538Y-75511910D01*
X150210883Y-75386883D01*
X150335910Y-75234538D01*
X150391301Y-75130908D01*
X150428811Y-75060733D01*
X150428811Y-75060732D01*
X150428814Y-75060727D01*
X150486024Y-74872132D01*
X150505341Y-74676000D01*
X150486024Y-74479868D01*
X150428814Y-74291273D01*
X150428811Y-74291269D01*
X150428811Y-74291266D01*
X150335913Y-74117467D01*
X150335909Y-74117460D01*
X150210883Y-73965116D01*
X150058539Y-73840090D01*
X150058532Y-73840086D01*
X149884733Y-73747188D01*
X149884727Y-73747186D01*
X149696132Y-73689976D01*
X149696129Y-73689975D01*
X149500000Y-73670659D01*
X149499999Y-73670659D01*
X149429321Y-73677619D01*
X149360675Y-73664599D01*
X149329488Y-73641897D01*
X147720984Y-72033394D01*
X147687499Y-71972071D01*
X147685262Y-71933562D01*
X147690341Y-71882000D01*
X147671024Y-71685868D01*
X147613814Y-71497273D01*
X147581433Y-71436692D01*
X147573219Y-71421324D01*
X147558977Y-71352921D01*
X147583977Y-71287678D01*
X147635123Y-71248311D01*
X147679786Y-71229812D01*
X147731009Y-71195584D01*
X147782233Y-71161358D01*
X147869358Y-71074233D01*
X147869359Y-71074231D01*
X147876425Y-71067165D01*
X147876428Y-71067161D01*
X149835606Y-69107982D01*
X149896927Y-69074499D01*
X149935435Y-69072262D01*
X149987000Y-69077341D01*
X150183132Y-69058024D01*
X150371727Y-69000814D01*
X150545538Y-68907910D01*
X150697883Y-68782883D01*
X150822910Y-68630538D01*
X150915814Y-68456727D01*
X150973024Y-68268132D01*
X150992341Y-68072000D01*
X150973024Y-67875868D01*
X150915814Y-67687273D01*
X150915811Y-67687269D01*
X150915811Y-67687266D01*
X150822913Y-67513467D01*
X150822909Y-67513460D01*
X150697883Y-67361116D01*
X150545539Y-67236090D01*
X150545532Y-67236086D01*
X150371733Y-67143188D01*
X150371727Y-67143186D01*
X150183132Y-67085976D01*
X150183129Y-67085975D01*
X149987000Y-67066659D01*
X149790870Y-67085975D01*
X149602266Y-67143188D01*
X149428467Y-67236086D01*
X149428460Y-67236090D01*
X149276116Y-67361116D01*
X149151090Y-67513460D01*
X149151086Y-67513467D01*
X149058188Y-67687266D01*
X149000975Y-67875870D01*
X148981659Y-68072000D01*
X148981659Y-68072002D01*
X148986736Y-68123562D01*
X148973716Y-68192207D01*
X148951014Y-68223394D01*
X147160729Y-70013681D01*
X147099406Y-70047166D01*
X147073048Y-70050000D01*
X146852438Y-70050000D01*
X146785399Y-70030315D01*
X146739644Y-69977511D01*
X146729700Y-69908353D01*
X146732290Y-69897354D01*
X146732089Y-69897311D01*
X146733506Y-69890690D01*
X146743999Y-69787986D01*
X146744000Y-69787973D01*
X146744000Y-69338000D01*
X145543000Y-69338000D01*
X145475961Y-69318315D01*
X145430206Y-69265511D01*
X145419000Y-69214000D01*
X145419000Y-67688000D01*
X145919000Y-67688000D01*
X145919000Y-68838000D01*
X146743999Y-68838000D01*
X146743999Y-68388028D01*
X146743998Y-68388013D01*
X146733505Y-68285302D01*
X146678358Y-68118880D01*
X146678356Y-68118875D01*
X146586315Y-67969654D01*
X146462345Y-67845684D01*
X146313124Y-67753643D01*
X146313119Y-67753641D01*
X146146697Y-67698494D01*
X146146690Y-67698493D01*
X146043986Y-67688000D01*
X145919000Y-67688000D01*
X145419000Y-67688000D01*
X145294027Y-67688000D01*
X145294012Y-67688001D01*
X145191302Y-67698494D01*
X145024880Y-67753641D01*
X145024875Y-67753643D01*
X144875654Y-67845684D01*
X144751684Y-67969654D01*
X144659640Y-68118881D01*
X144656590Y-68125423D01*
X144654143Y-68124282D01*
X144621474Y-68171457D01*
X144556956Y-68198273D01*
X144543551Y-68199000D01*
X143844975Y-68199000D01*
X143777936Y-68179315D01*
X143732181Y-68126511D01*
X143730629Y-68122562D01*
X143728815Y-68118670D01*
X143728814Y-68118666D01*
X143636712Y-67969344D01*
X143512656Y-67845288D01*
X143363334Y-67753186D01*
X143196797Y-67698001D01*
X143196795Y-67698000D01*
X143094010Y-67687500D01*
X142343998Y-67687500D01*
X142343980Y-67687501D01*
X142241203Y-67698000D01*
X142241200Y-67698001D01*
X142074668Y-67753185D01*
X142074663Y-67753187D01*
X141925342Y-67845289D01*
X141801289Y-67969342D01*
X141709187Y-68118663D01*
X141709185Y-68118668D01*
X141707325Y-68124282D01*
X141664835Y-68252505D01*
X141625064Y-68309949D01*
X141560549Y-68336772D01*
X141547131Y-68337500D01*
X141362500Y-68337500D01*
X141295461Y-68317815D01*
X141249706Y-68265011D01*
X141238500Y-68213500D01*
X141238500Y-64774394D01*
X141230644Y-64734900D01*
X141227574Y-64719467D01*
X141214464Y-64653555D01*
X141214463Y-64653548D01*
X141167311Y-64539714D01*
X141167310Y-64539713D01*
X141167307Y-64539707D01*
X141098858Y-64437267D01*
X141098855Y-64437263D01*
X141094819Y-64433227D01*
X141061334Y-64371904D01*
X141058500Y-64345546D01*
X141058500Y-63776452D01*
X141078185Y-63709413D01*
X141094819Y-63688771D01*
X141795772Y-62987819D01*
X141857095Y-62954334D01*
X141883453Y-62951500D01*
X141918397Y-62951500D01*
X141985436Y-62971185D01*
X142014250Y-62996835D01*
X142047116Y-63036883D01*
X142199460Y-63161909D01*
X142199467Y-63161913D01*
X142373266Y-63254811D01*
X142373269Y-63254811D01*
X142373273Y-63254814D01*
X142561868Y-63312024D01*
X142562685Y-63312104D01*
X142563088Y-63312267D01*
X142567843Y-63313213D01*
X142567663Y-63314114D01*
X142627474Y-63338257D01*
X142667840Y-63395287D01*
X142672161Y-63411316D01*
X142681536Y-63458446D01*
X142681540Y-63458461D01*
X142728685Y-63572280D01*
X142728690Y-63572289D01*
X142762781Y-63623308D01*
X142762782Y-63623310D01*
X142797140Y-63674731D01*
X142797141Y-63674732D01*
X142797142Y-63674733D01*
X142884267Y-63761858D01*
X142884268Y-63761858D01*
X142891335Y-63768925D01*
X142891334Y-63768925D01*
X142891338Y-63768928D01*
X144484263Y-65361855D01*
X144484267Y-65361858D01*
X144586710Y-65430309D01*
X144586711Y-65430309D01*
X144586715Y-65430312D01*
X144653396Y-65457931D01*
X144653398Y-65457933D01*
X144692499Y-65474129D01*
X144700548Y-65477463D01*
X144720597Y-65481451D01*
X144754196Y-65488134D01*
X144821392Y-65501501D01*
X144821394Y-65501501D01*
X144950721Y-65501501D01*
X144950741Y-65501500D01*
X146132607Y-65501500D01*
X146193029Y-65489481D01*
X146253452Y-65477463D01*
X146291990Y-65461500D01*
X146367286Y-65430312D01*
X146427150Y-65390311D01*
X146469733Y-65361858D01*
X146556858Y-65274733D01*
X146556858Y-65274731D01*
X146567066Y-65264524D01*
X146567067Y-65264521D01*
X147415772Y-64415819D01*
X147477095Y-64382334D01*
X147503453Y-64379500D01*
X149906607Y-64379500D01*
X149967029Y-64367481D01*
X150027452Y-64355463D01*
X150075099Y-64335727D01*
X150141286Y-64308312D01*
X150195201Y-64272286D01*
X150243733Y-64239858D01*
X150330858Y-64152733D01*
X150330859Y-64152730D01*
X150337925Y-64145665D01*
X150337928Y-64145661D01*
X152501729Y-61981860D01*
X152501733Y-61981858D01*
X152588858Y-61894733D01*
X152657311Y-61792286D01*
X152704463Y-61678452D01*
X152722119Y-61589687D01*
X152728500Y-61557607D01*
X152728500Y-61434393D01*
X152728500Y-59075602D01*
X152748185Y-59008563D01*
X152773837Y-58979748D01*
X152813882Y-58946884D01*
X152891900Y-58851820D01*
X152938910Y-58794538D01*
X153017128Y-58648203D01*
X153031811Y-58620733D01*
X153031811Y-58620732D01*
X153031814Y-58620727D01*
X153089024Y-58432132D01*
X153108341Y-58236000D01*
X153089024Y-58039868D01*
X153031814Y-57851273D01*
X153031811Y-57851269D01*
X153031811Y-57851266D01*
X152938913Y-57677467D01*
X152938909Y-57677460D01*
X152813883Y-57525116D01*
X152661539Y-57400090D01*
X152661532Y-57400086D01*
X152487733Y-57307188D01*
X152487727Y-57307186D01*
X152299132Y-57249976D01*
X152299129Y-57249975D01*
X152103000Y-57230659D01*
X151906870Y-57249975D01*
X151718266Y-57307188D01*
X151544467Y-57400086D01*
X151544460Y-57400090D01*
X151392116Y-57525116D01*
X151267090Y-57677460D01*
X151267086Y-57677467D01*
X151174188Y-57851266D01*
X151116975Y-58039870D01*
X151097659Y-58236000D01*
X151116975Y-58432129D01*
X151174188Y-58620733D01*
X151267086Y-58794532D01*
X151267090Y-58794539D01*
X151392117Y-58946884D01*
X151432163Y-58979748D01*
X151471499Y-59037493D01*
X151477500Y-59075602D01*
X151477500Y-61185548D01*
X151457815Y-61252587D01*
X151441181Y-61273229D01*
X149622229Y-63092181D01*
X149560906Y-63125666D01*
X149534548Y-63128500D01*
X147264451Y-63128500D01*
X147197412Y-63108815D01*
X147151657Y-63056011D01*
X147141713Y-62986853D01*
X147170738Y-62923297D01*
X147176770Y-62916819D01*
X147758694Y-62334895D01*
X148542783Y-61550806D01*
X148604104Y-61517323D01*
X148673796Y-61522307D01*
X148709127Y-61542636D01*
X148854460Y-61661909D01*
X148854467Y-61661913D01*
X149028266Y-61754811D01*
X149028269Y-61754811D01*
X149028273Y-61754814D01*
X149216868Y-61812024D01*
X149413000Y-61831341D01*
X149609132Y-61812024D01*
X149797727Y-61754814D01*
X149798474Y-61754415D01*
X149961280Y-61667393D01*
X149971538Y-61661910D01*
X150123883Y-61536883D01*
X150248910Y-61384538D01*
X150324488Y-61243142D01*
X150341811Y-61210733D01*
X150341811Y-61210732D01*
X150341814Y-61210727D01*
X150399024Y-61022132D01*
X150418341Y-60826000D01*
X150399024Y-60629868D01*
X150341814Y-60441273D01*
X150341811Y-60441269D01*
X150341811Y-60441266D01*
X150248913Y-60267467D01*
X150248909Y-60267460D01*
X150123883Y-60115116D01*
X149971539Y-59990090D01*
X149971532Y-59990086D01*
X149797733Y-59897188D01*
X149797727Y-59897186D01*
X149609132Y-59839976D01*
X149609129Y-59839975D01*
X149413000Y-59820659D01*
X149216870Y-59839975D01*
X149028266Y-59897188D01*
X148854467Y-59990086D01*
X148854460Y-59990090D01*
X148702116Y-60115116D01*
X148669250Y-60155165D01*
X148611505Y-60194499D01*
X148573397Y-60200500D01*
X148321394Y-60200500D01*
X148200548Y-60224537D01*
X148174026Y-60235523D01*
X148174024Y-60235524D01*
X148174023Y-60235523D01*
X148086717Y-60271686D01*
X148086708Y-60271691D01*
X147984267Y-60340141D01*
X147984263Y-60340144D01*
X146805967Y-61518440D01*
X146750737Y-61548597D01*
X146740243Y-61581093D01*
X146725440Y-61598967D01*
X145384394Y-62940014D01*
X145323071Y-62973499D01*
X145284562Y-62975736D01*
X145233003Y-62970659D01*
X145233000Y-62970659D01*
X145036870Y-62989975D01*
X144848266Y-63047188D01*
X144674467Y-63140086D01*
X144674460Y-63140090D01*
X144522119Y-63265114D01*
X144444199Y-63360059D01*
X144386453Y-63399393D01*
X144316608Y-63401262D01*
X144260665Y-63369074D01*
X143944819Y-63053228D01*
X143911334Y-62991905D01*
X143908500Y-62965547D01*
X143908500Y-62789392D01*
X143900412Y-62748735D01*
X143900411Y-62748728D01*
X143892854Y-62710729D01*
X143884464Y-62668552D01*
X143884462Y-62668546D01*
X143870652Y-62635207D01*
X143870650Y-62635203D01*
X143837311Y-62554712D01*
X143812876Y-62518144D01*
X143800752Y-62500000D01*
X143795049Y-62491464D01*
X143774172Y-62424790D01*
X143792656Y-62357410D01*
X143810467Y-62334899D01*
X144390951Y-61754416D01*
X144473084Y-61631495D01*
X144529658Y-61494913D01*
X144541207Y-61436854D01*
X144558500Y-61349920D01*
X144558500Y-60787867D01*
X144578185Y-60720828D01*
X144597385Y-60699656D01*
X144596548Y-60698819D01*
X144601653Y-60693713D01*
X144601656Y-60693712D01*
X144669117Y-60626250D01*
X144730436Y-60592768D01*
X144800128Y-60597752D01*
X144856062Y-60639623D01*
X144880198Y-60701780D01*
X144896975Y-60872129D01*
X144911425Y-60919763D01*
X144936204Y-61001450D01*
X144954188Y-61060733D01*
X145047086Y-61234532D01*
X145047090Y-61234539D01*
X145172116Y-61386883D01*
X145324460Y-61511909D01*
X145324467Y-61511913D01*
X145498266Y-61604811D01*
X145498269Y-61604811D01*
X145498273Y-61604814D01*
X145686868Y-61662024D01*
X145883000Y-61681341D01*
X146079132Y-61662024D01*
X146267727Y-61604814D01*
X146296030Y-61589686D01*
X146368765Y-61550808D01*
X146441538Y-61511910D01*
X146559096Y-61415431D01*
X146604010Y-61396356D01*
X146609454Y-61371332D01*
X146622425Y-61352103D01*
X146718910Y-61234538D01*
X146811814Y-61060727D01*
X146869024Y-60872132D01*
X146888341Y-60676000D01*
X146869024Y-60479868D01*
X146811814Y-60291273D01*
X146811811Y-60291269D01*
X146811811Y-60291266D01*
X146718913Y-60117467D01*
X146718909Y-60117460D01*
X146593885Y-59965118D01*
X146553834Y-59932249D01*
X146514500Y-59874503D01*
X146508500Y-59836397D01*
X146508500Y-59115602D01*
X146528185Y-59048563D01*
X146553837Y-59019748D01*
X146593882Y-58986884D01*
X146599739Y-58979748D01*
X146718910Y-58834538D01*
X146773566Y-58732284D01*
X146811811Y-58660733D01*
X146811811Y-58660732D01*
X146811814Y-58660727D01*
X146869024Y-58472132D01*
X146888341Y-58276000D01*
X146869024Y-58079868D01*
X146811814Y-57891273D01*
X146811811Y-57891269D01*
X146811811Y-57891266D01*
X146718913Y-57717467D01*
X146718909Y-57717460D01*
X146593883Y-57565116D01*
X146441539Y-57440090D01*
X146441532Y-57440086D01*
X146267733Y-57347188D01*
X146267727Y-57347186D01*
X146079132Y-57289976D01*
X146079129Y-57289975D01*
X145883000Y-57270659D01*
X145831439Y-57275737D01*
X145762793Y-57262718D01*
X145731605Y-57240015D01*
X145307319Y-56815729D01*
X145273834Y-56754406D01*
X145271000Y-56728048D01*
X145271000Y-55840215D01*
X145290685Y-55773176D01*
X145343489Y-55727421D01*
X145412647Y-55717477D01*
X145453453Y-55730857D01*
X145498273Y-55754814D01*
X145686868Y-55812024D01*
X145883000Y-55831341D01*
X146079132Y-55812024D01*
X146267727Y-55754814D01*
X146312546Y-55730858D01*
X146441532Y-55661913D01*
X146441538Y-55661910D01*
X146593883Y-55536883D01*
X146604465Y-55523989D01*
X146626750Y-55496835D01*
X146684495Y-55457501D01*
X146722603Y-55451500D01*
X147580570Y-55451500D01*
X147647609Y-55471185D01*
X147693364Y-55523989D01*
X147703973Y-55587650D01*
X147702659Y-55600995D01*
X147702659Y-55600999D01*
X147721975Y-55797129D01*
X147721976Y-55797132D01*
X147777488Y-55980131D01*
X147779188Y-55985733D01*
X147872086Y-56159532D01*
X147872090Y-56159539D01*
X147997116Y-56311883D01*
X148149460Y-56436909D01*
X148149467Y-56436913D01*
X148323266Y-56529811D01*
X148323269Y-56529811D01*
X148323273Y-56529814D01*
X148511868Y-56587024D01*
X148708000Y-56606341D01*
X148904132Y-56587024D01*
X149092727Y-56529814D01*
X149266538Y-56436910D01*
X149418883Y-56311883D01*
X149543910Y-56159538D01*
X149636814Y-55985727D01*
X149694024Y-55797132D01*
X149713341Y-55601000D01*
X149694024Y-55404868D01*
X149636814Y-55216273D01*
X149636811Y-55216269D01*
X149636811Y-55216266D01*
X149543913Y-55042467D01*
X149543909Y-55042460D01*
X149418883Y-54890116D01*
X149266539Y-54765090D01*
X149266532Y-54765086D01*
X149092733Y-54672188D01*
X149092727Y-54672186D01*
X148904132Y-54614976D01*
X148904129Y-54614975D01*
X148708000Y-54595659D01*
X148656439Y-54600737D01*
X148587793Y-54587718D01*
X148556605Y-54565015D01*
X148425928Y-54434338D01*
X148425925Y-54434334D01*
X148425925Y-54434335D01*
X148418858Y-54427268D01*
X148418858Y-54427267D01*
X148331733Y-54340142D01*
X148331732Y-54340141D01*
X148331731Y-54340140D01*
X148280509Y-54305915D01*
X148255814Y-54289414D01*
X148229286Y-54271688D01*
X148229283Y-54271686D01*
X148229280Y-54271685D01*
X148141976Y-54235523D01*
X148141976Y-54235524D01*
X148141974Y-54235523D01*
X148115452Y-54224537D01*
X148055029Y-54212518D01*
X147994610Y-54200500D01*
X147994607Y-54200500D01*
X147994606Y-54200500D01*
X146722603Y-54200500D01*
X146655564Y-54180815D01*
X146626750Y-54155165D01*
X146593883Y-54115116D01*
X146441539Y-53990090D01*
X146441532Y-53990086D01*
X146267733Y-53897188D01*
X146267727Y-53897186D01*
X146079132Y-53839976D01*
X146079129Y-53839975D01*
X145883000Y-53820659D01*
X145686870Y-53839975D01*
X145498266Y-53897188D01*
X145453453Y-53921142D01*
X145385050Y-53935384D01*
X145319806Y-53910384D01*
X145278436Y-53854079D01*
X145271000Y-53811784D01*
X145271000Y-53536610D01*
X186951000Y-53536610D01*
X186975723Y-53692710D01*
X186978098Y-53707701D01*
X187031627Y-53872445D01*
X187110268Y-54026788D01*
X187212086Y-54166928D01*
X187334572Y-54289414D01*
X187474712Y-54391232D01*
X187629055Y-54469873D01*
X187793799Y-54523402D01*
X187964889Y-54550500D01*
X187964890Y-54550500D01*
X188138110Y-54550500D01*
X188138111Y-54550500D01*
X188309201Y-54523402D01*
X188473945Y-54469873D01*
X188628288Y-54391232D01*
X188768428Y-54289414D01*
X188890914Y-54166928D01*
X188992732Y-54026788D01*
X189071373Y-53872445D01*
X189124902Y-53707701D01*
X189152000Y-53536611D01*
X189152000Y-53536610D01*
X193951000Y-53536610D01*
X193975723Y-53692710D01*
X193978098Y-53707701D01*
X194031627Y-53872445D01*
X194110268Y-54026788D01*
X194212086Y-54166928D01*
X194334572Y-54289414D01*
X194474712Y-54391232D01*
X194629055Y-54469873D01*
X194793799Y-54523402D01*
X194964889Y-54550500D01*
X194964890Y-54550500D01*
X195138110Y-54550500D01*
X195138111Y-54550500D01*
X195309201Y-54523402D01*
X195473945Y-54469873D01*
X195628288Y-54391232D01*
X195768428Y-54289414D01*
X195890914Y-54166928D01*
X195992732Y-54026788D01*
X196071373Y-53872445D01*
X196124902Y-53707701D01*
X196152000Y-53536611D01*
X196152000Y-53363389D01*
X196124902Y-53192299D01*
X196071373Y-53027555D01*
X195992732Y-52873212D01*
X195890914Y-52733072D01*
X195768428Y-52610586D01*
X195628288Y-52508768D01*
X195473945Y-52430127D01*
X195309201Y-52376598D01*
X195309199Y-52376597D01*
X195309198Y-52376597D01*
X195177771Y-52355781D01*
X195138111Y-52349500D01*
X194964889Y-52349500D01*
X194925228Y-52355781D01*
X194793802Y-52376597D01*
X194629052Y-52430128D01*
X194474711Y-52508768D01*
X194394756Y-52566859D01*
X194334572Y-52610586D01*
X194334570Y-52610588D01*
X194334569Y-52610588D01*
X194212088Y-52733069D01*
X194212088Y-52733070D01*
X194212086Y-52733072D01*
X194174115Y-52785334D01*
X194110268Y-52873211D01*
X194031628Y-53027552D01*
X193978097Y-53192302D01*
X193951000Y-53363389D01*
X193951000Y-53536610D01*
X189152000Y-53536610D01*
X189152000Y-53363389D01*
X189124902Y-53192299D01*
X189071373Y-53027555D01*
X188992732Y-52873212D01*
X188890914Y-52733072D01*
X188768428Y-52610586D01*
X188628288Y-52508768D01*
X188473945Y-52430127D01*
X188309201Y-52376598D01*
X188309199Y-52376597D01*
X188309198Y-52376597D01*
X188177771Y-52355781D01*
X188138111Y-52349500D01*
X187964889Y-52349500D01*
X187925228Y-52355781D01*
X187793802Y-52376597D01*
X187629052Y-52430128D01*
X187474711Y-52508768D01*
X187394756Y-52566859D01*
X187334572Y-52610586D01*
X187334570Y-52610588D01*
X187334569Y-52610588D01*
X187212088Y-52733069D01*
X187212088Y-52733070D01*
X187212086Y-52733072D01*
X187174115Y-52785334D01*
X187110268Y-52873211D01*
X187031628Y-53027552D01*
X186978097Y-53192302D01*
X186951000Y-53363389D01*
X186951000Y-53536610D01*
X145271000Y-53536610D01*
X145271000Y-53264939D01*
X145290685Y-53197900D01*
X145340210Y-53154642D01*
X145340187Y-53154605D01*
X145340411Y-53154466D01*
X145342600Y-53152555D01*
X145346327Y-53150816D01*
X145346334Y-53150814D01*
X145495656Y-53058712D01*
X145619712Y-52934656D01*
X145711814Y-52785334D01*
X145711816Y-52785326D01*
X145714864Y-52778791D01*
X145717252Y-52779904D01*
X145750054Y-52732541D01*
X145814573Y-52705726D01*
X145827975Y-52705000D01*
X146526551Y-52705000D01*
X146593590Y-52724685D01*
X146639345Y-52777489D01*
X146640746Y-52781057D01*
X146642640Y-52785118D01*
X146734684Y-52934345D01*
X146858654Y-53058315D01*
X147007875Y-53150356D01*
X147007880Y-53150358D01*
X147174302Y-53205505D01*
X147174309Y-53205506D01*
X147277019Y-53215999D01*
X147401999Y-53215999D01*
X147402000Y-53215998D01*
X147402000Y-52066000D01*
X147902000Y-52066000D01*
X147902000Y-53215999D01*
X148026972Y-53215999D01*
X148026986Y-53215998D01*
X148129697Y-53205505D01*
X148296119Y-53150358D01*
X148296124Y-53150356D01*
X148445345Y-53058315D01*
X148569315Y-52934345D01*
X148661356Y-52785124D01*
X148661358Y-52785119D01*
X148716505Y-52618697D01*
X148716506Y-52618690D01*
X148726999Y-52515986D01*
X148727000Y-52515973D01*
X148727000Y-52066000D01*
X147902000Y-52066000D01*
X147402000Y-52066000D01*
X147402000Y-50416000D01*
X147902000Y-50416000D01*
X147902000Y-51566000D01*
X148726999Y-51566000D01*
X148726999Y-51116028D01*
X148726998Y-51116013D01*
X148716505Y-51013302D01*
X148661358Y-50846880D01*
X148661356Y-50846875D01*
X148569315Y-50697654D01*
X148445345Y-50573684D01*
X148296124Y-50481643D01*
X148296119Y-50481641D01*
X148129697Y-50426494D01*
X148129690Y-50426493D01*
X148026986Y-50416000D01*
X147902000Y-50416000D01*
X147402000Y-50416000D01*
X147277027Y-50416000D01*
X147277012Y-50416001D01*
X147174302Y-50426494D01*
X147007880Y-50481641D01*
X147007875Y-50481643D01*
X146858654Y-50573684D01*
X146734684Y-50697654D01*
X146642640Y-50846881D01*
X146639590Y-50853423D01*
X146637143Y-50852282D01*
X146604474Y-50899457D01*
X146539956Y-50926273D01*
X146526551Y-50927000D01*
X145827975Y-50927000D01*
X145760936Y-50907315D01*
X145715181Y-50854511D01*
X145713629Y-50850562D01*
X145711815Y-50846670D01*
X145711814Y-50846666D01*
X145619712Y-50697344D01*
X145495656Y-50573288D01*
X145346334Y-50481186D01*
X145179797Y-50426001D01*
X145179795Y-50426000D01*
X145077010Y-50415500D01*
X144326998Y-50415500D01*
X144326980Y-50415501D01*
X144224203Y-50426000D01*
X144224200Y-50426001D01*
X144057668Y-50481185D01*
X144057663Y-50481187D01*
X143908342Y-50573289D01*
X143784289Y-50697342D01*
X143692187Y-50846663D01*
X143692185Y-50846668D01*
X143690895Y-50850562D01*
X143637001Y-51013203D01*
X143637001Y-51013204D01*
X143637000Y-51013204D01*
X143626500Y-51115983D01*
X143626500Y-52516001D01*
X143626501Y-52516018D01*
X143637000Y-52618796D01*
X143637001Y-52618799D01*
X143663909Y-52700000D01*
X143692186Y-52785334D01*
X143784288Y-52934656D01*
X143908344Y-53058712D01*
X143961096Y-53091249D01*
X144007821Y-53143196D01*
X144020000Y-53196788D01*
X144020000Y-56477270D01*
X144000315Y-56544309D01*
X143947511Y-56590064D01*
X143878353Y-56600008D01*
X143814797Y-56570983D01*
X143808319Y-56564951D01*
X143788593Y-56545225D01*
X143755108Y-56483902D01*
X143752871Y-56469697D01*
X143746295Y-56402931D01*
X143744024Y-56379868D01*
X143686814Y-56191273D01*
X143686811Y-56191269D01*
X143686811Y-56191266D01*
X143593913Y-56017467D01*
X143593909Y-56017460D01*
X143468883Y-55865116D01*
X143316539Y-55740090D01*
X143316532Y-55740086D01*
X143142733Y-55647188D01*
X143142727Y-55647186D01*
X142954132Y-55589976D01*
X142954129Y-55589975D01*
X142758000Y-55570659D01*
X142561870Y-55589975D01*
X142373266Y-55647188D01*
X142199467Y-55740086D01*
X142199460Y-55740090D01*
X142047116Y-55865116D01*
X141922090Y-56017460D01*
X141922086Y-56017467D01*
X141829188Y-56191266D01*
X141771975Y-56379870D01*
X141752659Y-56576000D01*
X141771975Y-56772129D01*
X141829188Y-56960733D01*
X141922086Y-57134532D01*
X141922090Y-57134539D01*
X142047116Y-57286883D01*
X142199460Y-57411909D01*
X142199467Y-57411913D01*
X142373266Y-57504811D01*
X142373269Y-57504811D01*
X142373273Y-57504814D01*
X142561868Y-57562024D01*
X142651697Y-57570871D01*
X142716485Y-57597031D01*
X142727225Y-57606593D01*
X143021181Y-57900548D01*
X143054666Y-57961871D01*
X143057500Y-57988229D01*
X143057500Y-58114132D01*
X143037815Y-58181171D01*
X143018616Y-58202346D01*
X143019451Y-58203181D01*
X142890289Y-58332342D01*
X142798187Y-58481663D01*
X142798186Y-58481666D01*
X142795090Y-58491006D01*
X142755319Y-58548450D01*
X142690802Y-58575272D01*
X142677386Y-58576000D01*
X141988088Y-58576000D01*
X141921049Y-58556315D01*
X141875294Y-58503511D01*
X141870383Y-58491007D01*
X141867359Y-58481882D01*
X141867356Y-58481875D01*
X141775315Y-58332654D01*
X141651345Y-58208684D01*
X141502124Y-58116643D01*
X141502119Y-58116641D01*
X141335697Y-58061494D01*
X141335690Y-58061493D01*
X141232986Y-58051000D01*
X141108000Y-58051000D01*
X141108000Y-60850999D01*
X141232972Y-60850999D01*
X141232986Y-60850998D01*
X141335697Y-60840505D01*
X141502119Y-60785358D01*
X141502124Y-60785356D01*
X141651345Y-60693315D01*
X141775315Y-60569345D01*
X141858240Y-60434903D01*
X141910188Y-60388179D01*
X141963779Y-60376000D01*
X142701634Y-60376000D01*
X142768673Y-60395685D01*
X142807173Y-60434904D01*
X142890287Y-60569655D01*
X143019451Y-60698819D01*
X143017559Y-60700710D01*
X143050774Y-60747583D01*
X143057500Y-60787867D01*
X143057500Y-60913769D01*
X143037815Y-60980808D01*
X143021181Y-61001450D01*
X142727225Y-61295405D01*
X142665902Y-61328890D01*
X142651700Y-61331127D01*
X142561870Y-61339975D01*
X142373266Y-61397188D01*
X142199467Y-61490086D01*
X142199460Y-61490090D01*
X142047116Y-61615116D01*
X142014250Y-61655165D01*
X141956505Y-61694499D01*
X141918397Y-61700500D01*
X141511393Y-61700500D01*
X141489703Y-61704814D01*
X141489702Y-61704813D01*
X141390555Y-61724535D01*
X141390545Y-61724538D01*
X141276716Y-61771687D01*
X141201163Y-61822171D01*
X141201162Y-61822172D01*
X141174263Y-61840144D01*
X141174262Y-61840145D01*
X140034269Y-62980140D01*
X139947143Y-63067265D01*
X139947142Y-63067267D01*
X139941456Y-63075778D01*
X139937803Y-63081245D01*
X139937800Y-63081249D01*
X139878690Y-63169710D01*
X139878687Y-63169716D01*
X139849704Y-63239685D01*
X139849705Y-63239686D01*
X139836925Y-63270541D01*
X139831539Y-63283542D01*
X139831537Y-63283548D01*
X139824837Y-63317229D01*
X139814825Y-63367573D01*
X139811255Y-63385520D01*
X139811254Y-63385525D01*
X139807500Y-63404394D01*
X139807500Y-64717611D01*
X139831535Y-64838444D01*
X139831540Y-64838461D01*
X139878685Y-64952281D01*
X139878689Y-64952288D01*
X139884957Y-64961668D01*
X139892243Y-64972572D01*
X139898100Y-64981336D01*
X139898102Y-64981342D01*
X139898103Y-64981342D01*
X139947138Y-65054728D01*
X139947140Y-65054731D01*
X139951176Y-65058767D01*
X139984665Y-65120088D01*
X139987500Y-65146453D01*
X139987500Y-68271500D01*
X139967815Y-68338539D01*
X139915011Y-68384294D01*
X139863500Y-68395500D01*
X139372080Y-68395500D01*
X139227092Y-68424340D01*
X139227086Y-68424342D01*
X139090508Y-68480914D01*
X139090496Y-68480921D01*
X139041269Y-68513813D01*
X138967588Y-68563044D01*
X138967580Y-68563050D01*
X136863223Y-70667407D01*
X136823002Y-70694284D01*
X136816404Y-70697017D01*
X136816401Y-70697018D01*
X136767166Y-70729916D01*
X136693485Y-70779147D01*
X136693477Y-70779153D01*
X134208225Y-73264405D01*
X134146902Y-73297890D01*
X134132700Y-73300127D01*
X134042870Y-73308975D01*
X133854266Y-73366188D01*
X133680467Y-73459086D01*
X133680460Y-73459090D01*
X133528116Y-73584116D01*
X133403090Y-73736460D01*
X133403086Y-73736467D01*
X133310188Y-73910266D01*
X133252975Y-74098870D01*
X133233659Y-74295000D01*
X109235900Y-74295000D01*
X109235900Y-65298791D01*
X109231249Y-65275414D01*
X109231249Y-65275409D01*
X109211864Y-65177955D01*
X109211863Y-65177948D01*
X109164711Y-65064114D01*
X109158444Y-65054734D01*
X109096259Y-64961668D01*
X109061408Y-64926817D01*
X109009133Y-64874542D01*
X109009132Y-64874541D01*
X107090236Y-62955646D01*
X107056752Y-62894324D01*
X107058143Y-62835872D01*
X107069943Y-62791835D01*
X107085063Y-62735408D01*
X107097346Y-62595015D01*
X107122797Y-62529949D01*
X107179388Y-62488970D01*
X107249150Y-62485092D01*
X107308554Y-62518144D01*
X114680416Y-69890006D01*
X114680445Y-69890037D01*
X114770664Y-69980256D01*
X114770667Y-69980258D01*
X114847590Y-70031656D01*
X114873110Y-70048709D01*
X114873117Y-70048713D01*
X114878134Y-70050791D01*
X114934254Y-70074036D01*
X114934255Y-70074037D01*
X114934256Y-70074037D01*
X114986948Y-70095863D01*
X115047371Y-70107881D01*
X115107793Y-70119900D01*
X115107794Y-70119900D01*
X125483742Y-70119900D01*
X125550781Y-70139585D01*
X125579595Y-70165235D01*
X125591616Y-70179883D01*
X125743960Y-70304909D01*
X125743967Y-70304913D01*
X125917766Y-70397811D01*
X125917769Y-70397811D01*
X125917773Y-70397814D01*
X126106368Y-70455024D01*
X126302500Y-70474341D01*
X126498632Y-70455024D01*
X126687227Y-70397814D01*
X126861038Y-70304910D01*
X127013383Y-70179883D01*
X127138410Y-70027538D01*
X127194022Y-69923495D01*
X127231311Y-69853733D01*
X127231311Y-69853732D01*
X127231314Y-69853727D01*
X127288524Y-69665132D01*
X127307841Y-69469000D01*
X127288524Y-69272868D01*
X127231314Y-69084273D01*
X127231311Y-69084269D01*
X127231311Y-69084266D01*
X127138413Y-68910467D01*
X127138409Y-68910460D01*
X127013383Y-68758116D01*
X126861039Y-68633090D01*
X126861032Y-68633086D01*
X126687233Y-68540188D01*
X126687227Y-68540186D01*
X126498632Y-68482976D01*
X126498629Y-68482975D01*
X126302500Y-68463659D01*
X126106370Y-68482975D01*
X125917766Y-68540188D01*
X125743967Y-68633086D01*
X125743960Y-68633090D01*
X125591617Y-68758116D01*
X125537906Y-68823564D01*
X125480160Y-68862899D01*
X125442052Y-68868900D01*
X115479852Y-68868900D01*
X115412813Y-68849215D01*
X115392171Y-68832581D01*
X110510590Y-63951000D01*
X136202659Y-63951000D01*
X136221975Y-64147129D01*
X136221976Y-64147132D01*
X136279185Y-64335725D01*
X136279188Y-64335733D01*
X136372086Y-64509532D01*
X136372090Y-64509539D01*
X136497116Y-64661883D01*
X136649460Y-64786909D01*
X136649467Y-64786913D01*
X136823266Y-64879811D01*
X136823269Y-64879811D01*
X136823273Y-64879814D01*
X137011868Y-64937024D01*
X137208000Y-64956341D01*
X137404132Y-64937024D01*
X137592727Y-64879814D01*
X137602589Y-64874543D01*
X137733457Y-64804592D01*
X137766538Y-64786910D01*
X137918883Y-64661883D01*
X138043910Y-64509538D01*
X138113417Y-64379500D01*
X138136811Y-64335733D01*
X138136811Y-64335732D01*
X138136814Y-64335727D01*
X138194024Y-64147132D01*
X138213341Y-63951000D01*
X138208262Y-63899437D01*
X138221280Y-63830794D01*
X138243981Y-63799607D01*
X140468858Y-61574733D01*
X140537312Y-61472285D01*
X140572262Y-61387907D01*
X140584463Y-61358452D01*
X140588138Y-61339975D01*
X140590069Y-61330269D01*
X140590069Y-61330267D01*
X140608501Y-61237606D01*
X140608501Y-61114393D01*
X140608501Y-61109283D01*
X140608500Y-61109257D01*
X140608500Y-60213404D01*
X140608000Y-60203226D01*
X140608000Y-58051000D01*
X140513663Y-58051000D01*
X140446624Y-58031315D01*
X140404306Y-57985455D01*
X140343910Y-57872462D01*
X140305887Y-57826131D01*
X140218883Y-57720116D01*
X140066539Y-57595090D01*
X140066532Y-57595086D01*
X139892728Y-57502186D01*
X139726004Y-57451610D01*
X139667566Y-57413313D01*
X139639109Y-57349500D01*
X139649670Y-57280433D01*
X139674316Y-57245272D01*
X140523729Y-56395860D01*
X140523733Y-56395858D01*
X140610858Y-56308733D01*
X140645084Y-56257509D01*
X140679312Y-56206286D01*
X140726463Y-56092451D01*
X140727576Y-56086858D01*
X140750500Y-55971606D01*
X140750500Y-53865638D01*
X140770185Y-53798599D01*
X140809401Y-53760100D01*
X140918656Y-53692712D01*
X141042712Y-53568656D01*
X141134814Y-53419334D01*
X141189999Y-53252797D01*
X141200500Y-53150009D01*
X141200499Y-51749992D01*
X141189999Y-51647203D01*
X141134814Y-51480666D01*
X141042712Y-51331344D01*
X140918656Y-51207288D01*
X140770639Y-51115991D01*
X140769336Y-51115187D01*
X140769331Y-51115185D01*
X140767862Y-51114698D01*
X140602797Y-51060001D01*
X140602795Y-51060000D01*
X140500010Y-51049500D01*
X139749998Y-51049500D01*
X139749980Y-51049501D01*
X139647203Y-51060000D01*
X139647200Y-51060001D01*
X139480668Y-51115185D01*
X139480663Y-51115187D01*
X139331342Y-51207289D01*
X139207289Y-51331342D01*
X139115182Y-51480671D01*
X139112131Y-51487216D01*
X139110012Y-51486228D01*
X139076628Y-51534448D01*
X139012113Y-51561272D01*
X138998693Y-51562000D01*
X138300780Y-51562000D01*
X138233741Y-51542315D01*
X138187986Y-51489511D01*
X138185866Y-51484114D01*
X138184356Y-51480875D01*
X138092315Y-51331654D01*
X137968345Y-51207684D01*
X137819124Y-51115643D01*
X137819119Y-51115641D01*
X137652697Y-51060494D01*
X137652690Y-51060493D01*
X137549986Y-51050000D01*
X137425000Y-51050000D01*
X137425000Y-53849999D01*
X137549972Y-53849999D01*
X137549986Y-53849998D01*
X137652697Y-53839505D01*
X137819119Y-53784358D01*
X137819124Y-53784356D01*
X137968345Y-53692315D01*
X138092315Y-53568345D01*
X138184356Y-53419124D01*
X138187408Y-53412579D01*
X138190130Y-53413848D01*
X138222177Y-53367556D01*
X138286691Y-53340729D01*
X138300117Y-53340000D01*
X138999356Y-53340000D01*
X139066395Y-53359685D01*
X139112150Y-53412489D01*
X139112984Y-53414613D01*
X139115184Y-53419330D01*
X139115185Y-53419331D01*
X139115186Y-53419334D01*
X139207288Y-53568656D01*
X139331344Y-53692712D01*
X139440597Y-53760099D01*
X139487321Y-53812047D01*
X139499500Y-53865638D01*
X139499500Y-53867796D01*
X139479815Y-53934835D01*
X139427011Y-53980590D01*
X139360231Y-53990191D01*
X139360194Y-53990573D01*
X139358643Y-53990420D01*
X139357853Y-53990534D01*
X139355211Y-53990082D01*
X139158000Y-53970659D01*
X138961870Y-53989975D01*
X138773266Y-54047188D01*
X138599467Y-54140086D01*
X138599460Y-54140090D01*
X138447116Y-54265116D01*
X138322090Y-54417460D01*
X138322086Y-54417467D01*
X138229188Y-54591266D01*
X138171975Y-54779870D01*
X138152659Y-54976000D01*
X138152659Y-54976002D01*
X138157736Y-55027562D01*
X138144716Y-55096207D01*
X138122014Y-55127394D01*
X136634270Y-56615139D01*
X136547144Y-56702264D01*
X136547138Y-56702272D01*
X136478690Y-56804708D01*
X136478689Y-56804710D01*
X136457424Y-56856050D01*
X136431539Y-56918540D01*
X136431535Y-56918555D01*
X136407500Y-57039389D01*
X136407500Y-58707338D01*
X136412462Y-58732283D01*
X136412462Y-58732284D01*
X136412463Y-58732284D01*
X136412463Y-58732285D01*
X136431198Y-58826477D01*
X136431202Y-58826499D01*
X136431536Y-58828176D01*
X136431537Y-58828179D01*
X136478685Y-58942008D01*
X136478687Y-58942011D01*
X136499116Y-58972584D01*
X136499117Y-58972586D01*
X136547141Y-59044459D01*
X136547144Y-59044463D01*
X136638181Y-59135500D01*
X136671666Y-59196823D01*
X136674500Y-59223181D01*
X136674500Y-59892769D01*
X136654815Y-59959808D01*
X136646354Y-59971434D01*
X136597086Y-60031466D01*
X136597086Y-60031467D01*
X136504188Y-60205266D01*
X136446975Y-60393870D01*
X136427659Y-60590000D01*
X136446975Y-60786129D01*
X136446976Y-60786132D01*
X136501275Y-60965132D01*
X136504188Y-60974733D01*
X136597086Y-61148532D01*
X136597090Y-61148539D01*
X136722116Y-61300883D01*
X136874460Y-61425909D01*
X136874467Y-61425913D01*
X137048266Y-61518811D01*
X137048269Y-61518811D01*
X137048273Y-61518814D01*
X137236868Y-61576024D01*
X137433000Y-61595341D01*
X137629132Y-61576024D01*
X137817727Y-61518814D01*
X137820517Y-61517323D01*
X137933341Y-61457017D01*
X137991538Y-61425910D01*
X138138696Y-61305139D01*
X138203004Y-61277827D01*
X138271872Y-61289618D01*
X138318037Y-61329982D01*
X138318225Y-61329829D01*
X138319146Y-61330951D01*
X138320462Y-61332102D01*
X138322090Y-61334538D01*
X138447116Y-61486883D01*
X138528326Y-61553531D01*
X138567660Y-61611277D01*
X138569531Y-61681122D01*
X138537342Y-61737065D01*
X137359394Y-62915014D01*
X137298071Y-62948499D01*
X137259562Y-62950736D01*
X137208003Y-62945659D01*
X137208000Y-62945659D01*
X137011870Y-62964975D01*
X136823266Y-63022188D01*
X136649467Y-63115086D01*
X136649460Y-63115090D01*
X136497116Y-63240116D01*
X136372090Y-63392460D01*
X136372086Y-63392467D01*
X136279188Y-63566266D01*
X136221975Y-63754870D01*
X136202659Y-63951000D01*
X110510590Y-63951000D01*
X109709590Y-63150000D01*
X130950000Y-63150000D01*
X134650000Y-63125000D01*
X134650000Y-55500000D01*
X134649999Y-55499999D01*
X130950000Y-55524999D01*
X130950000Y-63150000D01*
X109709590Y-63150000D01*
X104235984Y-57676394D01*
X104202499Y-57615071D01*
X104200262Y-57576562D01*
X104205341Y-57525000D01*
X104186024Y-57328868D01*
X104128814Y-57140273D01*
X104128811Y-57140269D01*
X104128811Y-57140266D01*
X104035913Y-56966467D01*
X104035909Y-56966460D01*
X103910883Y-56814116D01*
X103758539Y-56689090D01*
X103758532Y-56689086D01*
X103584733Y-56596188D01*
X103584727Y-56596186D01*
X103416732Y-56545225D01*
X103396129Y-56538975D01*
X103200000Y-56519659D01*
X103003870Y-56538975D01*
X102815266Y-56596188D01*
X102641467Y-56689086D01*
X102641460Y-56689090D01*
X102489116Y-56814116D01*
X102364090Y-56966460D01*
X102364086Y-56966467D01*
X102271188Y-57140266D01*
X102213975Y-57328870D01*
X102194659Y-57525000D01*
X102213975Y-57721129D01*
X102271188Y-57909733D01*
X102364086Y-58083532D01*
X102364090Y-58083539D01*
X102489116Y-58235883D01*
X102641460Y-58360909D01*
X102641467Y-58360913D01*
X102815266Y-58453811D01*
X102815269Y-58453811D01*
X102815273Y-58453814D01*
X103003868Y-58511024D01*
X103200000Y-58530341D01*
X103251560Y-58525262D01*
X103320203Y-58538280D01*
X103351394Y-58560984D01*
X105731855Y-60941445D01*
X105765340Y-61002768D01*
X105760356Y-61072460D01*
X105718484Y-61128393D01*
X105654982Y-61152654D01*
X105514596Y-61164936D01*
X105514586Y-61164938D01*
X105286344Y-61226094D01*
X105286335Y-61226098D01*
X105072171Y-61325964D01*
X105072169Y-61325965D01*
X104878597Y-61461505D01*
X104711503Y-61628599D01*
X104710349Y-61629975D01*
X104709688Y-61630414D01*
X104707676Y-61632427D01*
X104707271Y-61632022D01*
X104652173Y-61668671D01*
X104582312Y-61669772D01*
X104522946Y-61632928D01*
X104497663Y-61589265D01*
X104494814Y-61580666D01*
X104402712Y-61431344D01*
X104278656Y-61307288D01*
X104165683Y-61237606D01*
X104129336Y-61215187D01*
X104129331Y-61215185D01*
X104115878Y-61210727D01*
X103962797Y-61160001D01*
X103962795Y-61160000D01*
X103860010Y-61149500D01*
X102559998Y-61149500D01*
X102559981Y-61149501D01*
X102457203Y-61160000D01*
X102457200Y-61160001D01*
X102290668Y-61215185D01*
X102290663Y-61215187D01*
X102141342Y-61307289D01*
X102017289Y-61431342D01*
X101925187Y-61580663D01*
X101925185Y-61580668D01*
X101908341Y-61631501D01*
X101870001Y-61747203D01*
X101870001Y-61747204D01*
X101870000Y-61747204D01*
X101859500Y-61849983D01*
X101859500Y-63150001D01*
X101859501Y-63150018D01*
X101870000Y-63252796D01*
X101870001Y-63252799D01*
X101920235Y-63404394D01*
X101925186Y-63419334D01*
X102017288Y-63568656D01*
X102141344Y-63692712D01*
X102290666Y-63784814D01*
X102299264Y-63787663D01*
X102356707Y-63827433D01*
X102383531Y-63891948D01*
X102371217Y-63960724D01*
X102342234Y-63997483D01*
X102342427Y-63997676D01*
X102340798Y-63999304D01*
X102339975Y-64000349D01*
X102338599Y-64001503D01*
X102171505Y-64168597D01*
X102035965Y-64362169D01*
X102035964Y-64362171D01*
X101936098Y-64576335D01*
X101936094Y-64576344D01*
X101874938Y-64804586D01*
X101874936Y-64804596D01*
X101854341Y-65039999D01*
X101854341Y-65040000D01*
X101874936Y-65275403D01*
X101874938Y-65275413D01*
X101936094Y-65503655D01*
X101936096Y-65503659D01*
X101936097Y-65503663D01*
X101990108Y-65619490D01*
X102035965Y-65717830D01*
X102035967Y-65717834D01*
X102119081Y-65836532D01*
X102171501Y-65911396D01*
X102171506Y-65911402D01*
X102338597Y-66078493D01*
X102338603Y-66078498D01*
X102524158Y-66208425D01*
X102567783Y-66263002D01*
X102574977Y-66332500D01*
X102543454Y-66394855D01*
X102524158Y-66411575D01*
X102338597Y-66541505D01*
X102171505Y-66708597D01*
X102035965Y-66902169D01*
X102035964Y-66902171D01*
X101936098Y-67116335D01*
X101936094Y-67116344D01*
X101874938Y-67344586D01*
X101874936Y-67344596D01*
X101854341Y-67579999D01*
X101854341Y-67580000D01*
X101874936Y-67815403D01*
X101874938Y-67815413D01*
X101936094Y-68043655D01*
X101936096Y-68043659D01*
X101936097Y-68043663D01*
X102008193Y-68198273D01*
X102035965Y-68257830D01*
X102035967Y-68257834D01*
X102092478Y-68338539D01*
X102171505Y-68451401D01*
X102338599Y-68618495D01*
X102524594Y-68748730D01*
X102568218Y-68803307D01*
X102575411Y-68872806D01*
X102543889Y-68935160D01*
X102524593Y-68951880D01*
X102448626Y-69005072D01*
X102448625Y-69005072D01*
X103080590Y-69637037D01*
X103017007Y-69654075D01*
X102902993Y-69719901D01*
X102809901Y-69812993D01*
X102744075Y-69927007D01*
X102727037Y-69990590D01*
X102095072Y-69358625D01*
X102036401Y-69442419D01*
X101936570Y-69656507D01*
X101936566Y-69656516D01*
X101875432Y-69884673D01*
X101875430Y-69884684D01*
X101854843Y-70119998D01*
X101854843Y-70120001D01*
X101875430Y-70355315D01*
X101875432Y-70355326D01*
X101936566Y-70583483D01*
X101936570Y-70583492D01*
X102036400Y-70797579D01*
X102036402Y-70797583D01*
X102095072Y-70881373D01*
X102095073Y-70881373D01*
X102727037Y-70249409D01*
X102744075Y-70312993D01*
X102809901Y-70427007D01*
X102902993Y-70520099D01*
X103017007Y-70585925D01*
X103080590Y-70602962D01*
X102448625Y-71234925D01*
X102524594Y-71288119D01*
X102568219Y-71342696D01*
X102575413Y-71412194D01*
X102543890Y-71474549D01*
X102524595Y-71491269D01*
X102338594Y-71621508D01*
X102171505Y-71788597D01*
X102035965Y-71982169D01*
X102035964Y-71982171D01*
X101936098Y-72196335D01*
X101936094Y-72196344D01*
X101874938Y-72424586D01*
X101874936Y-72424596D01*
X101854341Y-72659999D01*
X101854341Y-72660000D01*
X101874936Y-72895403D01*
X101874938Y-72895413D01*
X101936094Y-73123655D01*
X101936096Y-73123659D01*
X101936097Y-73123663D01*
X101940000Y-73132032D01*
X102035965Y-73337830D01*
X102035967Y-73337834D01*
X102120869Y-73459086D01*
X102171505Y-73531401D01*
X102338599Y-73698495D01*
X102524594Y-73828730D01*
X102568218Y-73883307D01*
X102575411Y-73952806D01*
X102543889Y-74015160D01*
X102524593Y-74031880D01*
X102448626Y-74085072D01*
X102448625Y-74085072D01*
X103080590Y-74717037D01*
X103017007Y-74734075D01*
X102902993Y-74799901D01*
X102809901Y-74892993D01*
X102744075Y-75007007D01*
X102727037Y-75070590D01*
X102095072Y-74438625D01*
X102036401Y-74522419D01*
X101936570Y-74736507D01*
X101936566Y-74736516D01*
X101875432Y-74964673D01*
X101875430Y-74964684D01*
X101854843Y-75199998D01*
X101854843Y-75200001D01*
X101875430Y-75435315D01*
X101875432Y-75435326D01*
X101936566Y-75663483D01*
X101936570Y-75663492D01*
X102036400Y-75877579D01*
X102036402Y-75877583D01*
X102095072Y-75961373D01*
X102095073Y-75961373D01*
X102727037Y-75329409D01*
X102744075Y-75392993D01*
X102809901Y-75507007D01*
X102902993Y-75600099D01*
X103017007Y-75665925D01*
X103080590Y-75682962D01*
X102448625Y-76314925D01*
X102524594Y-76368119D01*
X102568219Y-76422696D01*
X102575413Y-76492194D01*
X102543890Y-76554549D01*
X102524595Y-76571269D01*
X102338594Y-76701508D01*
X102171505Y-76868597D01*
X102035965Y-77062169D01*
X102035964Y-77062171D01*
X101936098Y-77276335D01*
X101936094Y-77276344D01*
X101874938Y-77504586D01*
X101874936Y-77504596D01*
X101854341Y-77739999D01*
X101854341Y-77740000D01*
X99700500Y-77740000D01*
X99700500Y-52700000D01*
X136100001Y-52700000D01*
X136100001Y-53149986D01*
X136110494Y-53252697D01*
X136165641Y-53419119D01*
X136165643Y-53419124D01*
X136257684Y-53568345D01*
X136381654Y-53692315D01*
X136530875Y-53784356D01*
X136530880Y-53784358D01*
X136697302Y-53839505D01*
X136697309Y-53839506D01*
X136800019Y-53849999D01*
X136924999Y-53849999D01*
X136925000Y-53849998D01*
X136925000Y-52700000D01*
X136100001Y-52700000D01*
X99700500Y-52700000D01*
X99700500Y-52200000D01*
X136100000Y-52200000D01*
X136925000Y-52200000D01*
X136925000Y-51050000D01*
X136800027Y-51050000D01*
X136800012Y-51050001D01*
X136697302Y-51060494D01*
X136530880Y-51115641D01*
X136530875Y-51115643D01*
X136381654Y-51207684D01*
X136257684Y-51331654D01*
X136165643Y-51480875D01*
X136165641Y-51480880D01*
X136110494Y-51647302D01*
X136110493Y-51647309D01*
X136100000Y-51750013D01*
X136100000Y-52200000D01*
X99700500Y-52200000D01*
X99700500Y-47752004D01*
X120014953Y-47752004D01*
X120035113Y-48021026D01*
X120035113Y-48021028D01*
X120095142Y-48284033D01*
X120095148Y-48284052D01*
X120193709Y-48535181D01*
X120193708Y-48535181D01*
X120328602Y-48768822D01*
X120382294Y-48836151D01*
X121104152Y-48114293D01*
X121111049Y-48130942D01*
X121198599Y-48261970D01*
X121310030Y-48373401D01*
X121441058Y-48460951D01*
X121457705Y-48467846D01*
X120734848Y-49190702D01*
X120917483Y-49315220D01*
X120917485Y-49315221D01*
X121160539Y-49432269D01*
X121160537Y-49432269D01*
X121418337Y-49511790D01*
X121418343Y-49511792D01*
X121685101Y-49551999D01*
X121685110Y-49552000D01*
X121954890Y-49552000D01*
X121954898Y-49551999D01*
X122221656Y-49511792D01*
X122221662Y-49511790D01*
X122479461Y-49432269D01*
X122722521Y-49315218D01*
X122905150Y-49190702D01*
X122182294Y-48467846D01*
X122198942Y-48460951D01*
X122329970Y-48373401D01*
X122441401Y-48261970D01*
X122528951Y-48130942D01*
X122535846Y-48114294D01*
X123257703Y-48836151D01*
X123257704Y-48836150D01*
X123311393Y-48768828D01*
X123311400Y-48768817D01*
X123446290Y-48535181D01*
X123544851Y-48284052D01*
X123544857Y-48284033D01*
X123604886Y-48021028D01*
X123604886Y-48021026D01*
X123625047Y-47752004D01*
X123625047Y-47751995D01*
X123604886Y-47482973D01*
X123604886Y-47482971D01*
X123544857Y-47219966D01*
X123544851Y-47219947D01*
X123446290Y-46968818D01*
X123446291Y-46968818D01*
X123332961Y-46772527D01*
X123316488Y-46704627D01*
X123339340Y-46638600D01*
X123394261Y-46595410D01*
X123463815Y-46588768D01*
X123510197Y-46608071D01*
X123582296Y-46657228D01*
X123582301Y-46657230D01*
X123582302Y-46657231D01*
X123582303Y-46657232D01*
X123680721Y-46704627D01*
X123818673Y-46771061D01*
X123818674Y-46771061D01*
X123818677Y-46771063D01*
X124069385Y-46848396D01*
X124328818Y-46887500D01*
X124591182Y-46887500D01*
X124850615Y-46848396D01*
X125101323Y-46771063D01*
X125136056Y-46754336D01*
X125204994Y-46742985D01*
X125269128Y-46770706D01*
X125308094Y-46828701D01*
X125309520Y-46898556D01*
X125297243Y-46928056D01*
X125273708Y-46968820D01*
X125175148Y-47219947D01*
X125175142Y-47219966D01*
X125115113Y-47482971D01*
X125115113Y-47482973D01*
X125094953Y-47751995D01*
X125094953Y-47752004D01*
X125115113Y-48021026D01*
X125115113Y-48021028D01*
X125175142Y-48284033D01*
X125175148Y-48284052D01*
X125273709Y-48535181D01*
X125273708Y-48535181D01*
X125408602Y-48768822D01*
X125462294Y-48836151D01*
X126184152Y-48114293D01*
X126191049Y-48130942D01*
X126278599Y-48261970D01*
X126390030Y-48373401D01*
X126521058Y-48460951D01*
X126537705Y-48467846D01*
X125814848Y-49190702D01*
X125997483Y-49315220D01*
X125997485Y-49315221D01*
X126240539Y-49432269D01*
X126240537Y-49432269D01*
X126498337Y-49511790D01*
X126498343Y-49511792D01*
X126765101Y-49551999D01*
X126765110Y-49552000D01*
X127034890Y-49552000D01*
X127034898Y-49551999D01*
X127301656Y-49511792D01*
X127301662Y-49511790D01*
X127559461Y-49432269D01*
X127802521Y-49315218D01*
X127985150Y-49190702D01*
X127262294Y-48467846D01*
X127278942Y-48460951D01*
X127409970Y-48373401D01*
X127521401Y-48261970D01*
X127608951Y-48130942D01*
X127615846Y-48114294D01*
X128337703Y-48836151D01*
X128337704Y-48836150D01*
X128391393Y-48768828D01*
X128391400Y-48768817D01*
X128526290Y-48535181D01*
X128624851Y-48284052D01*
X128624857Y-48284033D01*
X128684886Y-48021028D01*
X128684886Y-48021026D01*
X128705047Y-47752004D01*
X146784953Y-47752004D01*
X146805113Y-48021026D01*
X146805113Y-48021028D01*
X146865142Y-48284033D01*
X146865148Y-48284052D01*
X146963709Y-48535181D01*
X146963708Y-48535181D01*
X147098602Y-48768822D01*
X147152294Y-48836151D01*
X147152295Y-48836151D01*
X147874153Y-48114293D01*
X147881049Y-48130942D01*
X147968599Y-48261970D01*
X148080030Y-48373401D01*
X148211058Y-48460951D01*
X148227705Y-48467846D01*
X147504848Y-49190702D01*
X147687483Y-49315220D01*
X147687485Y-49315221D01*
X147930539Y-49432269D01*
X147930537Y-49432269D01*
X148188337Y-49511790D01*
X148188343Y-49511792D01*
X148455101Y-49551999D01*
X148455110Y-49552000D01*
X148724890Y-49552000D01*
X148724898Y-49551999D01*
X148991656Y-49511792D01*
X148991662Y-49511790D01*
X149249461Y-49432269D01*
X149492521Y-49315218D01*
X149675150Y-49190702D01*
X148952294Y-48467846D01*
X148968942Y-48460951D01*
X149099970Y-48373401D01*
X149211401Y-48261970D01*
X149298951Y-48130942D01*
X149305846Y-48114294D01*
X150027703Y-48836151D01*
X150027704Y-48836150D01*
X150081393Y-48768828D01*
X150081400Y-48768817D01*
X150216290Y-48535181D01*
X150314851Y-48284052D01*
X150314857Y-48284033D01*
X150374886Y-48021028D01*
X150374886Y-48021026D01*
X150395047Y-47752004D01*
X150395047Y-47751995D01*
X150374886Y-47482973D01*
X150374886Y-47482971D01*
X150314857Y-47219966D01*
X150314851Y-47219947D01*
X150216290Y-46968818D01*
X150216291Y-46968818D01*
X150102961Y-46772527D01*
X150086488Y-46704627D01*
X150109340Y-46638600D01*
X150164261Y-46595410D01*
X150233815Y-46588768D01*
X150280197Y-46608071D01*
X150352296Y-46657228D01*
X150352301Y-46657230D01*
X150352302Y-46657231D01*
X150352303Y-46657232D01*
X150450721Y-46704627D01*
X150588673Y-46771061D01*
X150588674Y-46771061D01*
X150588677Y-46771063D01*
X150839385Y-46848396D01*
X151098818Y-46887500D01*
X151361182Y-46887500D01*
X151620615Y-46848396D01*
X151871323Y-46771063D01*
X151906056Y-46754336D01*
X151974994Y-46742985D01*
X152039128Y-46770706D01*
X152078094Y-46828701D01*
X152079520Y-46898556D01*
X152067243Y-46928056D01*
X152043708Y-46968820D01*
X151945148Y-47219947D01*
X151945142Y-47219966D01*
X151885113Y-47482971D01*
X151885113Y-47482973D01*
X151864953Y-47751995D01*
X151864953Y-47752004D01*
X151885113Y-48021026D01*
X151885113Y-48021028D01*
X151945142Y-48284033D01*
X151945148Y-48284052D01*
X152043709Y-48535181D01*
X152043708Y-48535181D01*
X152178602Y-48768822D01*
X152232294Y-48836151D01*
X152954152Y-48114293D01*
X152961049Y-48130942D01*
X153048599Y-48261970D01*
X153160030Y-48373401D01*
X153291058Y-48460951D01*
X153307705Y-48467846D01*
X152584848Y-49190702D01*
X152767483Y-49315220D01*
X152767485Y-49315221D01*
X153010539Y-49432269D01*
X153010537Y-49432269D01*
X153268337Y-49511790D01*
X153268343Y-49511792D01*
X153535101Y-49551999D01*
X153535110Y-49552000D01*
X153804890Y-49552000D01*
X153804898Y-49551999D01*
X154071656Y-49511792D01*
X154071662Y-49511790D01*
X154329461Y-49432269D01*
X154572521Y-49315218D01*
X154755150Y-49190702D01*
X154032294Y-48467846D01*
X154048942Y-48460951D01*
X154179970Y-48373401D01*
X154291401Y-48261970D01*
X154378951Y-48130942D01*
X154385846Y-48114294D01*
X155107703Y-48836151D01*
X155107704Y-48836150D01*
X155161393Y-48768828D01*
X155161400Y-48768817D01*
X155296290Y-48535181D01*
X155394851Y-48284052D01*
X155394857Y-48284033D01*
X155454886Y-48021028D01*
X155454886Y-48021026D01*
X155475047Y-47752004D01*
X155475047Y-47751995D01*
X155454886Y-47482973D01*
X155454886Y-47482971D01*
X155394857Y-47219966D01*
X155394851Y-47219947D01*
X155296290Y-46968818D01*
X155296291Y-46968818D01*
X155161397Y-46735177D01*
X155107704Y-46667847D01*
X154385846Y-47389705D01*
X154378951Y-47373058D01*
X154291401Y-47242030D01*
X154179970Y-47130599D01*
X154048942Y-47043049D01*
X154032293Y-47036153D01*
X154755150Y-46313296D01*
X154572517Y-46188779D01*
X154572516Y-46188778D01*
X154329460Y-46071730D01*
X154329462Y-46071730D01*
X154071662Y-45992209D01*
X154071656Y-45992207D01*
X153804898Y-45952000D01*
X153535101Y-45952000D01*
X153268343Y-45992207D01*
X153268337Y-45992209D01*
X153010544Y-46071728D01*
X152958711Y-46096690D01*
X152889769Y-46108041D01*
X152825635Y-46080318D01*
X152786670Y-46022323D01*
X152785245Y-45952468D01*
X152797522Y-45922970D01*
X152811568Y-45898643D01*
X152907420Y-45654416D01*
X152965802Y-45398630D01*
X152985408Y-45137000D01*
X152965802Y-44875370D01*
X152907420Y-44619584D01*
X152867923Y-44518949D01*
X152861755Y-44449353D01*
X152894193Y-44387470D01*
X152954938Y-44352947D01*
X153019902Y-44355157D01*
X153268337Y-44431790D01*
X153268343Y-44431792D01*
X153535101Y-44471999D01*
X153535110Y-44472000D01*
X153804890Y-44472000D01*
X153804898Y-44471999D01*
X154071656Y-44431792D01*
X154071662Y-44431790D01*
X154329461Y-44352269D01*
X154572521Y-44235218D01*
X154755150Y-44110702D01*
X154032294Y-43387846D01*
X154048942Y-43380951D01*
X154179970Y-43293401D01*
X154291401Y-43181970D01*
X154378951Y-43050942D01*
X154385846Y-43034294D01*
X155107703Y-43756151D01*
X155107704Y-43756150D01*
X155161393Y-43688828D01*
X155161400Y-43688817D01*
X155296290Y-43455181D01*
X155394851Y-43204052D01*
X155394857Y-43204033D01*
X155454886Y-42941028D01*
X155454886Y-42941026D01*
X155475047Y-42672004D01*
X155475047Y-42671995D01*
X155454886Y-42402973D01*
X155454886Y-42402971D01*
X155394857Y-42139966D01*
X155394851Y-42139947D01*
X155296290Y-41888818D01*
X155296291Y-41888818D01*
X155161397Y-41655177D01*
X155107704Y-41587847D01*
X154385846Y-42309705D01*
X154378951Y-42293058D01*
X154291401Y-42162030D01*
X154179970Y-42050599D01*
X154048942Y-41963049D01*
X154032294Y-41956153D01*
X154755150Y-41233296D01*
X154572517Y-41108779D01*
X154572516Y-41108778D01*
X154329460Y-40991730D01*
X154329462Y-40991730D01*
X154071662Y-40912209D01*
X154071656Y-40912207D01*
X153804898Y-40872000D01*
X153535101Y-40872000D01*
X153268343Y-40912207D01*
X153268337Y-40912209D01*
X153010538Y-40991730D01*
X152767485Y-41108778D01*
X152767476Y-41108783D01*
X152584848Y-41233296D01*
X153307705Y-41956153D01*
X153291058Y-41963049D01*
X153160030Y-42050599D01*
X153048599Y-42162030D01*
X152961049Y-42293058D01*
X152954153Y-42309706D01*
X152232295Y-41587848D01*
X152178600Y-41655180D01*
X152043709Y-41888818D01*
X151945148Y-42139947D01*
X151945142Y-42139966D01*
X151885113Y-42402971D01*
X151885113Y-42402973D01*
X151864953Y-42671995D01*
X151864953Y-42672004D01*
X151885113Y-42941026D01*
X151885113Y-42941028D01*
X151945142Y-43204033D01*
X151945148Y-43204052D01*
X151994706Y-43330324D01*
X152000875Y-43399921D01*
X151968437Y-43461804D01*
X151907692Y-43496327D01*
X151842729Y-43494117D01*
X151737973Y-43461804D01*
X151620623Y-43425606D01*
X151620619Y-43425605D01*
X151620615Y-43425604D01*
X151495823Y-43406794D01*
X151361187Y-43386500D01*
X151361182Y-43386500D01*
X151098818Y-43386500D01*
X151098812Y-43386500D01*
X150937247Y-43410853D01*
X150839385Y-43425604D01*
X150839382Y-43425605D01*
X150839376Y-43425606D01*
X150588673Y-43502938D01*
X150391052Y-43598107D01*
X150322111Y-43609459D01*
X150257976Y-43581736D01*
X150219011Y-43523741D01*
X150217586Y-43453886D01*
X150221823Y-43441085D01*
X150314851Y-43204052D01*
X150314857Y-43204033D01*
X150374886Y-42941028D01*
X150374886Y-42941026D01*
X150395047Y-42672004D01*
X150395047Y-42671995D01*
X150374886Y-42402973D01*
X150374886Y-42402971D01*
X150314857Y-42139966D01*
X150314851Y-42139947D01*
X150216290Y-41888818D01*
X150216291Y-41888818D01*
X150081397Y-41655177D01*
X150027704Y-41587847D01*
X149305846Y-42309705D01*
X149298951Y-42293058D01*
X149211401Y-42162030D01*
X149099970Y-42050599D01*
X148968942Y-41963049D01*
X148952294Y-41956153D01*
X149675150Y-41233296D01*
X149492517Y-41108779D01*
X149492516Y-41108778D01*
X149249460Y-40991730D01*
X149249462Y-40991730D01*
X148991662Y-40912209D01*
X148991656Y-40912207D01*
X148724898Y-40872000D01*
X148455101Y-40872000D01*
X148188343Y-40912207D01*
X148188337Y-40912209D01*
X147930538Y-40991730D01*
X147687485Y-41108778D01*
X147687476Y-41108783D01*
X147504848Y-41233296D01*
X148227705Y-41956153D01*
X148211058Y-41963049D01*
X148080030Y-42050599D01*
X147968599Y-42162030D01*
X147881049Y-42293058D01*
X147874153Y-42309706D01*
X147152295Y-41587848D01*
X147098600Y-41655180D01*
X146963709Y-41888818D01*
X146865148Y-42139947D01*
X146865142Y-42139966D01*
X146805113Y-42402971D01*
X146805113Y-42402973D01*
X146784953Y-42671995D01*
X146784953Y-42672004D01*
X146805113Y-42941026D01*
X146805113Y-42941028D01*
X146865142Y-43204033D01*
X146865148Y-43204052D01*
X146963709Y-43455181D01*
X146963708Y-43455181D01*
X147098602Y-43688822D01*
X147152294Y-43756151D01*
X147152295Y-43756151D01*
X147874153Y-43034293D01*
X147881049Y-43050942D01*
X147968599Y-43181970D01*
X148080030Y-43293401D01*
X148211058Y-43380951D01*
X148227705Y-43387846D01*
X147504848Y-44110702D01*
X147687483Y-44235220D01*
X147687485Y-44235221D01*
X147930539Y-44352269D01*
X147930537Y-44352269D01*
X148188337Y-44431790D01*
X148188343Y-44431792D01*
X148455101Y-44471999D01*
X148455110Y-44472000D01*
X148724890Y-44472000D01*
X148724898Y-44471999D01*
X148991656Y-44431792D01*
X148991662Y-44431790D01*
X149249458Y-44352270D01*
X149467927Y-44247061D01*
X149536869Y-44235709D01*
X149601003Y-44263431D01*
X149639969Y-44321426D01*
X149641394Y-44391281D01*
X149637158Y-44404081D01*
X149552583Y-44619578D01*
X149552578Y-44619590D01*
X149552576Y-44619597D01*
X149494197Y-44875374D01*
X149494196Y-44875379D01*
X149474592Y-45136995D01*
X149474592Y-45137004D01*
X149494196Y-45398620D01*
X149494197Y-45398625D01*
X149552576Y-45654402D01*
X149552582Y-45654421D01*
X149648432Y-45898643D01*
X149754256Y-46081937D01*
X149770729Y-46149837D01*
X149747876Y-46215864D01*
X149692955Y-46259055D01*
X149623402Y-46265696D01*
X149577017Y-46246390D01*
X149492526Y-46188784D01*
X149492516Y-46188778D01*
X149249460Y-46071730D01*
X149249462Y-46071730D01*
X148991662Y-45992209D01*
X148991656Y-45992207D01*
X148724898Y-45952000D01*
X148455101Y-45952000D01*
X148188343Y-45992207D01*
X148188337Y-45992209D01*
X147930538Y-46071730D01*
X147687485Y-46188778D01*
X147687476Y-46188783D01*
X147504848Y-46313296D01*
X148227705Y-47036153D01*
X148211058Y-47043049D01*
X148080030Y-47130599D01*
X147968599Y-47242030D01*
X147881049Y-47373058D01*
X147874153Y-47389706D01*
X147152295Y-46667848D01*
X147098600Y-46735180D01*
X146963709Y-46968818D01*
X146865148Y-47219947D01*
X146865142Y-47219966D01*
X146805113Y-47482971D01*
X146805113Y-47482973D01*
X146784953Y-47751995D01*
X146784953Y-47752004D01*
X128705047Y-47752004D01*
X128705047Y-47751995D01*
X128684886Y-47482973D01*
X128684886Y-47482971D01*
X128624857Y-47219966D01*
X128624851Y-47219947D01*
X128526290Y-46968818D01*
X128526291Y-46968818D01*
X128391397Y-46735177D01*
X128337704Y-46667847D01*
X127615846Y-47389705D01*
X127608951Y-47373058D01*
X127521401Y-47242030D01*
X127409970Y-47130599D01*
X127278942Y-47043049D01*
X127262293Y-47036153D01*
X127985150Y-46313296D01*
X127802517Y-46188779D01*
X127802516Y-46188778D01*
X127559460Y-46071730D01*
X127559462Y-46071730D01*
X127301662Y-45992209D01*
X127301656Y-45992207D01*
X127034898Y-45952000D01*
X126765101Y-45952000D01*
X126498343Y-45992207D01*
X126498337Y-45992209D01*
X126240544Y-46071728D01*
X126188711Y-46096690D01*
X126119769Y-46108041D01*
X126055635Y-46080318D01*
X126016670Y-46022323D01*
X126015245Y-45952468D01*
X126027522Y-45922970D01*
X126041568Y-45898643D01*
X126137420Y-45654416D01*
X126195802Y-45398630D01*
X126215408Y-45137000D01*
X126195802Y-44875370D01*
X126137420Y-44619584D01*
X126097923Y-44518949D01*
X126091755Y-44449353D01*
X126124193Y-44387470D01*
X126184938Y-44352947D01*
X126249902Y-44355157D01*
X126498337Y-44431790D01*
X126498343Y-44431792D01*
X126765101Y-44471999D01*
X126765110Y-44472000D01*
X127034890Y-44472000D01*
X127034898Y-44471999D01*
X127301656Y-44431792D01*
X127301662Y-44431790D01*
X127559461Y-44352269D01*
X127802521Y-44235218D01*
X127985150Y-44110702D01*
X127262294Y-43387846D01*
X127278942Y-43380951D01*
X127409970Y-43293401D01*
X127521401Y-43181970D01*
X127608951Y-43050942D01*
X127615846Y-43034294D01*
X128337703Y-43756151D01*
X128337704Y-43756150D01*
X128391393Y-43688828D01*
X128391400Y-43688817D01*
X128526290Y-43455181D01*
X128624851Y-43204052D01*
X128624857Y-43204033D01*
X128684886Y-42941028D01*
X128684886Y-42941026D01*
X128705047Y-42672004D01*
X128705047Y-42671995D01*
X128684886Y-42402973D01*
X128684886Y-42402971D01*
X128624857Y-42139966D01*
X128624851Y-42139947D01*
X128526290Y-41888818D01*
X128526291Y-41888818D01*
X128391397Y-41655177D01*
X128337704Y-41587847D01*
X127615846Y-42309705D01*
X127608951Y-42293058D01*
X127521401Y-42162030D01*
X127409970Y-42050599D01*
X127278942Y-41963049D01*
X127262294Y-41956153D01*
X127985150Y-41233296D01*
X127802517Y-41108779D01*
X127802516Y-41108778D01*
X127559460Y-40991730D01*
X127559462Y-40991730D01*
X127301662Y-40912209D01*
X127301656Y-40912207D01*
X127034898Y-40872000D01*
X126765101Y-40872000D01*
X126498343Y-40912207D01*
X126498337Y-40912209D01*
X126240538Y-40991730D01*
X125997485Y-41108778D01*
X125997476Y-41108783D01*
X125814848Y-41233296D01*
X126537705Y-41956153D01*
X126521058Y-41963049D01*
X126390030Y-42050599D01*
X126278599Y-42162030D01*
X126191049Y-42293058D01*
X126184153Y-42309706D01*
X125462295Y-41587848D01*
X125408600Y-41655180D01*
X125273709Y-41888818D01*
X125175148Y-42139947D01*
X125175142Y-42139966D01*
X125115113Y-42402971D01*
X125115113Y-42402973D01*
X125094953Y-42671995D01*
X125094953Y-42672004D01*
X125115113Y-42941026D01*
X125115113Y-42941028D01*
X125175142Y-43204033D01*
X125175148Y-43204052D01*
X125224706Y-43330324D01*
X125230875Y-43399921D01*
X125198437Y-43461804D01*
X125137692Y-43496327D01*
X125072729Y-43494117D01*
X124967973Y-43461804D01*
X124850623Y-43425606D01*
X124850619Y-43425605D01*
X124850615Y-43425604D01*
X124725823Y-43406794D01*
X124591187Y-43386500D01*
X124591182Y-43386500D01*
X124328818Y-43386500D01*
X124328812Y-43386500D01*
X124167247Y-43410853D01*
X124069385Y-43425604D01*
X124069382Y-43425605D01*
X124069376Y-43425606D01*
X123818673Y-43502938D01*
X123621052Y-43598107D01*
X123552111Y-43609459D01*
X123487976Y-43581736D01*
X123449011Y-43523741D01*
X123447586Y-43453886D01*
X123451823Y-43441085D01*
X123544851Y-43204052D01*
X123544857Y-43204033D01*
X123604886Y-42941028D01*
X123604886Y-42941026D01*
X123625047Y-42672004D01*
X123625047Y-42671995D01*
X123604886Y-42402973D01*
X123604886Y-42402971D01*
X123544857Y-42139966D01*
X123544851Y-42139947D01*
X123446290Y-41888818D01*
X123446291Y-41888818D01*
X123311397Y-41655177D01*
X123257704Y-41587847D01*
X122535846Y-42309705D01*
X122528951Y-42293058D01*
X122441401Y-42162030D01*
X122329970Y-42050599D01*
X122198942Y-41963049D01*
X122182294Y-41956153D01*
X122905150Y-41233296D01*
X122722517Y-41108779D01*
X122722516Y-41108778D01*
X122479460Y-40991730D01*
X122479462Y-40991730D01*
X122221662Y-40912209D01*
X122221656Y-40912207D01*
X121954898Y-40872000D01*
X121685101Y-40872000D01*
X121418343Y-40912207D01*
X121418337Y-40912209D01*
X121160538Y-40991730D01*
X120917485Y-41108778D01*
X120917476Y-41108783D01*
X120734848Y-41233296D01*
X121457705Y-41956153D01*
X121441058Y-41963049D01*
X121310030Y-42050599D01*
X121198599Y-42162030D01*
X121111049Y-42293058D01*
X121104153Y-42309706D01*
X120382295Y-41587848D01*
X120328600Y-41655180D01*
X120193709Y-41888818D01*
X120095148Y-42139947D01*
X120095142Y-42139966D01*
X120035113Y-42402971D01*
X120035113Y-42402973D01*
X120014953Y-42671995D01*
X120014953Y-42672004D01*
X120035113Y-42941026D01*
X120035113Y-42941028D01*
X120095142Y-43204033D01*
X120095148Y-43204052D01*
X120193709Y-43455181D01*
X120193708Y-43455181D01*
X120328602Y-43688822D01*
X120382294Y-43756151D01*
X120382295Y-43756151D01*
X121104153Y-43034293D01*
X121111049Y-43050942D01*
X121198599Y-43181970D01*
X121310030Y-43293401D01*
X121441058Y-43380951D01*
X121457705Y-43387846D01*
X120734848Y-44110702D01*
X120917483Y-44235220D01*
X120917485Y-44235221D01*
X121160539Y-44352269D01*
X121160537Y-44352269D01*
X121418337Y-44431790D01*
X121418343Y-44431792D01*
X121685101Y-44471999D01*
X121685110Y-44472000D01*
X121954890Y-44472000D01*
X121954898Y-44471999D01*
X122221656Y-44431792D01*
X122221662Y-44431790D01*
X122479458Y-44352270D01*
X122697927Y-44247061D01*
X122766869Y-44235709D01*
X122831003Y-44263431D01*
X122869969Y-44321426D01*
X122871394Y-44391281D01*
X122867158Y-44404081D01*
X122782583Y-44619578D01*
X122782578Y-44619590D01*
X122782576Y-44619597D01*
X122724197Y-44875374D01*
X122724196Y-44875379D01*
X122704592Y-45136995D01*
X122704592Y-45137004D01*
X122724196Y-45398620D01*
X122724197Y-45398625D01*
X122782576Y-45654402D01*
X122782582Y-45654421D01*
X122878432Y-45898643D01*
X122984256Y-46081937D01*
X123000729Y-46149837D01*
X122977876Y-46215864D01*
X122922955Y-46259055D01*
X122853402Y-46265696D01*
X122807017Y-46246390D01*
X122722526Y-46188784D01*
X122722516Y-46188778D01*
X122479460Y-46071730D01*
X122479462Y-46071730D01*
X122221662Y-45992209D01*
X122221656Y-45992207D01*
X121954898Y-45952000D01*
X121685101Y-45952000D01*
X121418343Y-45992207D01*
X121418337Y-45992209D01*
X121160538Y-46071730D01*
X120917485Y-46188778D01*
X120917476Y-46188783D01*
X120734848Y-46313296D01*
X121457705Y-47036153D01*
X121441058Y-47043049D01*
X121310030Y-47130599D01*
X121198599Y-47242030D01*
X121111049Y-47373058D01*
X121104153Y-47389706D01*
X120382295Y-46667848D01*
X120328600Y-46735180D01*
X120193709Y-46968818D01*
X120095148Y-47219947D01*
X120095142Y-47219966D01*
X120035113Y-47482971D01*
X120035113Y-47482973D01*
X120014953Y-47751995D01*
X120014953Y-47752004D01*
X99700500Y-47752004D01*
X99700500Y-40224500D01*
X99720185Y-40157461D01*
X99772989Y-40111706D01*
X99824500Y-40100500D01*
X198575500Y-40100500D01*
X198642539Y-40120185D01*
G37*
G04 #@! TD.AperFunction*
M02*
